# Blender v3.4.1 OBJ File: 'Tiny_Treats_Charming_Kitchen_ASSETS_EXPORT.blend'
# www.blender.org
mtllib countertop_corner_inner.mtl
o countertop_corner_inner
v -0.750001 0.750000 1.000000
v -0.750001 1.000000 1.000000
v -0.750000 0.750000 -0.750000
v -0.750000 1.000000 -0.750000
v 0.699999 0.750000 1.000000
v 0.749999 0.800000 1.000000
v 0.749999 0.950000 1.000000
v 0.699999 1.000000 1.000000
v 0.750000 0.800000 0.750000
v 0.700000 0.750000 0.700000
v 0.700000 1.000000 0.700000
v 0.750000 0.950000 0.750000
v 0.499999 0.000000 0.950000
v 0.549999 0.050000 0.950000
v 0.499999 0.050000 1.000000
v 0.549999 0.750000 0.950000
v 0.499999 0.750000 1.000000
v -0.700001 0.000000 0.950000
v -0.700001 0.050000 1.000000
v -0.750001 0.050000 0.950000
v -0.750001 0.750000 0.950000
v -0.700001 0.750000 1.000000
v 0.500000 0.000000 0.500000
v 0.550000 0.050000 0.550000
v 0.550000 0.750000 0.550000
v -0.700000 0.000000 -0.700000
v -0.750000 0.050000 -0.700000
v -0.700000 0.050000 -0.750000
v -0.700000 0.750000 -0.750000
v -0.750000 0.750000 -0.700000
v 1.000001 0.750000 -0.750000
v 1.000001 1.000000 -0.750000
v 1.000001 0.800000 0.750000
v 1.000001 0.750000 0.700000
v 1.000001 1.000000 0.700000
v 1.000001 0.950000 0.750000
v 0.950001 0.000000 0.500000
v 1.000001 0.050000 0.500000
v 0.950001 0.050000 0.550000
v 0.950001 0.750000 0.550000
v 1.000001 0.750000 0.500000
v 0.950001 0.000000 -0.700000
v 0.950001 0.050000 -0.750000
v 1.000001 0.050000 -0.700000
v 1.000001 0.750000 -0.700000
v 0.950001 0.750000 -0.750000
vt 0.710610 0.853896
vt 0.710610 0.889846
vt 0.664389 0.889846
vt 0.664389 0.853896
vt 0.661821 0.853896
vt 0.661821 0.889846
vt 0.661821 0.889846
vt 0.661821 0.853896
vt 0.664389 0.853896
vt 0.664389 0.889846
vt 0.710610 0.889846
vt 0.710610 0.853896
vt 0.476485 0.882766
vt 0.476485 0.894462
vt 0.398514 0.894462
vt 0.398514 0.882766
vt 0.398514 0.878868
vt 0.398514 0.898360
vt 0.476485 0.898360
vt 0.476485 0.878868
vt 0.398514 0.878868
vt 0.398514 0.898360
vt 0.398514 0.863243
vt 0.476485 0.863243
vt 0.476485 0.867141
vt 0.398514 0.867141
vt 0.476485 0.945235
vt 0.398514 0.945235
vt 0.398514 0.941337
vt 0.476485 0.941337
vt 0.476485 0.929610
vt 0.398514 0.929610
vt 0.476485 0.929610
vt 0.476485 0.929610
vt 0.664389 0.830745
vt 0.664389 0.833313
vt 0.661821 0.833313
vt 0.664389 0.830745
vt 0.661821 0.833313
vt 0.664389 0.833313
vt 0.710610 0.830745
vt 0.710610 0.833313
vt 0.713178 0.833313
vt 0.713178 0.889846
vt 0.713178 0.853896
vt 0.710610 0.830745
vt 0.710610 0.833313
vt 0.710610 0.853896
vt 0.710610 0.889846
vt 0.664389 0.889846
vt 0.664389 0.853896
vt 0.713178 0.853896
vt 0.713178 0.889846
vt 0.713178 0.889846
vt 0.713178 0.853896
vt 0.664389 0.853896
vt 0.664389 0.889846
vt 0.710610 0.889846
vt 0.710610 0.853896
vt 0.476485 0.882766
vt 0.476485 0.894462
vt 0.398514 0.894462
vt 0.398514 0.882766
vt 0.398514 0.878868
vt 0.398514 0.898360
vt 0.476485 0.898360
vt 0.476485 0.878868
vt 0.476485 0.878868
vt 0.476485 0.898360
vt 0.398514 0.863243
vt 0.476485 0.863243
vt 0.476485 0.867141
vt 0.398514 0.867141
vt 0.476485 0.945235
vt 0.398514 0.945235
vt 0.398514 0.941337
vt 0.476485 0.941337
vt 0.710610 0.830745
vt 0.713178 0.833313
vt 0.710610 0.833313
vt 0.710610 0.830745
vt 0.710610 0.833313
vt 0.713178 0.833313
vt 0.664389 0.830745
vt 0.664389 0.833313
vt 0.664389 0.830745
vt 0.664389 0.833313
vt 0.398514 0.847618
vt 0.476485 0.847618
vt 0.476485 0.847618
vt 0.476485 0.847618
vt 0.398514 0.929610
vt 0.398514 0.929610
vt 0.398514 0.847618
vt 0.398514 0.847618
vn 1.0000 0.0000 0.0000
vn 0.9239 0.0000 0.3827
vn 0.8756 -0.3416 0.3416
vn 0.0000 0.0000 1.0000
vn -0.8756 -0.3416 0.3416
vn -1.0000 0.0000 -0.0000
vn -0.8756 -0.3416 -0.3416
vn 0.7071 -0.7071 0.0000
vn 0.7071 0.7071 0.0000
vn 0.0000 1.0000 -0.0000
vn 0.3416 -0.8756 0.3416
vn 0.4606 -0.4606 0.7588
vn -0.3416 -0.8756 0.3416
vn -0.4606 -0.4606 0.7588
vn -0.4606 -0.7588 -0.4606
vn -0.3416 -0.3416 -0.8756
vn 0.7071 0.0000 0.7071
vn -0.7071 0.0000 0.7071
vn -0.3827 0.0000 -0.9239
vn -0.7071 0.0000 -0.7071
vn 0.1244 -0.9922 0.0000
vn 0.0000 -1.0000 0.0000
vn 0.3416 -0.3416 0.8756
vn 0.3827 0.0000 0.9239
vn 0.0000 -0.4444 0.8959
vn 0.8756 -0.3416 -0.3416
vn 0.9239 0.0000 -0.3827
vn -0.0000 0.0000 -1.0000
vn 0.3416 -0.3416 -0.8756
vn 0.0000 -0.7071 0.7071
vn 0.0000 0.7071 0.7071
vn 0.7588 -0.4606 0.4606
vn 0.3416 -0.8756 -0.3416
vn 0.7071 0.0000 -0.7071
usemtl tiny_treats_1
s 1
f 24/1/1 25/2/1 16/3/2 14/4/3
f 15/5/4 17/6/4 22/7/4 19/8/4
f 20/9/5 21/10/6 30/11/6 27/12/7
f 9/13/1 12/14/1 7/15/1 6/16/1
f 1/17/6 2/18/6 4/19/6 3/20/6
f 5/21/4 6/16/4 7/15/4 8/22/4
f 5/23/8 10/24/8 9/25/8 6/26/8
f 11/27/9 8/28/9 7/29/9 12/30/9
f 4/31/10 11/32/10 35/33/10 32/34/10
f 13/35/11 14/36/3 15/37/12
f 18/38/13 19/39/14 20/40/5
f 26/41/15 27/42/7 28/43/16
f 18/38/13 13/35/11 15/37/12 19/39/14
f 14/4/3 16/3/2 17/6/17 15/5/12
f 21/10/18 20/9/5 19/8/14 22/7/18
f 26/41/15 18/38/13 20/40/5 27/42/7
f 29/44/19 28/45/16 27/12/7 30/11/20
f 13/35/11 23/46/21 24/47/8 14/36/3
f 18/38/13 26/41/22 23/46/21 13/35/11
f 1/17/4 5/21/4 8/22/4 2/18/4
f 39/48/23 40/49/24 25/50/4 24/51/25
f 44/52/26 45/53/27 41/54/1 38/55/1
f 28/56/16 29/57/19 46/58/28 43/59/29
f 33/60/4 36/61/4 12/62/4 9/63/4
f 3/64/28 4/65/28 32/66/28 31/67/28
f 34/68/1 35/69/1 36/61/1 33/60/1
f 10/70/30 34/71/30 33/72/30 9/73/30
f 35/74/31 11/75/31 12/76/31 36/77/31
f 37/78/11 38/79/32 39/80/23
f 42/81/33 43/82/29 44/83/26
f 42/81/33 26/84/15 28/85/16 43/82/29
f 45/53/27 44/52/26 43/59/29 46/58/34
f 37/78/11 42/81/33 44/83/26 38/79/32
f 40/49/24 39/48/23 38/55/32 41/54/17
f 23/86/30 37/78/11 39/80/23 24/87/25
f 26/84/22 42/81/33 37/78/11 23/86/21
f 31/67/1 32/66/1 35/69/1 34/68/1
f 3/88/22 31/89/22 34/90/22 10/91/22
f 2/92/10 8/93/10 11/32/10 4/31/10
f 1/94/22 3/88/22 10/91/22 5/95/22
