# Blender v3.4.1 OBJ File: 'Tiny_Treats_Charming_Kitchen_ASSETS_EXPORT.blend'
# www.blender.org
mtllib countertop_counter_outer.mtl
o countertop_counter_outer
v 0.750003 0.750000 -0.750000
v 0.750003 1.000000 -0.750000
v 0.750003 0.750000 0.700000
v 0.750003 1.000000 0.700000
v -0.749997 0.800000 -0.750000
v -0.749997 0.950000 -0.750000
v -0.699997 1.000000 -0.750000
v -0.749997 0.950000 0.750000
v -0.499997 0.000000 -0.700000
v 0.700003 0.050000 -0.750000
v -0.499997 0.000000 0.500000
v -0.549997 0.050000 0.500000
v -0.549997 0.750000 0.500000
v -0.499997 0.750000 0.550000
v 0.700003 0.050000 0.550000
v 0.750003 0.750000 0.500000
v -0.699997 0.750000 -0.750000
v -0.699997 0.750000 0.700000
v -0.749997 0.800000 0.750000
v -0.699997 1.000000 0.700000
v 0.750003 0.800000 0.750000
v 0.750003 0.950000 0.750000
v -0.499997 0.050000 0.550000
v -0.549997 0.050000 -0.700000
v -0.499997 0.050000 -0.750000
v -0.499997 0.750000 -0.750000
v -0.549997 0.750000 -0.700000
v 0.700003 0.000000 0.500000
v 0.750003 0.050000 0.500000
v 0.700003 0.750000 0.550000
v 0.700003 0.000000 -0.700000
v 0.750003 0.050000 -0.700000
v 0.750003 0.750000 -0.700000
v 0.700003 0.750000 -0.750000
vt 0.710610 0.853896
vt 0.710610 0.889846
vt 0.664389 0.889846
vt 0.664389 0.853896
vt 0.713178 0.853896
vt 0.713178 0.889846
vt 0.713178 0.889846
vt 0.713178 0.853896
vt 0.661821 0.853896
vt 0.661821 0.889846
vt 0.661821 0.889846
vt 0.661821 0.853896
vt 0.664389 0.853896
vt 0.664389 0.889846
vt 0.710610 0.889846
vt 0.710610 0.853896
vt 0.476485 0.882766
vt 0.476485 0.894462
vt 0.398514 0.894462
vt 0.398514 0.882766
vt 0.398514 0.878868
vt 0.398514 0.898360
vt 0.476485 0.898360
vt 0.476485 0.878868
vt 0.476485 0.929610
vt 0.398514 0.929610
vt 0.398514 0.929610
vt 0.476485 0.929610
vt 0.398514 0.878868
vt 0.398514 0.898360
vt 0.398514 0.863243
vt 0.476485 0.863243
vt 0.476485 0.867141
vt 0.398514 0.867141
vt 0.476485 0.945235
vt 0.398514 0.945235
vt 0.398514 0.941337
vt 0.476485 0.941337
vt 0.398514 0.847618
vt 0.476485 0.847618
vt 0.476485 0.847618
vt 0.398514 0.847618
vt 0.664389 0.830745
vt 0.664389 0.833313
vt 0.661821 0.833313
vt 0.664389 0.830745
vt 0.661821 0.833313
vt 0.664389 0.833313
vt 0.710610 0.830745
vt 0.713178 0.833313
vt 0.710610 0.833313
vt 0.710610 0.830745
vt 0.710610 0.833313
vt 0.713178 0.833313
vt 0.476485 0.898360
vt 0.476485 0.878868
vt 0.476485 0.882766
vt 0.476485 0.894462
vt 0.398514 0.894462
vt 0.398514 0.882766
vt 0.398514 0.863243
vt 0.476485 0.863243
vt 0.476485 0.867141
vt 0.398514 0.867141
vt 0.476485 0.945235
vt 0.398514 0.945235
vt 0.398514 0.941337
vt 0.476485 0.941337
vt 0.664389 0.889846
vt 0.664389 0.853896
vt 0.661821 0.853896
vt 0.661821 0.889846
vt 0.710610 0.830745
vt 0.713178 0.833313
vt 0.713178 0.833313
vt 0.398514 0.878868
vt 0.398514 0.898360
vn -1.0000 0.0000 -0.0000
vn 0.3416 -0.3416 0.8756
vn 0.3827 -0.0000 0.9239
vn -0.3827 0.0000 0.9239
vn -0.3416 -0.3416 0.8756
vn -0.3416 -0.3416 -0.8756
vn -0.3827 0.0000 -0.9239
vn 0.3827 0.0000 -0.9239
vn 0.3416 -0.3416 -0.8756
vn 0.8756 -0.3416 -0.3416
vn 1.0000 0.0000 0.0000
vn 0.8756 -0.3416 0.3416
vn 0.0000 1.0000 0.0000
vn -0.0000 0.0000 -1.0000
vn -0.7071 -0.7071 -0.0000
vn -0.7071 0.7071 -0.0000
vn 0.0000 -1.0000 0.0000
vn -0.3416 -0.8756 -0.3416
vn -0.7588 -0.4606 -0.4606
vn 0.4606 -0.7588 -0.4606
vn -0.3416 -0.8756 0.3416
vn -0.7588 -0.4606 0.4606
vn 0.4606 -0.7588 0.4606
vn 0.7071 0.0000 -0.7071
vn 0.7071 -0.0000 0.7071
vn -0.7071 0.0000 0.7071
vn -0.0000 0.0000 1.0000
vn -0.0000 -0.7071 0.7071
vn -0.0000 0.7071 0.7071
vn -0.7071 0.0000 -0.7071
usemtl tiny_treats_1
s 1
f 12/1/1 13/2/1 27/3/1 24/4/1
f 15/5/2 30/6/3 14/7/4 23/8/5
f 25/9/6 26/10/7 34/11/8 10/12/9
f 32/13/10 33/14/11 16/15/11 29/16/12
f 19/17/1 8/18/1 6/19/1 5/20/1
f 1/21/11 2/22/11 4/23/11 3/24/11
f 4/25/13 2/26/13 7/27/13 20/28/13
f 17/29/14 5/20/14 6/19/14 7/30/14
f 17/31/15 18/32/15 19/33/15 5/34/15
f 20/35/16 7/36/16 6/37/16 8/38/16
f 1/39/17 3/40/17 18/41/17 17/42/17
f 9/43/18 24/44/19 25/45/6
f 31/46/20 10/47/9 32/48/10
f 11/49/21 23/50/5 12/51/22
f 28/52/23 29/53/12 15/54/2
f 31/46/20 9/43/18 25/45/6 10/47/9
f 33/14/24 32/13/10 10/12/9 34/11/8
f 30/6/3 15/5/2 29/16/12 16/15/25
f 11/49/21 28/52/23 15/54/2 23/50/5
f 13/2/26 12/1/22 23/8/5 14/7/4
f 9/43/18 11/49/21 12/51/22 24/44/19
f 31/46/17 28/52/17 11/49/21 9/43/18
f 3/24/27 4/23/27 20/55/27 18/56/27
f 1/21/14 17/29/14 7/30/14 2/22/14
f 21/57/27 22/58/27 8/59/27 19/60/27
f 3/24/11 4/23/11 22/58/11 21/57/11
f 18/61/28 3/62/28 21/63/28 19/64/28
f 4/65/29 20/66/29 8/67/29 22/68/29
f 26/69/7 25/70/6 24/71/19 27/72/30
f 28/52/23 31/73/20 32/74/10 29/75/12
f 17/29/1 18/76/1 20/77/1 7/30/1
