# Blender v3.4.1 OBJ File: 'Tiny_Treats_Charming_Kitchen_ASSETS_EXPORT.blend'
# www.blender.org
mtllib cuttingboard.mtl
o cuttingboard
v -0.500000 -0.000000 0.000000
v 0.500000 -0.000000 0.125000
v 0.500000 -0.000000 -0.125000
v -0.400000 -0.000000 0.375000
v -0.500000 -0.000000 0.275000
v -0.450000 -0.000000 0.361603
v -0.486603 -0.000000 0.325000
v -0.500000 -0.000000 -0.275000
v -0.400000 -0.000000 -0.375000
v -0.486603 -0.000000 -0.325000
v -0.450000 -0.000000 -0.361603
v 0.500000 -0.000000 0.275000
v 0.400000 -0.000000 0.375000
v 0.486603 -0.000000 0.325000
v 0.450000 -0.000000 0.361603
v 0.400000 -0.000000 -0.375000
v 0.500000 -0.000000 -0.275000
v 0.450000 -0.000000 -0.361603
v 0.486603 -0.000000 -0.325000
v 0.800000 -0.000000 0.025000
v 0.700000 -0.000000 0.125000
v 0.786602 -0.000000 0.075000
v 0.750000 -0.000000 0.111603
v 0.700000 -0.000000 -0.125000
v 0.800000 -0.000000 -0.025000
v 0.750000 -0.000000 -0.111603
v 0.786602 -0.000000 -0.075000
v -0.500000 0.070000 0.000000
v -0.470000 0.100000 0.000000
v 0.400000 -0.000000 0.000000
v 0.470000 0.100000 -0.095000
v 0.500000 0.070000 -0.125000
v 0.500000 0.070000 0.125000
v 0.470000 0.100000 0.095000
v -0.470000 0.100000 0.271050
v -0.500000 0.070000 0.275000
v -0.396050 0.100000 0.345000
v -0.400000 0.070000 0.375000
v -0.459705 0.100000 0.309471
v -0.486603 0.070000 0.325000
v -0.434471 0.100000 0.334705
v -0.450000 0.070000 0.361603
v -0.396050 0.100000 -0.345000
v -0.400000 0.070000 -0.375000
v -0.470000 0.100000 -0.271050
v -0.500000 0.070000 -0.275000
v -0.434471 0.100000 -0.334705
v -0.450000 0.070000 -0.361603
v -0.459705 0.100000 -0.309471
v -0.486603 0.070000 -0.325000
v 0.396050 0.100000 0.345000
v 0.400000 0.070000 0.375000
v 0.470000 0.100000 0.271050
v 0.500000 0.070000 0.275000
v 0.434471 0.100000 0.334705
v 0.450000 0.070000 0.361603
v 0.459705 0.100000 0.309471
v 0.486603 0.070000 0.325000
v 0.470000 0.100000 -0.271050
v 0.500000 0.070000 -0.275000
v 0.396050 0.100000 -0.345000
v 0.400000 0.070000 -0.375000
v 0.459705 0.100000 -0.309471
v 0.486603 0.070000 -0.325000
v 0.434471 0.100000 -0.334705
v 0.450000 0.070000 -0.361603
v 0.770000 0.100000 -0.021050
v 0.800000 0.070000 -0.025000
v 0.696050 0.100000 -0.095000
v 0.700000 0.070000 -0.125000
v 0.759705 0.100000 -0.059471
v 0.786602 0.070000 -0.075000
v 0.734471 0.100000 -0.084705
v 0.750000 0.070000 -0.111603
v 0.696050 0.100000 0.095000
v 0.700000 0.070000 0.125000
v 0.770000 0.100000 0.021050
v 0.800000 0.070000 0.025000
v 0.734471 0.100000 0.084705
v 0.750000 0.070000 0.111603
v 0.759705 0.100000 0.059471
v 0.786602 0.070000 0.075000
v 0.396050 0.100000 0.000000
vt 0.893622 0.871625
vt 0.893622 0.907600
vt 0.893622 0.907600
vt 0.893622 0.871625
vt 0.961128 0.840375
vt 0.954378 0.840375
vt 0.957753 0.840375
vt 0.960224 0.840375
vt 0.961128 0.871625
vt 0.961128 0.907600
vt 0.974630 0.907600
vt 0.974630 0.871625
vt 0.954378 0.840375
vt 0.961128 0.840375
vt 0.960224 0.840375
vt 0.957753 0.840375
vt 0.895647 0.909625
vt 0.900639 0.909625
vt 0.898045 0.909625
vt 0.896342 0.909625
vt 0.894526 0.907600
vt 0.894526 0.871625
vt 0.894526 0.871625
vt 0.894526 0.907600
vt 0.893622 0.907600
vt 0.893622 0.871625
vt 0.979355 0.909625
vt 0.974363 0.909625
vt 0.976957 0.909625
vt 0.978660 0.909625
vt 0.954378 0.840375
vt 0.961128 0.840375
vt 0.961128 0.840375
vt 0.974630 0.840375
vt 0.981380 0.840375
vt 0.980476 0.840375
vt 0.978005 0.840375
vt 0.896997 0.871625
vt 0.896997 0.907600
vt 0.893622 0.840375
vt 0.893622 0.840375
vt 0.900372 0.840375
vt 0.961128 0.871625
vt 0.961128 0.907600
vt 0.961128 0.907600
vt 0.961128 0.871625
vt 0.978005 0.907600
vt 0.978005 0.871625
vt 0.961128 0.871625
vt 0.961128 0.907600
vt 0.974630 0.871625
vt 0.974630 0.907600
vt 0.954378 0.871625
vt 0.954378 0.907600
vt 0.900372 0.907600
vt 0.900372 0.871625
vt 0.900372 0.907600
vt 0.900372 0.871625
vt 0.896997 0.871625
vt 0.896997 0.907600
vt 0.954378 0.907600
vt 0.954378 0.871625
vt 0.957753 0.871625
vt 0.957753 0.907600
vt 0.957753 0.907600
vt 0.957753 0.871625
vt 0.981380 0.907600
vt 0.981380 0.871625
vt 0.980476 0.871625
vt 0.980476 0.907600
vt 0.960224 0.907600
vt 0.960224 0.871625
vt 0.960224 0.907600
vt 0.960224 0.871625
vt 0.981380 0.907600
vt 0.981380 0.871625
vt 0.978005 0.871625
vt 0.978005 0.907600
vt 0.980476 0.907600
vt 0.980476 0.871625
vt 0.900639 0.909625
vt 0.895647 0.909625
vt 0.896342 0.909625
vt 0.898045 0.909625
vt 0.974363 0.909625
vt 0.979355 0.909625
vt 0.978660 0.909625
vt 0.976957 0.909625
vt 0.900639 0.925250
vt 0.898045 0.925250
vt 0.896997 0.923225
vt 0.900372 0.923225
vt 0.896342 0.925250
vt 0.894526 0.923225
vt 0.895647 0.925250
vt 0.893622 0.923225
vt 0.898045 0.925250
vt 0.900639 0.925250
vt 0.900372 0.923225
vt 0.896997 0.923225
vt 0.896342 0.925250
vt 0.894526 0.923225
vt 0.895647 0.925250
vt 0.893622 0.923225
vt 0.958408 0.925250
vt 0.959103 0.925250
vt 0.961128 0.923225
vt 0.960224 0.923225
vt 0.956705 0.925250
vt 0.957753 0.923225
vt 0.954111 0.925250
vt 0.954378 0.923225
vt 0.956705 0.925250
vt 0.954111 0.925250
vt 0.954378 0.923225
vt 0.957753 0.923225
vt 0.958408 0.925250
vt 0.960224 0.923225
vt 0.959103 0.925250
vt 0.961128 0.923225
vt 0.978660 0.925250
vt 0.979355 0.925250
vt 0.981380 0.923225
vt 0.980476 0.923225
vt 0.976957 0.925250
vt 0.978005 0.923225
vt 0.974363 0.925250
vt 0.974630 0.923225
vt 0.976957 0.925250
vt 0.974363 0.925250
vt 0.974630 0.923225
vt 0.978005 0.923225
vt 0.978660 0.925250
vt 0.980476 0.923225
vt 0.979355 0.925250
vt 0.981380 0.923225
vt 0.895647 0.925250
vt 0.893622 0.923225
vt 0.961128 0.923225
vt 0.959103 0.925250
vt 0.961128 0.923225
vt 0.959103 0.925250
vt 0.900372 0.840375
vt 0.893622 0.840375
vt 0.959103 0.909625
vt 0.958408 0.909625
vt 0.956705 0.909625
vt 0.954111 0.909625
vt 0.959103 0.909625
vt 0.954111 0.909625
vt 0.956705 0.909625
vt 0.958408 0.909625
vt 0.895647 0.909625
vt 0.959103 0.909625
vt 0.954111 0.909625
vt 0.959103 0.909625
vt 0.896997 0.840375
vt 0.894526 0.840375
vt 0.894526 0.840375
vt 0.896997 0.840375
vt 0.981380 0.840375
vt 0.974630 0.840375
vt 0.978005 0.840375
vt 0.980476 0.840375
vn -1.0000 0.0000 0.0000
vn -0.9239 0.3827 0.0000
vn -0.9196 0.3738 -0.1211
vn -0.9914 0.0000 -0.1305
vn 0.0000 -1.0000 0.0000
vn 0.0000 0.0000 -1.0000
vn 0.0000 0.4444 -0.8959
vn 0.1211 0.3738 -0.9196
vn 0.1305 0.0000 -0.9914
vn -0.4037 0.9134 -0.0531
vn -0.0531 0.9134 -0.4037
vn -0.2129 0.9049 -0.3687
vn -0.3687 0.9049 -0.2129
vn -0.8048 0.3692 -0.4647
vn -0.8660 0.0000 -0.5000
vn -0.8660 0.0000 0.5000
vn -0.8048 0.3692 0.4647
vn -0.9196 0.3738 0.1211
vn -0.9914 0.0000 0.1305
vn 0.4037 0.9134 0.0531
vn 0.0531 0.9134 0.4037
vn 0.2129 0.9049 0.3687
vn 0.3687 0.9049 0.2129
vn -0.5000 0.0000 0.8660
vn -0.4647 0.3692 0.8048
vn 1.0000 0.0000 0.0000
vn 0.8959 0.4444 0.0000
vn 0.9196 0.3738 0.1211
vn 0.9914 0.0000 0.1305
vn 0.4647 0.3692 -0.8048
vn 0.5000 0.0000 -0.8660
vn 0.9914 0.0000 -0.1305
vn 0.9196 0.3738 -0.1211
vn 0.0000 0.4444 0.8959
vn 0.0000 0.0000 1.0000
vn 0.1305 0.0000 0.9914
vn 0.1211 0.3738 0.9196
vn -0.1211 0.3738 0.9196
vn -0.1305 0.0000 0.9914
vn -0.1211 0.3738 -0.9196
vn -0.1305 0.0000 -0.9914
vn -0.5000 0.0000 -0.8660
vn -0.4647 0.3692 -0.8048
vn 0.5000 0.0000 0.8660
vn 0.4647 0.3692 0.8048
vn 0.8660 0.0000 -0.5000
vn 0.8048 0.3692 -0.4647
vn 0.8048 0.3692 0.4647
vn 0.8660 0.0000 0.5000
vn -0.0531 0.9134 0.4037
vn -0.4037 0.9134 0.0531
vn -0.3687 0.9049 0.2129
vn -0.2129 0.9049 0.3687
vn 0.0531 0.9134 -0.4037
vn 0.4037 0.9134 -0.0531
vn 0.3687 0.9049 -0.2129
vn 0.2129 0.9049 -0.3687
vn -0.3827 0.9239 -0.0000
vn 0.1101 0.9878 0.1101
vn 0.1101 0.9878 -0.1101
vn 0.0000 1.0000 -0.0000
usemtl tiny_treats_1
s 1
f 1/1/1 28/2/2 46/3/3 8/4/4
f 17/5/5 16/6/5 18/7/5 19/8/5
f 3/9/6 32/10/7 70/11/8 24/12/9
f 13/13/5 12/14/5 14/15/5 15/16/5
f 45/17/10 43/18/11 47/19/12 49/20/13
f 50/21/14 10/22/15 8/4/4 46/3/3
f 7/23/16 40/24/17 36/25/18 5/26/19
f 5/26/19 36/25/18 28/2/2 1/1/1
f 77/27/20 75/28/21 79/29/22 81/30/23
f 30/31/5 3/32/5 2/33/5
f 21/34/5 20/35/5 22/36/5 23/37/5
f 6/38/24 42/39/25 40/24/17 7/23/16
f 1/40/5 8/41/5 9/42/5
f 2/43/26 33/44/27 54/45/28 12/46/29
f 74/47/30 26/48/31 24/12/9 70/11/8
f 17/49/32 60/50/33 32/10/27 3/9/26
f 33/44/34 2/43/35 21/51/36 76/52/37
f 13/53/36 52/54/37 38/55/38 4/56/39
f 44/57/40 9/58/41 11/59/42 48/60/43
f 4/56/39 38/55/38 42/39/25 6/38/24
f 9/58/41 44/57/40 62/61/8 16/62/9
f 52/54/37 13/53/36 15/63/44 56/64/45
f 48/60/43 11/59/42 10/22/15 50/21/14
f 66/65/30 18/66/31 16/62/9 62/61/8
f 68/67/33 25/68/32 27/69/46 72/70/47
f 64/71/47 19/72/46 18/66/31 66/65/30
f 58/73/48 14/74/49 12/46/29 54/45/28
f 60/50/33 17/49/32 19/72/46 64/71/47
f 56/64/45 15/63/44 14/74/49 58/73/48
f 25/68/32 68/67/33 78/75/28 20/76/29
f 76/52/37 21/51/36 23/77/44 80/78/45
f 72/70/47 27/69/46 26/48/31 74/47/30
f 82/79/48 22/80/49 20/76/29 78/75/28
f 80/78/45 23/77/44 22/80/49 82/79/48
f 37/81/50 35/82/51 39/83/52 41/84/53
f 69/85/54 67/86/55 71/87/56 73/88/57
f 37/89/50 41/90/53 42/91/25 38/92/38
f 41/90/53 39/93/52 40/94/17 42/91/25
f 39/93/52 35/95/51 36/96/18 40/94/17
f 47/97/12 43/98/11 44/99/40 48/100/43
f 49/101/13 47/97/12 48/100/43 50/102/14
f 45/103/10 49/101/13 50/102/14 46/104/3
f 63/105/56 59/106/55 60/107/33 64/108/47
f 65/109/57 63/105/56 64/108/47 66/110/30
f 61/111/54 65/109/57 66/110/30 62/112/8
f 55/113/22 51/114/21 52/115/37 56/116/45
f 57/117/23 55/113/22 56/116/45 58/118/48
f 53/119/20 57/117/23 58/118/48 54/120/28
f 71/121/56 67/122/55 68/123/33 72/124/47
f 73/125/57 71/121/56 72/124/47 74/126/30
f 69/127/54 73/125/57 74/126/30 70/128/8
f 79/129/22 75/130/21 76/131/37 80/132/45
f 81/133/23 79/129/22 80/132/45 82/134/48
f 77/135/20 81/133/23 82/134/48 78/136/28
f 35/95/51 29/137/58 28/138/2 36/96/18
f 51/114/21 37/89/50 38/92/38 52/115/37
f 54/120/28 33/139/27 34/140/59 53/119/20
f 43/98/11 61/111/54 62/112/8 44/99/40
f 29/137/58 45/103/10 46/104/3 28/138/2
f 32/141/27 60/107/33 59/106/55 31/142/60
f 67/122/55 77/135/20 78/136/28 68/123/33
f 75/130/21 34/140/59 33/139/34 76/131/37
f 31/142/60 69/127/54 70/128/8 32/141/7
f 1/40/5 4/143/5 5/144/5
f 59/145/55 63/146/56 65/147/57 61/148/54
f 53/149/20 51/150/21 55/151/22 57/152/23
f 29/153/58 43/18/11 45/17/10
f 29/153/58 35/82/51 37/81/50
f 31/154/60 83/155/61 34/156/59
f 31/154/60 59/145/55 61/148/54 83/155/61
f 34/156/59 83/155/61 51/150/21 53/149/20
f 1/40/5 9/42/5 16/6/5 30/31/5
f 83/155/61 61/148/54 43/18/11 29/153/58
f 83/155/61 29/153/58 37/81/50 51/150/21
f 5/144/5 4/143/5 6/157/5 7/158/5
f 8/41/5 10/159/5 11/160/5 9/42/5
f 30/31/5 16/6/5 17/5/5 3/32/5
f 30/31/5 2/33/5 12/14/5 13/13/5
f 1/40/5 30/31/5 13/13/5 4/143/5
f 69/85/54 75/28/21 77/27/20 67/86/55
f 31/154/60 34/156/59 75/28/21 69/85/54
f 25/161/5 24/162/5 26/163/5 27/164/5
f 21/34/5 24/162/5 25/161/5 20/35/5
f 2/33/5 3/32/5 24/162/5 21/34/5
