# Blender v3.4.1 OBJ File: 'Tiny_Treats_Charming_Kitchen_ASSETS_EXPORT.blend'
# www.blender.org
mtllib floor_tiles_kitchen.mtl
o floor_tiles_kitchen
v -1.000000 0.000000 1.000000
v -1.000000 0.450000 1.000000
v -1.000000 0.000000 -1.000000
v -1.000000 0.450000 -1.000000
v 1.000000 0.000000 1.000000
v 1.000000 0.450000 1.000000
v 1.000000 0.000000 -1.000000
v 1.000000 0.450000 -1.000000
v -0.950000 0.450000 0.000000
v -0.950000 0.500000 -0.050000
v -1.000000 0.450000 -0.050000
v -0.950000 0.485355 -0.014645
v -0.978868 0.478868 -0.021132
v -0.985355 0.485355 -0.050000
v -0.985355 0.450000 -0.014645
v -0.950000 0.500000 -0.950000
v -0.950000 0.450000 -1.000000
v -1.000000 0.450000 -0.950000
v -0.950000 0.485355 -0.985355
v -0.978868 0.478868 -0.978868
v -0.985355 0.450000 -0.985355
v -0.985355 0.485355 -0.950000
v -0.050000 0.500000 -0.050000
v -0.050000 0.450000 0.000000
v 0.000000 0.450000 -0.050000
v -0.050000 0.485355 -0.014645
v -0.021132 0.478868 -0.021132
v -0.014645 0.450000 -0.014645
v -0.014645 0.485355 -0.050000
v -0.050000 0.500000 -0.950000
v 0.000000 0.450000 -0.950000
v -0.050000 0.450000 -1.000000
v -0.014645 0.485355 -0.950000
v -0.021132 0.478868 -0.978868
v -0.014645 0.450000 -0.985355
v -0.050000 0.485355 -0.985355
v 0.050000 0.450000 0.000000
v 0.050000 0.500000 -0.050000
v 0.000000 0.450000 -0.050000
v 0.050000 0.485355 -0.014645
v 0.021132 0.478868 -0.021132
v 0.014645 0.485355 -0.050000
v 0.014645 0.450000 -0.014645
v 0.050000 0.500000 -0.950000
v 0.050000 0.450000 -1.000000
v 0.000000 0.450000 -0.950000
v 0.050000 0.485355 -0.985355
v 0.021132 0.478868 -0.978868
v 0.014645 0.450000 -0.985355
v 0.014645 0.485355 -0.950000
v 0.950000 0.500000 -0.050000
v 0.950000 0.450000 0.000000
v 1.000000 0.450000 -0.050000
v 0.950000 0.485355 -0.014645
v 0.978868 0.478868 -0.021132
v 0.985355 0.450000 -0.014645
v 0.985355 0.485355 -0.050000
v 0.950000 0.500000 -0.950000
v 1.000000 0.450000 -0.950000
v 0.950000 0.450000 -1.000000
v 0.985355 0.485355 -0.950000
v 0.978868 0.478868 -0.978868
v 0.985355 0.450000 -0.985355
v 0.950000 0.485355 -0.985355
v -0.950000 0.450000 1.000000
v -0.950000 0.500000 0.950000
v -1.000000 0.450000 0.950000
v -0.950000 0.485355 0.985355
v -0.978868 0.478868 0.978868
v -0.985355 0.485355 0.950000
v -0.985355 0.450000 0.985355
v -0.950000 0.500000 0.050000
v -0.950000 0.450000 0.000000
v -1.000000 0.450000 0.050000
v -0.950000 0.485355 0.014645
v -0.978868 0.478868 0.021132
v -0.985355 0.450000 0.014645
v -0.985355 0.485355 0.050000
v -0.050000 0.500000 0.950000
v -0.050000 0.450000 1.000000
v 0.000000 0.450000 0.950000
v -0.050000 0.485355 0.985355
v -0.021132 0.478868 0.978868
v -0.014645 0.450000 0.985355
v -0.014645 0.485355 0.950000
v -0.050000 0.500000 0.050000
v 0.000000 0.450000 0.050000
v -0.050000 0.450000 0.000000
v -0.014645 0.485355 0.050000
v -0.021132 0.478868 0.021132
v -0.014645 0.450000 0.014645
v -0.050000 0.485355 0.014645
v 0.050000 0.450000 1.000000
v 0.050000 0.500000 0.950000
v 0.000000 0.450000 0.950000
v 0.050000 0.485355 0.985355
v 0.021132 0.478868 0.978868
v 0.014645 0.485355 0.950000
v 0.014645 0.450000 0.985355
v 0.050000 0.500000 0.050000
v 0.050000 0.450000 0.000000
v 0.000000 0.450000 0.050000
v 0.050000 0.485355 0.014645
v 0.021132 0.478868 0.021132
v 0.014645 0.450000 0.014645
v 0.014645 0.485355 0.050000
v 0.950000 0.500000 0.950000
v 0.950000 0.450000 1.000000
v 1.000000 0.450000 0.950000
v 0.950000 0.485355 0.985355
v 0.978868 0.478868 0.978868
v 0.985355 0.450000 0.985355
v 0.985355 0.485355 0.950000
v 0.950000 0.500000 0.050000
v 1.000000 0.450000 0.050000
v 0.950000 0.450000 0.000000
v 0.985355 0.485355 0.050000
v 0.978868 0.478868 0.021132
v 0.985355 0.450000 0.014645
v 0.950000 0.485355 0.014645
vt 0.513354 0.597089
vt 0.513354 0.619204
vt 0.513354 0.619204
vt 0.513354 0.597089
vt 0.611645 0.619204
vt 0.611645 0.597089
vt 0.611645 0.619204
vt 0.611645 0.597089
vt 0.560042 0.652911
vt 0.515811 0.652911
vt 0.515811 0.652911
vt 0.560042 0.652911
vt 0.515811 0.587954
vt 0.515811 0.589692
vt 0.514392 0.589373
vt 0.514073 0.587954
vt 0.515811 0.621661
vt 0.514073 0.589692
vt 0.513354 0.587954
vt 0.515811 0.621661
vt 0.515811 0.589692
vt 0.514392 0.589373
vt 0.514073 0.589692
vt 0.515811 0.587954
vt 0.514073 0.587954
vt 0.513354 0.587954
vt 0.560042 0.684161
vt 0.560042 0.652192
vt 0.561461 0.651873
vt 0.561780 0.652192
vt 0.560042 0.650454
vt 0.561780 0.650454
vt 0.562500 0.650454
vt 0.560042 0.684161
vt 0.561780 0.652192
vt 0.561461 0.651873
vt 0.560042 0.652192
vt 0.562500 0.650454
vt 0.561780 0.650454
vt 0.560042 0.650454
vt 0.560042 0.620942
vt 0.515811 0.620942
vt 0.560042 0.619204
vt 0.515811 0.619204
vt 0.515811 0.620942
vt 0.560042 0.620942
vt 0.515811 0.619204
vt 0.560042 0.619204
vt 0.609188 0.699786
vt 0.564957 0.699786
vt 0.564957 0.699786
vt 0.609188 0.699786
vt 0.564957 0.634829
vt 0.564957 0.636567
vt 0.563538 0.636248
vt 0.563219 0.634829
vt 0.564957 0.668536
vt 0.563219 0.636567
vt 0.562500 0.634829
vt 0.564957 0.668536
vt 0.564957 0.636567
vt 0.563538 0.636248
vt 0.563219 0.636567
vt 0.564957 0.634829
vt 0.563219 0.634829
vt 0.562500 0.634829
vt 0.609188 0.731036
vt 0.609188 0.699067
vt 0.610607 0.698748
vt 0.610926 0.699067
vt 0.609188 0.697329
vt 0.610926 0.697329
vt 0.611645 0.697329
vt 0.609188 0.731036
vt 0.610926 0.699067
vt 0.610607 0.698748
vt 0.609188 0.699067
vt 0.611645 0.697329
vt 0.610926 0.697329
vt 0.609188 0.697329
vt 0.609188 0.667817
vt 0.564957 0.667817
vt 0.609188 0.666079
vt 0.564957 0.666079
vt 0.564957 0.667817
vt 0.609188 0.667817
vt 0.564957 0.666079
vt 0.609188 0.666079
vt 0.560042 0.699786
vt 0.515811 0.699786
vt 0.515811 0.699786
vt 0.560042 0.699786
vt 0.515811 0.634829
vt 0.515811 0.636567
vt 0.514392 0.636248
vt 0.514073 0.634829
vt 0.515811 0.668536
vt 0.514073 0.636567
vt 0.513354 0.634829
vt 0.515811 0.668536
vt 0.515811 0.636567
vt 0.514392 0.636248
vt 0.514073 0.636567
vt 0.515811 0.634829
vt 0.514073 0.634829
vt 0.513354 0.634829
vt 0.560042 0.731036
vt 0.560042 0.699067
vt 0.561461 0.698748
vt 0.561780 0.699067
vt 0.560042 0.697329
vt 0.561780 0.697329
vt 0.562500 0.697329
vt 0.560042 0.731036
vt 0.561780 0.699067
vt 0.561461 0.698748
vt 0.560042 0.699067
vt 0.562500 0.697329
vt 0.561780 0.697329
vt 0.560042 0.697329
vt 0.560042 0.667817
vt 0.515811 0.667817
vt 0.560042 0.666079
vt 0.515811 0.666079
vt 0.515811 0.667817
vt 0.560042 0.667817
vt 0.515811 0.666079
vt 0.560042 0.666079
vt 0.609188 0.652911
vt 0.564957 0.652911
vt 0.564957 0.652911
vt 0.609188 0.652911
vt 0.564957 0.587954
vt 0.564957 0.589692
vt 0.563538 0.589373
vt 0.563219 0.587954
vt 0.564957 0.621661
vt 0.563219 0.589692
vt 0.562500 0.587954
vt 0.564957 0.621661
vt 0.564957 0.589692
vt 0.563538 0.589373
vt 0.563219 0.589692
vt 0.564957 0.587954
vt 0.563219 0.587954
vt 0.562500 0.587954
vt 0.609188 0.684161
vt 0.609188 0.652192
vt 0.610607 0.651873
vt 0.610926 0.652192
vt 0.609188 0.650454
vt 0.610926 0.650454
vt 0.611645 0.650454
vt 0.609188 0.684161
vt 0.610926 0.652192
vt 0.610607 0.651873
vt 0.609188 0.652192
vt 0.611645 0.650454
vt 0.610926 0.650454
vt 0.609188 0.650454
vt 0.609188 0.620942
vt 0.564957 0.620942
vt 0.609188 0.619204
vt 0.564957 0.619204
vt 0.564957 0.620942
vt 0.609188 0.620942
vt 0.564957 0.619204
vt 0.609188 0.619204
vn -1.0000 0.0000 0.0000
vn 0.0000 0.0000 -1.0000
vn 1.0000 0.0000 0.0000
vn 0.0000 0.0000 1.0000
vn 0.0000 -1.0000 0.0000
vn 0.0000 1.0000 0.0000
vn 0.1794 0.9673 -0.1794
vn -0.1794 0.9673 -0.1794
vn -0.1794 0.9673 0.1794
vn 0.1794 0.9673 0.1794
vn -0.1567 0.3603 0.9196
vn -0.1726 0.6965 0.6965
vn -0.5773 0.5774 0.5773
vn -0.6612 0.3543 0.6612
vn -0.6965 0.6965 0.1726
vn -0.9196 0.3603 0.1567
vn -0.1726 0.6965 -0.6965
vn -0.5773 0.5774 -0.5774
vn -0.6965 0.6965 -0.1726
vn -0.1567 0.3603 -0.9196
vn -0.6612 0.3543 -0.6612
vn -0.9196 0.3603 -0.1567
vn 0.1726 0.6965 0.6965
vn 0.5774 0.5774 0.5774
vn 0.6965 0.6965 0.1726
vn 0.1567 0.3603 0.9196
vn 0.6612 0.3543 0.6612
vn 0.9196 0.3603 0.1567
vn 0.6965 0.6965 -0.1726
vn 0.5774 0.5774 -0.5773
vn 0.1726 0.6965 -0.6965
vn 0.9196 0.3603 -0.1567
vn 0.6612 0.3543 -0.6612
vn 0.1567 0.3603 -0.9196
vn -0.5774 0.5774 0.5773
vn -0.5774 0.5774 -0.5774
vn 0.5773 0.5774 0.5774
vn 0.6612 0.3544 0.6612
vn -0.6612 0.3544 -0.6612
vn 0.5773 0.5774 -0.5773
usemtl tiny_treats_1
s 1
f 1/1/1 2/2/1 4/3/1 3/4/1
f 3/4/2 4/3/2 8/5/2 7/6/2
f 7/6/3 8/5/3 6/7/3 5/8/3
f 5/8/4 6/7/4 2/2/4 1/1/4
f 3/4/5 7/6/5 5/8/5 1/1/5
f 8/5/6 4/3/6 2/2/6 6/7/6
f 30/9/7 16/10/8 10/11/9 23/12/10
f 9/13/11 12/14/12 13/15/13 15/16/14
f 10/17/9 14/18/15 13/15/13 12/14/12
f 11/19/16 15/16/14 13/15/13 14/18/15
f 16/20/8 19/21/17 20/22/18 22/23/19
f 17/24/20 21/25/21 20/22/18 19/21/17
f 18/26/22 22/23/19 20/22/18 21/25/21
f 23/27/10 26/28/23 27/29/24 29/30/25
f 24/31/26 28/32/27 27/29/24 26/28/23
f 25/33/28 29/30/25 27/29/24 28/32/27
f 30/34/7 33/35/29 34/36/30 36/37/31
f 31/38/32 35/39/33 34/36/30 33/35/29
f 32/40/34 36/37/31 34/36/30 35/39/33
f 10/17/9 16/20/8 22/23/19 14/18/15
f 14/18/15 22/23/19 18/26/22 11/19/16
f 16/10/8 30/9/7 36/41/31 19/42/17
f 19/42/17 36/41/31 32/43/34 17/44/20
f 30/34/7 23/27/10 29/30/25 33/35/29
f 33/35/29 29/30/25 25/33/28 31/38/32
f 23/12/10 10/11/9 12/45/12 26/46/23
f 26/46/23 12/45/12 9/47/11 24/48/26
f 58/49/7 44/50/8 38/51/9 51/52/10
f 37/53/11 40/54/12 41/55/35 43/56/14
f 38/57/9 42/58/15 41/55/35 40/54/12
f 39/59/16 43/56/14 41/55/35 42/58/15
f 44/60/8 47/61/17 48/62/36 50/63/19
f 45/64/20 49/65/21 48/62/36 47/61/17
f 46/66/22 50/63/19 48/62/36 49/65/21
f 51/67/10 54/68/23 55/69/37 57/70/25
f 52/71/26 56/72/38 55/69/37 54/68/23
f 53/73/28 57/70/25 55/69/37 56/72/38
f 58/74/7 61/75/29 62/76/30 64/77/31
f 59/78/32 63/79/33 62/76/30 61/75/29
f 60/80/34 64/77/31 62/76/30 63/79/33
f 38/57/9 44/60/8 50/63/19 42/58/15
f 42/58/15 50/63/19 46/66/22 39/59/16
f 44/50/8 58/49/7 64/81/31 47/82/17
f 47/82/17 64/81/31 60/83/34 45/84/20
f 58/74/7 51/67/10 57/70/25 61/75/29
f 61/75/29 57/70/25 53/73/28 59/78/32
f 51/52/10 38/51/9 40/85/12 54/86/23
f 54/86/23 40/85/12 37/87/11 52/88/26
f 86/89/7 72/90/8 66/91/9 79/92/10
f 65/93/11 68/94/12 69/95/35 71/96/14
f 66/97/9 70/98/15 69/95/35 68/94/12
f 67/99/16 71/96/14 69/95/35 70/98/15
f 72/100/8 75/101/17 76/102/18 78/103/19
f 73/104/20 77/105/39 76/102/18 75/101/17
f 74/106/22 78/103/19 76/102/18 77/105/39
f 79/107/10 82/108/23 83/109/24 85/110/25
f 80/111/26 84/112/27 83/109/24 82/108/23
f 81/113/28 85/110/25 83/109/24 84/112/27
f 86/114/7 89/115/29 90/116/30 92/117/31
f 87/118/32 91/119/33 90/116/30 89/115/29
f 88/120/34 92/117/31 90/116/30 91/119/33
f 66/97/9 72/100/8 78/103/19 70/98/15
f 70/98/15 78/103/19 74/106/22 67/99/16
f 72/90/8 86/89/7 92/121/31 75/122/17
f 75/122/17 92/121/31 88/123/34 73/124/20
f 86/114/7 79/107/10 85/110/25 89/115/29
f 89/115/29 85/110/25 81/113/28 87/118/32
f 79/92/10 66/91/9 68/125/12 82/126/23
f 82/126/23 68/125/12 65/127/11 80/128/26
f 114/129/7 100/130/8 94/131/9 107/132/10
f 93/133/11 96/134/12 97/135/35 99/136/14
f 94/137/9 98/138/15 97/135/35 96/134/12
f 95/139/16 99/136/14 97/135/35 98/138/15
f 100/140/8 103/141/17 104/142/36 106/143/19
f 101/144/20 105/145/21 104/142/36 103/141/17
f 102/146/22 106/143/19 104/142/36 105/145/21
f 107/147/10 110/148/23 111/149/37 113/150/25
f 108/151/26 112/152/27 111/149/37 110/148/23
f 109/153/28 113/150/25 111/149/37 112/152/27
f 114/154/7 117/155/29 118/156/40 120/157/31
f 115/158/32 119/159/33 118/156/40 117/155/29
f 116/160/34 120/157/31 118/156/40 119/159/33
f 94/137/9 100/140/8 106/143/19 98/138/15
f 98/138/15 106/143/19 102/146/22 95/139/16
f 100/130/8 114/129/7 120/161/31 103/162/17
f 103/162/17 120/161/31 116/163/34 101/164/20
f 114/154/7 107/147/10 113/150/25 117/155/29
f 117/155/29 113/150/25 109/153/28 115/158/32
f 107/132/10 94/131/9 96/165/12 110/166/23
f 110/166/23 96/165/12 93/167/11 108/168/26
