# Blender v3.4.1 OBJ File: 'Tiny_Treats_Charming_Kitchen_ASSETS_EXPORT.blend'
# www.blender.org
mtllib fridge_door_bottom.mtl
o fridge_door_bottom
v -1.000000 0.150000 0.750000
v -0.850000 0.000000 0.750000
v -0.850000 0.150000 0.900000
v -0.956066 0.043934 0.750000
v -0.936603 0.063397 0.836603
v -0.850000 0.043934 0.856066
v -0.956066 0.150000 0.856066
v -1.000000 0.150000 0.550000
v -0.850000 0.000000 0.550000
v -0.956066 0.150000 0.447178
v -0.936603 0.063397 0.447178
v -0.850000 0.043934 0.447178
v -0.956066 0.043934 0.550000
v 1.000000 0.150000 0.750000
v 0.850000 0.150000 0.900000
v 0.850000 0.000000 0.750000
v 0.956066 0.150000 0.856066
v 0.936603 0.063397 0.836603
v 0.850000 0.043934 0.856066
v 0.956066 0.043934 0.750000
v 1.000000 0.150000 0.550000
v 0.850000 0.000000 0.550000
v 0.956066 0.150000 0.447178
v 0.936603 0.063397 0.447178
v 0.956066 0.043934 0.550000
v 0.850000 0.043934 0.447178
v -1.000000 0.851489 0.750000
v -0.850000 1.001489 0.750000
v -0.850000 0.851489 0.900000
v -0.956066 0.957555 0.750000
v -0.936603 0.938092 0.836603
v -0.850000 0.957555 0.856066
v -0.956066 0.851489 0.856066
v -1.000000 0.851489 0.550000
v -0.850000 1.001489 0.550000
v -0.956066 0.851489 0.447178
v -0.936603 0.938092 0.447178
v -0.850000 0.957555 0.447178
v -0.956066 0.957555 0.550000
v 1.000000 0.851489 0.750000
v 0.850000 0.851489 0.900000
v 0.850000 1.001489 0.750000
v 0.956066 0.851489 0.856066
v 0.936603 0.938092 0.836603
v 0.850000 0.957555 0.856066
v 0.956066 0.957555 0.750000
v 1.000000 0.851489 0.550000
v 0.850000 1.001489 0.550000
v 0.956066 0.851489 0.447178
v 0.936603 0.938092 0.447178
v 0.956066 0.957555 0.550000
v 0.850000 0.957555 0.447178
v 0.850000 0.150000 0.447178
v -0.850000 0.150000 0.447178
v 0.850000 0.851489 0.447178
v -0.850000 0.851489 0.447178
v -0.748582 0.364175 0.977068
v -0.774025 0.337736 1.003507
v -0.774025 0.662274 1.003507
v -0.748582 0.635835 0.977068
v -0.625964 0.337736 1.003507
v -0.651408 0.364175 0.977068
v -0.651408 0.635835 0.977068
v -0.625964 0.662274 1.003507
v -0.654856 0.370385 0.897488
v -0.627115 0.342643 0.897488
v -0.772875 0.342643 0.897488
v -0.745133 0.370385 0.897488
v -0.745133 0.629625 0.897488
v -0.772875 0.657366 0.897488
v -0.627115 0.657366 0.897488
v -0.654856 0.629625 0.897488
v -0.772685 0.727375 0.897486
v -0.744686 0.753063 0.897486
v -0.655304 0.753063 0.897486
v -0.627304 0.727375 0.897486
v -0.627304 0.272634 0.897486
v -0.655304 0.246947 0.897486
v -0.744686 0.246947 0.897486
v -0.772685 0.272634 0.897486
v -0.772569 0.685751 1.090347
v -0.744881 0.694611 1.116380
v -0.744951 0.752591 1.058475
v -0.772537 0.727685 1.044023
v -0.772540 0.712899 1.078798
v -0.745070 0.734895 1.098542
v -0.627452 0.727685 1.044023
v -0.655038 0.752591 1.058475
v -0.655109 0.694611 1.116380
v -0.627421 0.685751 1.090347
v -0.627449 0.712899 1.078798
v -0.654920 0.734895 1.098542
v -0.772537 0.272324 1.044023
v -0.744951 0.247419 1.058475
v -0.744881 0.305398 1.116380
v -0.772569 0.314258 1.090347
v -0.772540 0.287111 1.078798
v -0.745070 0.265115 1.098542
v -0.627421 0.314258 1.090347
v -0.655109 0.305398 1.116380
v -0.655038 0.247419 1.058475
v -0.627452 0.272324 1.044023
v -0.627449 0.287111 1.078798
v -0.654920 0.265115 1.098542
vt 0.153900 0.387076
vt 0.155376 0.385351
vt 0.156030 0.385668
vt 0.155376 0.387076
vt 0.158940 0.384637
vt 0.158940 0.385351
vt 0.158940 0.387076
vt 0.153900 0.387076
vt 0.155376 0.387076
vt 0.156030 0.385668
vt 0.155376 0.385351
vt 0.158940 0.384637
vt 0.158940 0.385351
vt 0.221100 0.387076
vt 0.219624 0.387076
vt 0.218970 0.385668
vt 0.219624 0.385351
vt 0.216060 0.387076
vt 0.216060 0.385351
vt 0.216060 0.384637
vt 0.221100 0.387076
vt 0.219624 0.385351
vt 0.218970 0.385668
vt 0.219624 0.387076
vt 0.216060 0.384637
vt 0.216060 0.385351
vt 0.153900 0.413611
vt 0.153900 0.413611
vt 0.153900 0.402202
vt 0.153900 0.402202
vt 0.155376 0.402202
vt 0.155376 0.413611
vt 0.158940 0.402202
vt 0.158940 0.413611
vt 0.219624 0.413611
vt 0.216060 0.413611
vt 0.216060 0.402202
vt 0.219624 0.402202
vt 0.219624 0.402202
vt 0.219624 0.413611
vt 0.221100 0.413611
vt 0.221100 0.402202
vt 0.221100 0.413611
vt 0.221100 0.402202
vt 0.155376 0.413611
vt 0.155376 0.402202
vt 0.153900 0.428737
vt 0.155376 0.428737
vt 0.156030 0.430146
vt 0.155376 0.430462
vt 0.158940 0.431177
vt 0.158940 0.430462
vt 0.158940 0.428737
vt 0.153900 0.428737
vt 0.155376 0.430462
vt 0.156030 0.430146
vt 0.155376 0.428737
vt 0.158940 0.431177
vt 0.158940 0.430462
vt 0.221100 0.428737
vt 0.219624 0.430462
vt 0.218970 0.430146
vt 0.219624 0.428737
vt 0.216060 0.428737
vt 0.216060 0.430462
vt 0.216060 0.431177
vt 0.221100 0.428737
vt 0.219624 0.428737
vt 0.218970 0.430146
vt 0.219624 0.430462
vt 0.216060 0.431177
vt 0.216060 0.430462
vt 0.216060 0.428737
vt 0.158940 0.428737
vt 0.158940 0.387076
vt 0.216060 0.387076
vt 0.158940 0.402202
vt 0.158940 0.413611
vt 0.216060 0.413611
vt 0.216060 0.402202
vt 0.291767 0.873353
vt 0.301984 0.873353
vt 0.301622 0.873684
vt 0.292129 0.873684
vt 0.292177 0.867106
vt 0.301574 0.867106
vt 0.301602 0.867131
vt 0.292149 0.867131
vt 0.289245 0.886531
vt 0.289245 0.906327
vt 0.289092 0.905076
vt 0.289092 0.887782
vt 0.301984 0.887829
vt 0.291767 0.887829
vt 0.292129 0.887498
vt 0.301622 0.887498
vt 0.304506 0.906327
vt 0.304659 0.905076
vt 0.304502 0.908562
vt 0.304503 0.907774
vt 0.289248 0.908562
vt 0.289248 0.907774
vt 0.304538 0.904815
vt 0.304518 0.908545
vt 0.301615 0.908946
vt 0.292136 0.908946
vt 0.292156 0.906799
vt 0.301594 0.906799
vt 0.304659 0.887782
vt 0.304506 0.886531
vt 0.304503 0.885084
vt 0.304502 0.884297
vt 0.301602 0.925728
vt 0.292149 0.925728
vt 0.292136 0.924785
vt 0.301615 0.924785
vt 0.289233 0.908545
vt 0.289213 0.904815
vt 0.304518 0.884313
vt 0.304538 0.888044
vt 0.301615 0.868074
vt 0.292136 0.868074
vt 0.301594 0.886059
vt 0.292156 0.886059
vt 0.292136 0.883912
vt 0.301615 0.883912
vt 0.289248 0.884297
vt 0.289248 0.885084
vt 0.301574 0.925753
vt 0.292177 0.925753
vt 0.291767 0.903667
vt 0.291767 0.889191
vt 0.301984 0.889191
vt 0.301984 0.903667
vt 0.292129 0.903337
vt 0.301622 0.889522
vt 0.289213 0.888044
vt 0.292129 0.889522
vt 0.301622 0.903337
vt 0.304503 0.923613
vt 0.304502 0.924401
vt 0.289248 0.924401
vt 0.289248 0.923613
vt 0.289248 0.869246
vt 0.289248 0.868458
vt 0.304502 0.868458
vt 0.304503 0.869246
vt 0.289233 0.924384
vt 0.304518 0.924384
vt 0.289233 0.868474
vt 0.304518 0.868474
vt 0.289233 0.884313
vn -0.9673 -0.1794 0.1794
vn -0.6965 -0.6965 0.1726
vn -0.5774 -0.5774 0.5774
vn -0.6965 -0.1726 0.6965
vn -0.1794 -0.9673 0.1794
vn -0.1726 -0.6965 0.6965
vn -0.1794 -0.1794 0.9673
vn -0.9689 -0.1725 -0.1774
vn -0.9228 -0.1546 -0.3530
vn -0.6651 -0.6651 -0.3397
vn -0.6974 -0.6974 -0.1649
vn -0.1725 -0.9689 -0.1774
vn -0.1546 -0.9228 -0.3530
vn 0.9673 -0.1794 0.1794
vn 0.6965 -0.1726 0.6965
vn 0.5774 -0.5774 0.5774
vn 0.6965 -0.6965 0.1726
vn 0.1794 -0.1794 0.9673
vn 0.1726 -0.6965 0.6965
vn 0.1794 -0.9673 0.1794
vn 0.9689 -0.1725 -0.1774
vn 0.6974 -0.6974 -0.1649
vn 0.6651 -0.6651 -0.3397
vn 0.9228 -0.1546 -0.3530
vn 0.1725 -0.9689 -0.1774
vn 0.1546 -0.9228 -0.3530
vn -0.9673 0.1794 0.1794
vn -0.9689 0.1725 -0.1774
vn -0.6965 0.1726 0.6965
vn -0.1794 0.1794 0.9673
vn 0.6965 0.1726 0.6965
vn 0.1794 0.1794 0.9673
vn 0.9228 0.1546 -0.3530
vn 0.9689 0.1725 -0.1774
vn 0.9673 0.1794 0.1794
vn -0.9228 0.1546 -0.3530
vn -0.5774 0.5774 0.5774
vn -0.6965 0.6965 0.1726
vn -0.1794 0.9673 0.1794
vn -0.1726 0.6965 0.6965
vn -0.6974 0.6974 -0.1649
vn -0.6651 0.6651 -0.3397
vn -0.1725 0.9689 -0.1774
vn -0.1546 0.9228 -0.3530
vn 0.6965 0.6965 0.1726
vn 0.5774 0.5774 0.5774
vn 0.1726 0.6965 0.6965
vn 0.1794 0.9673 0.1794
vn 0.6651 0.6651 -0.3397
vn 0.6974 0.6974 -0.1649
vn 0.1725 0.9689 -0.1774
vn 0.1546 0.9228 -0.3530
vn 0.0000 0.0000 -1.0000
vn -0.4571 0.8880 0.0497
vn 0.4571 0.8880 0.0497
vn 0.3669 0.9285 0.0567
vn -0.3669 0.9285 0.0567
vn -0.3603 -0.9328 0.0016
vn 0.3603 -0.9328 0.0016
vn 0.3654 -0.9088 0.2012
vn -0.3654 -0.9088 0.2012
vn -0.9012 -0.0844 0.4251
vn -0.9012 0.0844 0.4251
vn -0.9903 -0.0978 -0.0984
vn -0.9903 0.0978 -0.0984
vn 0.4571 -0.8880 0.0497
vn -0.4571 -0.8880 0.0497
vn -0.3669 -0.9285 0.0567
vn 0.3669 -0.9285 0.0567
vn 0.9012 0.0844 0.4251
vn 0.9903 -0.0978 -0.0984
vn 0.9010 0.4272 0.0749
vn 0.8968 0.3094 0.3161
vn -0.9010 0.4272 0.0749
vn -0.8968 0.3094 0.3161
vn 0.9221 -0.3868 0.0116
vn 0.9121 0.4100 -0.0022
vn 0.3712 0.6586 0.6545
vn -0.3712 0.6586 0.6545
vn -0.3620 0.1951 0.9115
vn 0.3620 0.1951 0.9115
vn 0.9903 0.0978 -0.0984
vn 0.9012 -0.0844 0.4251
vn 0.8968 -0.3094 0.3161
vn 0.9010 -0.4272 0.0749
vn 0.3654 0.9088 0.2012
vn -0.3654 0.9088 0.2012
vn -0.4553 0.0000 -0.8903
vn 0.4553 0.0000 -0.8903
vn -0.9121 0.4100 -0.0022
vn -0.9221 -0.3868 0.0116
vn 0.9121 -0.4100 -0.0022
vn 0.9221 0.3868 0.0116
vn 0.3712 -0.6586 0.6545
vn -0.3712 -0.6586 0.6545
vn 0.3620 -0.1951 0.9115
vn -0.3620 -0.1951 0.9115
vn -0.9010 -0.4272 0.0749
vn -0.8968 -0.3094 0.3161
vn 0.3603 0.9328 0.0016
vn -0.3603 0.9328 0.0016
vn -0.9221 0.3868 0.0116
vn -0.9121 -0.4100 -0.0022
usemtl tiny_treats_1
s 1
f 1/1/1 4/2/2 5/3/3 7/4/4
f 2/5/5 6/6/6 5/3/3 4/2/2
f 3/7/7 7/4/4 5/3/3 6/6/6
f 8/8/8 10/9/9 11/10/10 13/11/11
f 9/12/12 13/11/11 11/10/10 12/13/13
f 14/14/14 17/15/15 18/16/16 20/17/17
f 15/18/18 19/19/19 18/16/16 17/15/15
f 16/20/20 20/17/17 18/16/16 19/19/19
f 21/21/21 25/22/22 24/23/23 23/24/24
f 22/25/25 26/26/26 24/23/23 25/22/22
f 9/12/12 2/5/5 4/2/2 13/11/11
f 13/11/11 4/2/2 1/1/1 8/8/8
f 22/25/25 9/12/12 12/13/13 26/26/26
f 16/20/20 22/25/25 25/22/22 20/17/17
f 20/17/17 25/22/22 21/21/21 14/14/14
f 2/5/5 16/20/20 19/19/19 6/6/6
f 6/6/6 19/19/19 15/18/18 3/7/7
f 27/27/27 34/28/28 8/29/8 1/30/1
f 7/31/4 33/32/29 27/27/27 1/30/1
f 3/33/7 29/34/30 33/32/29 7/31/4
f 43/35/31 41/36/32 15/37/18 17/38/15
f 23/39/24 49/40/33 47/41/34 21/42/21
f 9/12/12 22/25/25 16/20/20 2/5/5
f 40/43/35 43/35/31 17/38/15 14/44/14
f 47/41/34 40/43/35 14/44/14 21/42/21
f 8/29/8 34/28/28 36/45/36 10/46/9
f 41/36/32 29/34/30 3/33/7 15/37/18
f 27/47/27 33/48/29 31/49/37 30/50/38
f 28/51/39 30/50/38 31/49/37 32/52/40
f 29/53/30 32/52/40 31/49/37 33/48/29
f 34/54/28 39/55/41 37/56/42 36/57/36
f 35/58/43 38/59/44 37/56/42 39/55/41
f 40/60/35 46/61/45 44/62/46 43/63/31
f 41/64/32 43/63/31 44/62/46 45/65/47
f 42/66/48 45/65/47 44/62/46 46/61/45
f 47/67/34 49/68/33 50/69/49 51/70/50
f 48/71/51 51/70/50 50/69/49 52/72/52
f 35/58/43 39/55/41 30/50/38 28/51/39
f 39/55/41 34/54/28 27/47/27 30/50/38
f 48/71/51 52/72/52 38/59/44 35/58/43
f 42/66/48 46/61/45 51/70/50 48/71/51
f 46/61/45 40/60/35 47/67/34 51/70/50
f 28/51/39 32/52/40 45/65/47 42/66/48
f 32/52/40 29/53/30 41/64/32 45/65/47
f 35/58/43 28/51/39 42/66/48 48/71/51
f 55/73/53 52/72/53 50/69/53 49/68/53
f 56/74/53 38/59/53 52/72/53 55/73/53
f 36/57/53 37/56/53 38/59/53 56/74/53
f 12/13/53 54/75/53 53/76/53 26/26/53
f 26/26/53 53/76/53 23/24/53 24/23/53
f 11/10/53 10/9/53 54/75/53 12/13/53
f 54/77/53 56/78/53 55/79/53 53/80/53
f 53/80/53 55/79/53 49/40/53 23/39/53
f 10/46/53 36/45/53 56/78/53 54/77/53
f 57/81/54 62/82/55 65/83/56 68/84/57
f 79/85/58 78/86/59 101/87/60 94/88/61
f 96/89/62 81/90/63 59/91/64 58/92/65
f 63/93/66 60/94/67 69/95/68 72/96/69
f 90/97/70 64/98/71 87/99/72 91/100/73
f 84/101/74 59/91/64 81/90/63 85/102/75
f 64/98/71 71/103/76 76/104/77 87/99/72
f 92/105/78 86/106/79 82/107/80 89/108/81
f 61/109/82 99/110/83 103/111/84 102/112/85
f 88/113/86 83/114/87 86/115/79 92/116/78
f 57/81/88 60/94/88 63/93/89 62/82/89
f 59/91/64 84/101/74 73/117/90 70/118/91
f 77/119/92 66/120/93 61/109/82 102/112/85
f 94/88/61 101/87/60 104/121/94 98/122/95
f 100/123/96 89/108/81 82/107/80 95/124/97
f 98/125/95 104/126/94 100/123/96 95/124/97
f 96/89/62 58/92/65 93/127/98 97/128/99
f 64/98/71 90/97/70 99/110/83 61/109/82
f 75/129/100 74/130/101 83/114/87 88/113/86
f 60/131/88 57/132/88 58/92/65 59/91/64
f 64/98/71 61/109/82 62/133/89 63/134/89
f 69/135/68 60/131/67 59/91/64 70/118/91
f 61/109/82 66/120/93 65/136/56 62/133/55
f 67/137/102 58/92/65 57/132/54 68/138/57
f 71/103/76 64/98/71 63/134/66 72/139/69
f 91/140/73 87/141/72 88/113/86 92/116/78
f 84/142/74 85/143/75 86/115/79 83/114/87
f 90/97/70 91/100/73 92/105/78 89/108/81
f 85/102/75 81/90/63 82/107/80 86/106/79
f 97/144/99 93/145/98 94/88/61 98/122/95
f 102/146/85 103/147/84 104/121/94 101/87/60
f 96/89/62 97/128/99 98/125/95 95/124/97
f 103/111/84 99/110/83 100/123/96 104/126/94
f 95/124/97 82/107/80 81/90/63 96/89/62
f 83/114/87 74/130/101 73/148/90 84/142/74
f 87/141/72 76/149/77 75/129/100 88/113/86
f 99/110/83 90/97/70 89/108/81 100/123/96
f 79/85/58 94/88/61 93/145/98 80/150/103
f 77/151/92 102/146/85 101/87/60 78/86/59
f 58/92/65 67/137/102 80/152/103 93/127/98
