# Blender v3.4.1 OBJ File: 'Tiny_Treats_Charming_Kitchen_ASSETS_EXPORT.blend'
# www.blender.org
mtllib papertowel_holder.mtl
o papertowel_holder
v -0.066667 0.093334 -0.027614
v -0.027614 0.093334 -0.066667
v 0.027614 0.093334 -0.066667
v 0.066667 0.093334 -0.027614
v 0.066667 0.093334 0.027614
v 0.027614 0.093334 0.066667
v -0.027614 0.093334 0.066667
v -0.066667 0.093334 0.027614
v -0.000000 0.799999 0.000000
v -0.066667 0.779999 -0.027614
v -0.027614 0.779999 -0.066667
v 0.027614 0.779999 -0.066667
v 0.066667 0.779999 -0.027614
v 0.066667 0.779999 0.027614
v 0.027614 0.779999 0.066667
v -0.027614 0.779999 0.066667
v -0.066667 0.779999 0.027614
v -0.046667 0.799999 -0.019330
v -0.019330 0.799999 -0.046667
v 0.019330 0.799999 -0.046667
v 0.046667 0.799999 -0.019330
v 0.046667 0.799999 0.019330
v 0.019330 0.799999 0.046667
v -0.019330 0.799999 0.046667
v -0.046667 0.799999 0.019330
v -0.200000 0.000001 -0.082843
v -0.082843 0.000001 -0.200000
v 0.082843 0.000001 -0.200000
v 0.200000 0.000001 -0.082843
v 0.200000 0.000001 0.082843
v 0.082843 0.000001 0.200000
v -0.082842 0.000001 0.200000
v -0.200000 0.000001 0.082843
v -0.200000 0.066668 -0.082843
v -0.173333 0.093334 -0.071797
v -0.071797 0.093334 -0.173333
v -0.082843 0.066668 -0.200000
v 0.071797 0.093334 -0.173333
v 0.082843 0.066668 -0.200000
v 0.173333 0.093334 -0.071797
v 0.200000 0.066668 -0.082843
v 0.173333 0.093334 0.071797
v 0.200000 0.066668 0.082843
v 0.071797 0.093334 0.173333
v 0.082843 0.066668 0.200000
v -0.071797 0.093334 0.173333
v -0.082842 0.066668 0.200000
v -0.173333 0.093334 0.071797
v -0.200000 0.066668 0.082843
v 0.000000 0.699997 0.000003
v -0.114200 0.699997 0.114203
v -0.126888 0.682663 0.126892
v -0.126888 0.110665 0.126892
v -0.114200 0.093332 0.114203
v -0.046444 0.682663 0.173336
v -0.041800 0.699997 0.156003
v -0.041800 0.093332 0.156003
v -0.046444 0.110665 0.173336
v 0.046445 0.682663 0.173336
v 0.041800 0.699997 0.156003
v 0.041800 0.093332 0.156003
v 0.046444 0.110665 0.173336
v 0.126889 0.682663 0.126892
v 0.114200 0.699997 0.114203
v 0.114200 0.093332 0.114203
v 0.126888 0.110665 0.126892
v 0.173333 0.682663 0.046448
v 0.156000 0.699997 0.041803
v 0.156000 0.093332 0.041803
v 0.173333 0.110665 0.046448
v 0.173333 0.682663 -0.046441
v 0.156000 0.699997 -0.041796
v 0.156000 0.093332 -0.041797
v 0.173333 0.110665 -0.046441
v 0.126889 0.682663 -0.126885
v 0.114200 0.699997 -0.114196
v 0.114200 0.093332 -0.114196
v 0.126888 0.110665 -0.126885
v 0.046444 0.682663 -0.173329
v 0.041800 0.699997 -0.155996
v 0.041800 0.093332 -0.155996
v 0.046444 0.110665 -0.173330
v -0.046444 0.682664 -0.173329
v -0.041800 0.699997 -0.155996
v -0.041800 0.093332 -0.155996
v -0.046444 0.110665 -0.173330
v -0.126888 0.682664 -0.126885
v -0.114200 0.699997 -0.114196
v -0.114200 0.093332 -0.114196
v -0.126888 0.110665 -0.126885
v -0.173333 0.682663 -0.046441
v -0.156000 0.699997 -0.041796
v -0.156000 0.093332 -0.041797
v -0.173333 0.110665 -0.046441
v -0.173333 0.682663 0.046448
v -0.156000 0.699997 0.041803
v -0.156000 0.093332 0.041803
v -0.173333 0.110665 0.046448
v 0.116889 0.682663 0.250225
v 0.116889 0.110665 0.250225
v 0.163333 0.682663 0.169781
v 0.163333 0.110665 0.169781
v 0.036445 0.682663 0.253336
v 0.073972 0.682663 0.275003
v 0.073972 0.110665 0.275003
v 0.036444 0.110665 0.253336
v -0.000000 0.000001 0.000000
vt 0.964906 0.820823
vt 0.964906 0.879675
vt 0.971238 0.879675
vt 0.971238 0.820823
vt 0.975715 0.820823
vt 0.975715 0.879675
vt 0.971238 0.879675
vt 0.971238 0.820823
vt 0.964906 0.879675
vt 0.964906 0.820823
vt 0.960429 0.879675
vt 0.960429 0.820823
vt 0.960429 0.879675
vt 0.960429 0.820823
vt 0.975715 0.879675
vt 0.975715 0.820823
vt 0.975715 0.910925
vt 0.971238 0.910925
vt 0.970289 0.913218
vt 0.973423 0.913218
vt 0.975715 0.910925
vt 0.973423 0.913218
vt 0.971238 0.910925
vt 0.970289 0.913218
vt 0.964906 0.910925
vt 0.965856 0.913218
vt 0.960429 0.910925
vt 0.962723 0.913218
vt 0.960429 0.910925
vt 0.962723 0.913218
vt 0.964906 0.910925
vt 0.965856 0.913218
vt 0.968073 0.913218
vt 0.964906 0.820823
vt 0.971238 0.820823
vt 0.971238 0.820823
vt 0.964906 0.820823
vt 0.975715 0.820823
vt 0.971238 0.820823
vt 0.960429 0.820823
vt 0.960429 0.820823
vt 0.964906 0.820823
vt 0.960429 0.820823
vt 0.960429 0.820823
vt 0.964906 0.820823
vt 0.975715 0.820823
vt 0.971238 0.820823
vt 0.971238 0.820823
vt 0.975715 0.820823
vt 0.975715 0.820823
vt 0.975715 0.820823
vt 0.960429 0.820823
vt 0.960429 0.820823
vt 0.964906 0.820823
vt 0.971238 0.820823
vt 0.975715 0.820823
vt 0.964906 0.820823
vt 0.434667 0.900532
vt 0.434667 0.846669
vt 0.427091 0.846669
vt 0.427091 0.900532
vt 0.424350 0.933414
vt 0.424350 0.933414
vt 0.439040 0.933414
vt 0.428286 0.933414
vt 0.435104 0.933414
vt 0.442977 0.933414
vt 0.449794 0.933414
vt 0.453730 0.933414
vt 0.453730 0.933414
vt 0.449794 0.933414
vt 0.442977 0.933414
vt 0.435104 0.933414
vt 0.428286 0.933414
vt 0.422718 0.900532
vt 0.422718 0.846669
vt 0.422718 0.846669
vt 0.422718 0.900532
vt 0.443414 0.900532
vt 0.443414 0.846669
vt 0.450989 0.900532
vt 0.450989 0.846669
vt 0.455362 0.900532
vt 0.455362 0.846669
vt 0.455362 0.900532
vt 0.455362 0.846669
vt 0.450989 0.900532
vt 0.450989 0.846669
vt 0.443414 0.900532
vt 0.443414 0.846669
vt 0.434667 0.900532
vt 0.434667 0.846669
vt 0.410477 0.815419
vt 0.410770 0.815419
vt 0.408436 0.815419
vt 0.427091 0.931782
vt 0.422718 0.931782
vt 0.422718 0.815419
vt 0.427091 0.815419
vt 0.428286 0.813787
vt 0.424350 0.813787
vt 0.422718 0.931782
vt 0.422718 0.815419
vt 0.424350 0.813787
vt 0.427091 0.931782
vt 0.427091 0.815419
vt 0.428286 0.813787
vt 0.434667 0.931782
vt 0.434667 0.815419
vt 0.435104 0.813787
vt 0.443414 0.931782
vt 0.443414 0.815419
vt 0.442977 0.813787
vt 0.450989 0.931782
vt 0.450989 0.815419
vt 0.449794 0.813787
vt 0.455362 0.931782
vt 0.455362 0.815419
vt 0.453730 0.813787
vt 0.455362 0.931782
vt 0.455362 0.815419
vt 0.453730 0.813787
vt 0.450989 0.931782
vt 0.450989 0.815419
vt 0.449794 0.813787
vt 0.443414 0.931782
vt 0.443414 0.815419
vt 0.442977 0.813787
vt 0.434667 0.931782
vt 0.434667 0.815419
vt 0.435104 0.813787
vt 0.410770 0.900532
vt 0.410770 0.846669
vt 0.418345 0.846669
vt 0.418345 0.900532
vt 0.410477 0.846669
vt 0.410477 0.900532
vt 0.410770 0.931782
vt 0.410477 0.931782
vt 0.408436 0.931782
vt 0.418345 0.815419
vt 0.418345 0.931782
vt 0.408436 0.846669
vt 0.408436 0.900532
vt 0.970440 0.820823
vt 0.973789 0.820823
vt 0.965704 0.820823
vt 0.962356 0.820823
vn -0.9239 0.0000 0.3827
vn -0.8587 0.3689 0.3557
vn -0.8587 0.3689 -0.3557
vn -0.9239 0.0000 -0.3827
vn 0.3827 0.0000 -0.9239
vn 0.3557 0.3689 -0.8587
vn 0.8587 0.3689 -0.3557
vn 0.9239 0.0000 -0.3827
vn 0.8587 0.3689 0.3557
vn 0.9239 0.0000 0.3827
vn 0.3557 0.3689 0.8587
vn 0.3827 0.0000 0.9239
vn -0.3557 0.3689 0.8587
vn -0.3827 0.0000 0.9239
vn -0.3557 0.3689 -0.8587
vn -0.3827 0.0000 -0.9239
vn -0.4044 0.8991 -0.1675
vn -0.1675 0.8991 -0.4044
vn 0.1675 0.8991 -0.4044
vn 0.4044 0.8991 -0.1675
vn 0.4044 0.8991 0.1675
vn 0.1675 0.8991 0.4044
vn -0.1675 0.8991 0.4044
vn -0.4044 0.8991 0.1675
vn 0.0000 1.0000 0.0000
vn -0.8977 0.3692 0.2405
vn -0.8977 -0.3692 0.2405
vn -0.6571 -0.3692 0.6571
vn -0.6571 0.3692 0.6571
vn -0.1102 0.9049 0.4112
vn 0.1102 0.9049 0.4112
vn 0.3010 0.9049 0.3010
vn 0.4112 0.9049 0.1102
vn 0.4112 0.9049 -0.1102
vn 0.3010 0.9049 -0.3010
vn 0.1102 0.9049 -0.4112
vn -0.1102 0.9049 -0.4112
vn -0.3010 0.9049 -0.3010
vn -0.4112 0.9049 -0.1102
vn -0.4112 0.9049 0.1102
vn -0.3010 0.9049 0.3010
vn -0.2405 0.3692 0.8977
vn -0.2405 -0.3692 0.8977
vn 0.0905 -0.7726 0.6284
vn 0.0905 0.7726 0.6284
vn -0.8977 0.3692 -0.2405
vn -0.8977 -0.3692 -0.2405
vn -0.6571 0.3692 -0.6571
vn -0.6571 -0.3692 -0.6571
vn -0.2405 0.3692 -0.8977
vn -0.2405 -0.3692 -0.8977
vn 0.2405 0.3692 -0.8977
vn 0.2405 -0.3692 -0.8977
vn 0.6571 0.3692 -0.6571
vn 0.6571 -0.3692 -0.6571
vn 0.8977 0.3692 -0.2405
vn 0.8977 -0.3692 -0.2405
vn 0.8947 0.4326 0.1111
vn 0.8947 -0.4326 0.1111
vn -0.0000 -1.0000 -0.0000
vn -0.4913 -0.7193 0.4913
vn -0.1798 -0.7193 0.6711
vn 0.1798 -0.7193 0.6711
vn 0.2253 0.9479 0.2253
vn 0.2253 -0.9479 0.2253
vn 0.4913 -0.7193 0.4913
vn 0.6711 -0.7193 0.1798
vn 0.6711 -0.7193 -0.1798
vn 0.4913 -0.7193 -0.4913
vn 0.1798 -0.7193 -0.6711
vn -0.1798 -0.7193 -0.6711
vn -0.4913 -0.7193 -0.4913
vn -0.6711 -0.7193 -0.1798
vn -0.6711 -0.7193 0.1798
vn 0.7071 -0.0000 0.7071
vn 0.9547 -0.0000 0.2977
vn -0.9923 0.0000 -0.1240
vn -0.5000 -0.0000 0.8660
vn 0.5000 -0.0000 0.8660
usemtl tiny_treats_1
s 1
f 8/1/1 17/2/2 10/3/3 1/4/4
f 3/5/5 12/6/6 13/7/7 4/8/8
f 4/8/8 13/7/7 14/9/9 5/10/10
f 5/10/10 14/9/9 15/11/11 6/12/12
f 6/12/12 15/11/11 16/13/13 7/14/14
f 7/14/14 16/13/13 17/2/2 8/1/1
f 1/4/4 10/3/3 11/15/15 2/16/16
f 2/16/16 11/15/15 12/6/6 3/5/5
f 11/17/15 10/18/3 18/19/17 19/20/18
f 12/21/6 11/17/15 19/20/18 20/22/19
f 13/23/7 12/21/6 20/22/19 21/24/20
f 14/25/9 13/23/7 21/24/20 22/26/21
f 15/27/11 14/25/9 22/26/21 23/28/22
f 16/29/13 15/27/11 23/28/22 24/30/23
f 17/31/2 16/29/13 24/30/23 25/32/24
f 10/18/3 17/31/2 25/32/24 18/19/17
f 9/33/25 19/20/18 18/19/17
f 9/33/25 20/22/19 19/20/18
f 9/33/25 21/24/20 20/22/19
f 9/33/25 22/26/21 21/24/20
f 9/33/25 23/28/22 22/26/21
f 9/33/25 24/30/23 23/28/22
f 9/33/25 25/32/24 24/30/23
f 9/33/25 18/19/17 25/32/24
f 49/34/2 34/35/3 26/36/4 33/37/1
f 1/4/25 2/16/25 36/38/18 35/39/17
f 47/40/13 49/34/2 33/37/1 32/41/14
f 43/42/9 45/43/11 31/44/12 30/45/10
f 39/46/6 41/47/7 29/48/8 28/49/5
f 45/43/11 47/40/13 32/41/14 31/44/12
f 41/47/7 43/42/9 30/45/10 29/48/8
f 37/50/15 39/46/6 28/49/5 27/51/16
f 6/12/25 7/14/25 46/52/23 44/53/22
f 4/8/25 5/10/25 42/54/21 40/55/20
f 2/16/25 3/5/25 38/56/19 36/38/18
f 7/14/25 8/1/25 48/57/24 46/52/23
f 5/10/25 6/12/25 44/53/22 42/54/21
f 3/5/25 4/8/25 40/55/20 38/56/19
f 8/1/25 1/4/25 35/39/17 48/57/24
f 35/39/17 36/38/18 37/50/15 34/35/3
f 36/38/18 38/56/19 39/46/6 37/50/15
f 38/56/19 40/55/20 41/47/7 39/46/6
f 40/55/20 42/54/21 43/42/9 41/47/7
f 42/54/21 44/53/22 45/43/11 43/42/9
f 44/53/22 46/52/23 47/40/13 45/43/11
f 46/52/23 48/57/24 49/34/2 47/40/13
f 48/57/24 35/39/17 34/35/3 49/34/2
f 34/35/3 37/50/15 27/51/16 26/36/4
f 95/58/26 98/59/27 53/60/28 52/61/29
f 56/62/30 60/63/31 50/64/25
f 60/63/31 64/65/32 50/64/25
f 64/65/32 68/66/33 50/64/25
f 68/66/33 72/67/34 50/64/25
f 72/67/34 76/68/35 50/64/25
f 76/68/35 80/69/36 50/64/25
f 80/69/36 84/70/37 50/64/25
f 84/70/37 88/71/38 50/64/25
f 88/71/38 92/72/39 50/64/25
f 92/72/39 96/73/40 50/64/25
f 96/73/40 51/74/41 50/64/25
f 55/75/42 58/76/43 62/77/44 59/78/45
f 91/79/46 94/80/47 98/59/27 95/58/26
f 87/81/48 90/82/49 94/80/47 91/79/46
f 83/83/50 86/84/51 90/82/49 87/81/48
f 79/85/52 82/86/53 86/84/51 83/83/50
f 75/87/54 78/88/55 82/86/53 79/85/52
f 71/89/56 74/90/57 78/88/55 75/87/54
f 67/91/58 70/92/59 74/90/57 71/89/56
f 106/93/60 100/94/60 105/95/60
f 52/61/29 53/60/28 58/76/43 55/75/42
f 52/96/29 55/97/42 56/62/30 51/74/41
f 58/98/43 53/99/28 54/100/61 57/101/62
f 55/97/42 59/102/45 60/63/31 56/62/30
f 62/103/44 58/98/43 57/101/62 61/104/63
f 59/102/45 63/105/64 64/65/32 60/63/31
f 66/106/65 62/103/44 61/104/63 65/107/66
f 63/105/64 67/108/58 68/66/33 64/65/32
f 70/109/59 66/106/65 65/107/66 69/110/67
f 67/108/58 71/111/56 72/67/34 68/66/33
f 74/112/57 70/109/59 69/110/67 73/113/68
f 71/111/56 75/114/54 76/68/35 72/67/34
f 78/115/55 74/112/57 73/113/68 77/116/69
f 75/114/54 79/117/52 80/69/36 76/68/35
f 82/118/53 78/115/55 77/116/69 81/119/70
f 79/117/52 83/120/50 84/70/37 80/69/36
f 86/121/51 82/118/53 81/119/70 85/122/71
f 83/120/50 87/123/48 88/71/38 84/70/37
f 90/124/49 86/121/51 85/122/71 89/125/72
f 87/123/48 91/126/46 92/72/39 88/71/38
f 94/127/47 90/124/49 89/125/72 93/128/73
f 91/126/46 95/129/26 96/73/40 92/72/39
f 98/130/27 94/127/47 93/128/73 97/131/74
f 95/129/26 52/96/29 51/74/41 96/73/40
f 53/99/28 98/130/27 97/131/74 54/100/61
f 51/74/41 56/62/30 50/64/25
f 99/132/75 100/133/75 102/134/76 101/135/76
f 59/78/77 62/77/77 106/136/77 103/137/77
f 70/92/59 67/91/58 101/135/76 102/134/76
f 99/138/25 103/139/25 104/140/25
f 66/106/65 70/109/59 102/141/60 100/94/60
f 67/108/58 63/105/64 99/138/25 101/142/25
f 105/143/78 104/144/78 103/137/78 106/136/78
f 104/144/79 105/143/79 100/133/75 99/132/75
f 63/105/64 59/102/45 103/139/25 99/138/25
f 62/103/44 66/106/65 100/94/60 106/93/60
f 26/36/60 27/51/60 107/145/60
f 27/51/60 28/49/60 107/146/60
f 28/49/60 29/48/60 107/146/60
f 29/48/60 30/45/60 107/145/60
f 30/45/60 31/44/60 107/147/60
f 31/44/60 32/41/60 107/148/60
f 32/41/60 33/37/60 107/148/60
f 33/37/60 26/36/60 107/147/60
