# Blender v3.4.1 OBJ File: 'Tiny_Treats_Charming_Kitchen_ASSETS_EXPORT.blend'
# www.blender.org
mtllib spatula.mtl
o spatula
v -0.022251 0.364661 -0.025189
v -0.105772 0.409918 -0.025189
v -0.081305 0.374043 -0.025189
v -0.098087 0.389206 -0.025189
v 0.107223 0.409745 -0.025189
v 0.022251 0.364661 -0.025189
v 0.098813 0.389119 -0.025189
v 0.081499 0.374020 -0.025189
v -0.100699 0.676738 -0.025189
v -0.135787 0.642069 -0.025189
v -0.119785 0.671066 -0.025189
v -0.132628 0.660938 -0.025189
v 0.100699 0.676249 -0.025189
v 0.134337 0.635242 -0.025189
v 0.119591 0.663844 -0.025189
v 0.131903 0.643711 -0.025189
v -0.022251 -0.118863 -0.025189
v 0.022251 -0.118863 -0.025189
v -0.034774 0.409860 -0.025189
v 0.036225 0.409803 -0.025189
v -0.045746 0.644460 -0.025189
v 0.044295 0.639851 -0.025189
v 0.066274 0.629746 -0.025189
v 0.058455 0.624464 -0.025189
v 0.052228 0.432983 -0.025189
v 0.059964 0.424964 -0.025189
v 0.081764 0.424946 -0.025189
v 0.090783 0.432894 -0.025189
v 0.110737 0.619326 -0.025189
v 0.104201 0.630010 -0.025189
v -0.102143 0.636108 -0.025189
v -0.108794 0.631077 -0.025189
v -0.084570 0.433057 -0.025189
v -0.075748 0.425074 -0.025189
v -0.058620 0.425061 -0.025189
v -0.050938 0.433064 -0.025189
v -0.060154 0.625643 -0.025189
v -0.067945 0.636599 -0.025189
v -0.022096 0.633749 -0.025189
v -0.029299 0.628469 -0.025189
v -0.020548 0.433039 -0.025189
v -0.012197 0.425023 -0.025189
v 0.013550 0.425002 -0.025189
v 0.021848 0.433007 -0.025189
v 0.028455 0.621328 -0.025189
v 0.021199 0.632070 -0.025189
v -0.022251 0.364661 0.025189
v -0.105772 0.409918 0.025189
v -0.081305 0.374043 0.025189
v -0.098087 0.389206 0.025189
v 0.107223 0.409745 0.025189
v 0.022251 0.364661 0.025189
v 0.098813 0.389119 0.025189
v 0.081499 0.374020 0.025189
v -0.100699 0.676738 0.025189
v -0.135787 0.642069 0.025189
v -0.119785 0.671066 0.025189
v -0.132628 0.660938 0.025189
v 0.100699 0.676249 0.025189
v 0.134337 0.635242 0.025189
v 0.119591 0.663844 0.025189
v 0.131903 0.643711 0.025189
v -0.022251 -0.118863 0.025189
v 0.022251 -0.118863 0.025189
v -0.034774 0.409860 0.025189
v 0.036225 0.409803 0.025189
v -0.045746 0.644460 0.025189
v 0.044295 0.639851 0.025189
v 0.066274 0.629746 0.025189
v 0.058455 0.624464 0.025189
v 0.052228 0.432983 0.025189
v 0.059964 0.424964 0.025189
v 0.081764 0.424946 0.025189
v 0.090783 0.432894 0.025189
v 0.110737 0.619326 0.025189
v 0.104201 0.630010 0.025189
v -0.102143 0.636108 0.025189
v -0.108794 0.631077 0.025189
v -0.084570 0.433057 0.025189
v -0.075748 0.425074 0.025189
v -0.058620 0.425061 0.025189
v -0.050938 0.433064 0.025189
v -0.060154 0.625643 0.025189
v -0.067945 0.636599 0.025189
v -0.022096 0.633749 0.025189
v -0.029299 0.628469 0.025189
v -0.020548 0.433039 0.025189
v -0.012197 0.425023 0.025189
v 0.013550 0.425002 0.025189
v 0.021848 0.433007 0.025189
v 0.028455 0.621328 0.025189
v 0.021199 0.632070 0.025189
v -0.141551 0.666188 0.000000
v -0.122361 0.681145 0.000000
v -0.146134 0.642417 0.000000
v -0.106665 0.383410 -0.000000
v -0.115868 0.407627 -0.000000
v 0.028775 -0.117754 -0.000000
v -0.028775 -0.117754 -0.000000
v -0.085816 0.364725 -0.000000
v 0.030137 0.357955 -0.000000
v -0.030140 0.357958 -0.000000
v 0.085924 0.364661 -0.000000
v 0.107244 0.383112 -0.000000
v 0.117218 0.407048 0.000000
v 0.144694 0.634835 0.000000
v 0.141786 0.646829 0.000000
v 0.127022 0.671051 0.000000
v 0.105750 0.685342 0.000000
v -0.097560 0.686829 0.000000
v 0.014840 -0.132863 -0.012448
v 0.018001 -0.129926 -0.000000
v 0.014840 -0.132863 0.012448
v -0.014840 -0.132863 0.012448
v -0.018001 -0.129926 -0.000000
v -0.014840 -0.132863 -0.012448
v 0.000000 -0.136504 -0.000000
v -0.030389 -0.000271 0.034401
v -0.039545 0.000813 -0.000000
v 0.030389 -0.000271 0.034401
v -0.030389 -0.000271 -0.034401
v 0.039544 0.000813 -0.000000
v 0.030389 -0.000271 -0.034401
v 0.022251 0.129995 -0.025189
v 0.029373 0.118430 -0.033251
v 0.038401 0.119162 -0.000000
v 0.029109 0.130550 -0.000000
v -0.029373 0.118430 -0.033251
v -0.022251 0.129995 -0.025189
v -0.038402 0.119162 -0.000000
v -0.029110 0.130550 -0.000000
v 0.022251 0.129995 0.025189
v 0.029373 0.118430 0.033251
v -0.029373 0.118430 0.033251
v -0.022251 0.129995 0.025189
v 0.000000 0.364661 -0.033239
v 0.000000 -0.118863 -0.033239
v 0.000000 0.364661 0.033239
v 0.000000 -0.118863 0.033239
v 0.000000 -0.132863 -0.016426
v 0.000000 -0.132863 0.016426
v 0.000000 -0.000271 -0.045395
v 0.000000 -0.000271 0.045395
v 0.000000 0.118430 -0.043877
v 0.000000 0.129995 -0.033239
v 0.000000 0.118430 0.043877
v 0.000000 0.129995 0.033239
vt 0.315979 0.883920
vt 0.314739 0.880878
vt 0.312185 0.878651
vt 0.303447 0.877271
vt 0.319978 0.917178
vt 0.315017 0.923225
vt 0.317803 0.921396
vt 0.319619 0.918426
vt 0.280604 0.920967
vt 0.282498 0.922461
vt 0.285314 0.923297
vt 0.280138 0.918184
vt 0.306698 0.917857
vt 0.284565 0.883945
vt 0.296883 0.877271
vt 0.288174 0.878654
vt 0.285699 0.880891
vt 0.295036 0.883937
vt 0.293418 0.918537
vt 0.300165 0.877271
vt 0.305508 0.883928
vt 0.315533 0.916405
vt 0.309940 0.916367
vt 0.313555 0.887334
vt 0.316497 0.914830
vt 0.284119 0.916563
vt 0.287692 0.887358
vt 0.309009 0.886164
vt 0.312224 0.886162
vt 0.290144 0.917378
vt 0.285101 0.917305
vt 0.292653 0.887359
vt 0.291293 0.915762
vt 0.295844 0.916178
vt 0.297135 0.887355
vt 0.288993 0.886181
vt 0.291520 0.886179
vt 0.303292 0.916710
vt 0.296906 0.916957
vt 0.303388 0.887351
vt 0.304362 0.915125
vt 0.308786 0.915587
vt 0.307868 0.887347
vt 0.298366 0.886173
vt 0.302163 0.886170
vt 0.315979 0.883920
vt 0.303447 0.877271
vt 0.312185 0.878651
vt 0.314739 0.880878
vt 0.319978 0.917178
vt 0.319619 0.918426
vt 0.317803 0.921396
vt 0.315017 0.923225
vt 0.280604 0.920967
vt 0.280138 0.918184
vt 0.285314 0.923297
vt 0.282498 0.922461
vt 0.306698 0.917857
vt 0.284565 0.883945
vt 0.285699 0.880891
vt 0.288174 0.878654
vt 0.296883 0.877271
vt 0.295036 0.883937
vt 0.293418 0.918537
vt 0.300165 0.877271
vt 0.305508 0.883928
vt 0.309940 0.916367
vt 0.315533 0.916405
vt 0.316497 0.914830
vt 0.313555 0.887334
vt 0.287692 0.887358
vt 0.284119 0.916563
vt 0.312224 0.886162
vt 0.309009 0.886164
vt 0.285101 0.917305
vt 0.290144 0.917378
vt 0.291293 0.915762
vt 0.292653 0.887359
vt 0.297135 0.887355
vt 0.295844 0.916178
vt 0.291520 0.886179
vt 0.288993 0.886181
vt 0.296906 0.916957
vt 0.303292 0.916710
vt 0.304362 0.915125
vt 0.303388 0.887351
vt 0.308786 0.915587
vt 0.307868 0.887347
vt 0.298366 0.886173
vt 0.302163 0.886170
vt 0.282119 0.923947
vt 0.279288 0.921741
vt 0.313555 0.856084
vt 0.312224 0.854912
vt 0.312224 0.854912
vt 0.313555 0.856084
vt 0.304362 0.883875
vt 0.303388 0.856101
vt 0.303388 0.856101
vt 0.304362 0.883875
vt 0.278612 0.918236
vt 0.315533 0.885155
vt 0.316497 0.883580
vt 0.316497 0.883580
vt 0.315533 0.885155
vt 0.287692 0.856108
vt 0.284119 0.885313
vt 0.284119 0.885313
vt 0.287692 0.856108
vt 0.283076 0.883607
vt 0.284434 0.880036
vt 0.302163 0.854920
vt 0.302163 0.854920
vt 0.287509 0.877280
vt 0.303292 0.885460
vt 0.303292 0.885460
vt 0.175165 0.823449
vt 0.175165 0.805958
vt 0.178447 0.805958
vt 0.179647 0.823449
vt 0.285101 0.886055
vt 0.285101 0.886055
vt 0.290144 0.886128
vt 0.290144 0.886128
vt 0.295720 0.876282
vt 0.291520 0.854929
vt 0.288993 0.854931
vt 0.288993 0.854931
vt 0.291520 0.854929
vt 0.304610 0.876282
vt 0.312838 0.877270
vt 0.291293 0.884512
vt 0.292653 0.856109
vt 0.292653 0.856109
vt 0.291293 0.884512
vt 0.315982 0.879992
vt 0.317453 0.883522
vt 0.321505 0.917117
vt 0.307868 0.856097
vt 0.308786 0.884337
vt 0.308786 0.884337
vt 0.307868 0.856097
vt 0.321076 0.918886
vt 0.297135 0.856105
vt 0.295844 0.884928
vt 0.295844 0.884928
vt 0.297135 0.856105
vt 0.318899 0.922459
vt 0.309940 0.885117
vt 0.309940 0.885117
vt 0.315762 0.924567
vt 0.309009 0.854914
vt 0.309009 0.854914
vt 0.296906 0.885707
vt 0.296906 0.885707
vt 0.285777 0.924786
vt 0.298366 0.854923
vt 0.298366 0.854923
vt 0.178447 0.805958
vt 0.179409 0.806121
vt 0.177820 0.804326
vt 0.177354 0.803893
vt 0.177354 0.803893
vt 0.171883 0.805958
vt 0.172976 0.803893
vt 0.175165 0.803893
vt 0.170921 0.806121
vt 0.172510 0.804326
vt 0.171883 0.805958
vt 0.172976 0.803893
vt 0.175165 0.805958
vt 0.175165 0.803893
vt 0.175165 0.803356
vt 0.304458 0.842743
vt 0.303447 0.842661
vt 0.303447 0.842661
vt 0.175165 0.823449
vt 0.170683 0.823449
vt 0.296883 0.842661
vt 0.295872 0.842743
vt 0.296883 0.842661
vt 0.180997 0.823608
vt 0.179647 0.823449
vt 0.179497 0.840955
vt 0.180829 0.841063
vt 0.169333 0.823608
vt 0.170683 0.823449
vt 0.169502 0.841063
vt 0.170833 0.840955
vt 0.179497 0.872205
vt 0.180829 0.872313
vt 0.179458 0.873993
vt 0.178447 0.873911
vt 0.175165 0.872205
vt 0.170833 0.872205
vt 0.171883 0.873911
vt 0.175165 0.873911
vt 0.169502 0.872313
vt 0.170872 0.873993
vt 0.178447 0.873911
vt 0.179497 0.872205
vt 0.170833 0.872205
vt 0.171883 0.873911
vt 0.175165 0.872205
vt 0.175165 0.873911
vt 0.170833 0.840955
vt 0.179497 0.840955
vt 0.175165 0.840955
vt 0.175165 0.840955
vt 0.300165 0.842661
vt 0.300165 0.842661
vn 0.0000 0.0000 -1.0000
vn 0.4593 -0.0372 -0.8875
vn -0.4577 -0.0329 -0.8885
vn -0.0220 0.0197 -0.9996
vn -0.0011 0.0089 -1.0000
vn 0.0216 0.0186 -0.9996
vn 0.0000 -0.0000 1.0000
vn 0.4593 -0.0372 0.8875
vn -0.4577 -0.0329 0.8885
vn -0.0220 0.0197 0.9996
vn -0.0011 0.0089 1.0000
vn 0.0216 0.0186 0.9996
vn -0.4339 0.9009 0.0000
vn -0.8565 0.5161 0.0000
vn -0.7901 0.4782 0.3836
vn -0.4216 0.8306 0.3639
vn -0.8881 0.4596 0.0000
vn -0.3530 0.9356 0.0000
vn -0.9612 -0.2759 0.0000
vn -0.9134 0.4070 0.0000
vn -0.9997 0.0260 0.0000
vn -0.9261 0.0235 0.3767
vn -0.4859 -0.8740 0.0000
vn -0.9756 -0.2194 0.0000
vn 0.8877 0.4605 0.0000
vn 0.9208 -0.3901 0.0000
vn -0.9705 -0.2410 -0.0000
vn -0.8260 -0.5636 -0.0000
vn -0.7635 -0.5215 0.3808
vn -0.8983 -0.2242 0.3779
vn -0.3740 0.9274 0.0000
vn -0.4221 -0.9066 -0.0000
vn -0.3913 -0.8455 0.3632
vn -0.4862 -0.8739 0.0000
vn 0.0000 -0.0441 0.9990
vn -0.0000 -0.4294 0.9031
vn 0.6666 -0.4157 0.6187
vn 0.7358 -0.0451 0.6757
vn 0.3250 -0.9457 0.0000
vn -0.4521 -0.8920 0.0000
vn -0.1394 -0.9902 -0.0000
vn -0.1316 -0.9349 0.3297
vn -0.3917 0.9201 0.0000
vn 0.3599 0.9330 0.0000
vn 0.1383 -0.9904 0.0000
vn 0.4137 -0.9104 0.0000
vn 0.3836 -0.8492 0.3629
vn 0.1306 -0.9349 0.3301
vn -0.9451 -0.3269 0.0000
vn -0.9364 0.3509 0.0000
vn 0.8119 -0.5837 0.0000
vn 0.7505 -0.5401 0.3808
vn 0.9674 -0.2531 -0.0000
vn 0.8952 -0.2337 0.3794
vn 0.9980 0.0633 -0.0000
vn 0.9220 0.0675 0.3814
vn 0.9332 0.3593 0.0000
vn 0.8754 -0.4834 0.0000
vn 0.9216 0.3881 0.0000
vn 0.8516 0.3655 0.3758
vn 0.9109 0.4126 0.0000
vn 0.9019 -0.4320 0.0000
vn 0.7205 0.6934 0.0000
vn 0.6662 0.6406 0.3819
vn 0.2960 -0.9552 0.0000
vn 0.3050 0.9523 -0.0000
vn 0.2560 0.8889 0.3799
vn 0.3913 0.9202 0.0000
vn 0.2925 -0.9563 0.0000
vn -0.1108 0.9938 0.0000
vn -0.1277 0.9240 0.3606
vn 0.3736 0.9276 0.0000
vn -0.1277 0.9240 -0.3606
vn -0.4216 0.8306 -0.3639
vn 0.2560 0.8889 -0.3799
vn 0.6662 0.6406 -0.3818
vn 0.8516 0.3655 -0.3758
vn -0.9261 0.0235 -0.3767
vn -0.8983 -0.2242 -0.3779
vn 0.9220 0.0675 -0.3814
vn 0.8952 -0.2337 -0.3794
vn 0.7505 -0.5401 -0.3808
vn 0.3836 -0.8492 -0.3629
vn 0.1306 -0.9349 -0.3301
vn -0.3913 -0.8455 -0.3632
vn -0.1316 -0.9349 -0.3297
vn -0.7635 -0.5215 -0.3808
vn -0.7901 0.4782 -0.3836
vn 0.6666 -0.4157 -0.6187
vn 0.9382 -0.3460 -0.0000
vn 0.6344 -0.7730 -0.0000
vn 0.4414 -0.8545 -0.2738
vn 0.4414 -0.8545 0.2738
vn -0.6666 -0.4157 0.6187
vn -0.4414 -0.8545 0.2738
vn -0.0000 -0.8756 0.4830
vn -0.9382 -0.3460 0.0000
vn -0.6344 -0.7730 0.0000
vn -0.6666 -0.4157 -0.6187
vn -0.4414 -0.8545 -0.2738
vn -0.0000 -0.4294 -0.9031
vn 0.0000 -0.8756 -0.4830
vn 0.0000 -1.0000 0.0000
vn 1.0000 -0.0022 0.0000
vn 0.9366 0.3505 0.0000
vn 0.6738 0.4074 -0.6165
vn 0.6738 0.4074 0.6165
vn 0.0000 -0.0441 -0.9990
vn -0.7358 -0.0451 -0.6757
vn -0.6738 0.4074 -0.6165
vn -0.9366 0.3505 0.0000
vn -1.0000 -0.0022 -0.0000
vn -0.6738 0.4074 0.6165
vn 0.9993 -0.0383 0.0000
vn 0.7358 -0.0451 -0.6757
vn 0.6875 0.3371 -0.6432
vn 0.9447 0.3279 0.0000
vn -0.9993 -0.0383 0.0000
vn -0.7358 -0.0451 0.6757
vn -0.9447 0.3279 0.0000
vn -0.6875 0.3370 0.6432
vn 0.6875 0.3371 0.6432
vn 0.0000 0.3451 -0.9386
vn -0.6875 0.3370 -0.6432
vn -0.0000 0.3931 -0.9195
vn 0.0000 0.3451 0.9386
vn -0.0000 0.3931 0.9195
usemtl tiny_treats_1
s 1
f 5/1/1 7/2/1 8/3/1 6/4/2
f 14/5/1 13/6/1 15/7/1 16/8/1
f 12/9/1 11/10/1 9/11/1 10/12/1
f 13/6/1 14/5/1 22/13/1
f 2/14/1 1/15/3 3/16/1 4/17/1
f 1/15/3 2/14/1 19/18/4
f 21/19/1 9/11/1 13/6/1 22/13/1
f 10/12/1 9/11/1 21/19/1
f 136/20/5 1/15/3 19/18/4
f 5/1/1 6/4/2 20/21/6
f 14/5/1 30/22/1 23/23/1 22/13/1
f 5/1/1 28/24/1 29/25/1 14/5/1
f 10/12/1 32/26/1 33/27/1 2/14/1
f 20/21/6 26/28/1 27/29/1 5/1/1
f 21/19/1 38/30/1 31/31/1 10/12/1
f 19/18/4 36/32/1 37/33/1 21/19/1
f 21/19/1 40/34/1 41/35/1 19/18/4
f 2/14/1 34/36/1 35/37/1 19/18/4
f 22/13/1 46/38/1 39/39/1 21/19/1
f 20/21/6 44/40/1 45/41/1 22/13/1
f 20/21/6 136/20/5 19/18/4
f 23/23/1 24/42/1 22/13/1
f 25/43/1 26/28/1 20/21/6
f 27/29/1 28/24/1 5/1/1
f 29/25/1 30/22/1 14/5/1
f 31/31/1 32/26/1 10/12/1
f 33/27/1 34/36/1 2/14/1
f 35/37/1 36/32/1 19/18/4
f 37/33/1 38/30/1 21/19/1
f 39/39/1 40/34/1 21/19/1
f 41/35/1 42/44/1 19/18/4
f 43/45/1 44/40/1 20/21/6
f 45/41/1 46/38/1 22/13/1
f 22/13/1 24/42/1 25/43/1 20/21/6
f 51/46/7 52/47/8 54/48/7 53/49/7
f 60/50/7 62/51/7 61/52/7 59/53/7
f 58/54/7 56/55/7 55/56/7 57/57/7
f 59/53/7 68/58/7 60/50/7
f 48/59/7 50/60/7 49/61/7 47/62/9
f 47/62/9 65/63/10 48/59/7
f 67/64/7 68/58/7 59/53/7 55/56/7
f 56/55/7 67/64/7 55/56/7
f 65/63/10 47/62/9 138/65/11
f 51/46/7 66/66/12 52/47/8
f 60/50/7 68/58/7 69/67/7 76/68/7
f 51/46/7 60/50/7 75/69/7 74/70/7
f 56/55/7 48/59/7 79/71/7 78/72/7
f 66/66/12 51/46/7 73/73/7 72/74/7
f 67/64/7 56/55/7 77/75/7 84/76/7
f 65/63/10 67/64/7 83/77/7 82/78/7
f 67/64/7 65/63/10 87/79/7 86/80/7
f 48/59/7 65/63/10 81/81/7 80/82/7
f 68/58/7 67/64/7 85/83/7 92/84/7
f 66/66/12 68/58/7 91/85/7 90/86/7
f 66/66/12 65/63/10 138/65/11
f 69/67/7 68/58/7 70/87/7
f 71/88/7 66/66/12 72/74/7
f 73/73/7 51/46/7 74/70/7
f 75/69/7 60/50/7 76/68/7
f 77/75/7 56/55/7 78/72/7
f 79/71/7 48/59/7 80/82/7
f 81/81/7 65/63/10 82/78/7
f 83/77/7 67/64/7 84/76/7
f 85/83/7 67/64/7 86/80/7
f 87/79/7 65/63/10 88/89/7
f 89/90/7 66/66/12 90/86/7
f 91/85/7 68/58/7 92/84/7
f 68/58/7 66/66/12 71/88/7 70/87/7
f 65/63/10 66/66/12 89/90/7 88/89/7
f 94/91/13 93/92/14 58/54/15 57/57/16
f 28/93/17 27/94/18 73/95/18 74/96/17
f 45/97/19 44/98/20 90/99/20 91/100/19
f 93/92/14 95/101/21 56/55/22 58/54/15
f 30/102/23 29/103/24 75/104/24 76/105/23
f 33/106/25 32/107/26 78/108/26 79/109/25
f 97/110/27 96/111/28 50/60/29 48/59/30
f 44/98/20 43/112/31 89/113/31 90/99/20
f 96/111/28 100/114/32 49/61/33 50/60/29
f 46/115/34 45/97/19 91/100/19 92/116/34
f 143/117/35 139/118/36 64/119/37 120/120/38
f 32/107/26 31/121/39 77/122/39 78/108/26
f 31/121/39 38/123/40 84/124/40 77/122/39
f 100/114/32 102/125/41 47/62/42 49/61/33
f 35/126/43 34/127/44 80/128/44 81/129/43
f 101/130/45 103/131/46 54/48/47 52/47/48
f 34/127/44 33/106/25 79/109/25 80/128/44
f 37/132/49 36/133/50 82/134/50 83/135/49
f 103/131/46 104/136/51 53/49/52 54/48/47
f 104/136/51 105/137/53 51/46/54 53/49/52
f 105/137/53 106/138/55 60/50/56 51/46/54
f 25/139/57 24/140/58 70/141/58 71/142/57
f 106/138/55 107/143/59 62/51/60 60/50/56
f 95/101/21 97/110/27 48/59/30 56/55/22
f 36/133/50 35/126/43 81/129/43 82/134/50
f 41/144/61 40/145/62 86/146/62 87/147/61
f 107/143/59 108/148/63 61/52/64 62/51/60
f 24/140/58 23/149/65 69/150/65 70/141/58
f 23/149/65 30/102/23 76/105/23 69/150/65
f 38/123/40 37/132/49 83/135/49 84/124/40
f 108/148/63 109/151/66 59/53/67 61/52/64
f 27/94/18 26/152/68 72/153/68 73/95/18
f 40/145/62 39/154/69 85/155/69 86/146/62
f 39/154/69 46/115/34 92/116/34 85/155/69
f 109/151/66 110/156/70 55/56/71 59/53/67
f 29/103/24 28/93/17 74/96/17 75/104/24
f 42/157/72 41/144/61 87/147/61 88/158/72
f 110/156/70 94/91/13 57/57/16 55/56/71
f 26/152/68 25/139/57 71/142/57 72/153/68
f 9/11/73 11/10/74 94/91/13 110/156/70
f 13/6/75 9/11/73 110/156/70 109/151/66
f 15/7/76 13/6/75 109/151/66 108/148/63
f 16/8/77 15/7/76 108/148/63 107/143/59
f 10/12/78 2/14/79 97/110/27 95/101/21
f 14/5/80 16/8/77 107/143/59 106/138/55
f 5/1/81 14/5/80 106/138/55 105/137/53
f 7/2/82 5/1/81 105/137/53 104/136/51
f 8/3/83 7/2/82 104/136/51 103/131/46
f 6/4/84 8/3/83 103/131/46 101/130/45
f 3/16/85 1/15/86 102/125/41 100/114/32
f 4/17/87 3/16/85 100/114/32 96/111/28
f 2/14/79 4/17/87 96/111/28 97/110/27
f 12/9/88 10/12/78 95/101/21 93/92/14
f 11/10/74 12/9/88 93/92/14 94/91/13
f 18/159/89 98/160/90 112/161/91 111/162/92
f 98/160/90 64/119/37 113/163/93 112/161/91
f 139/118/36 63/164/94 114/165/95 141/166/96
f 63/164/94 99/167/97 115/168/98 114/165/95
f 99/167/97 17/169/99 116/170/100 115/168/98
f 137/171/101 18/159/89 111/162/92 140/172/102
f 111/162/92 112/161/91 117/173/103
f 112/161/91 113/163/93 117/173/103
f 141/166/96 114/165/95 117/173/103
f 114/165/95 115/168/98 117/173/103
f 115/168/98 116/170/100 117/173/103
f 140/172/102 111/162/92 117/173/103
f 6/4/2 101/130/104 127/174/105 124/175/106
f 101/130/104 52/47/8 132/176/107 127/174/105
f 142/177/108 137/171/101 17/169/99 121/178/109
f 129/179/110 131/180/111 102/125/112 1/15/3
f 102/125/112 131/180/111 135/181/113 47/62/9
f 120/120/38 64/119/37 98/160/90 122/182/114
f 123/183/115 125/184/116 126/185/117 122/182/114
f 121/178/109 17/169/99 99/167/97 119/186/118
f 119/186/118 99/167/97 63/164/94 118/187/119
f 130/188/120 119/186/118 118/187/119 134/189/121
f 133/190/122 126/191/117 127/192/105 132/193/107
f 144/194/123 128/195/124 129/196/110 145/197/125
f 128/195/124 130/198/120 131/199/111 129/196/110
f 124/200/106 127/192/105 126/191/117 125/201/116
f 130/198/120 134/202/121 135/203/113 131/199/111
f 146/204/126 133/190/122 132/193/107 147/205/127
f 128/206/124 121/178/109 119/186/118 130/188/120
f 18/159/89 123/183/115 122/182/114 98/160/90
f 133/207/122 120/120/38 122/182/114 126/185/117
f 144/208/123 142/177/108 121/178/109 128/206/124
f 146/209/126 143/117/35 120/120/38 133/207/122
f 134/189/121 118/187/119 143/117/35 146/209/126
f 125/184/116 123/183/115 142/177/108 144/208/123
f 145/210/125 129/179/110 1/15/3 136/20/5
f 134/202/121 146/204/126 147/205/127 135/203/113
f 125/201/116 144/194/123 145/197/125 124/200/106
f 138/65/11 47/62/9 135/181/113 147/211/127
f 123/183/115 18/159/89 137/171/101 142/177/108
f 6/4/2 124/175/106 145/210/125 136/20/5
f 17/169/99 137/171/101 140/172/102 116/170/100
f 64/119/37 139/118/36 141/166/96 113/163/93
f 118/187/119 63/164/94 139/118/36 143/117/35
f 20/21/6 6/4/2 136/20/5
f 132/176/107 52/47/8 138/65/11 147/211/127
f 116/170/100 140/172/102 117/173/103
f 113/163/93 141/166/96 117/173/103
f 19/18/4 42/44/1 43/45/1 20/21/6
f 52/47/8 66/66/12 138/65/11
f 43/112/31 42/157/72 88/158/72 89/113/31
