# Blender v3.4.1 OBJ File: 'Tiny_Treats_Charming_Kitchen_ASSETS_EXPORT.blend'
# www.blender.org
mtllib spoon.mtl
o spoon
v -0.076324 0.444411 0.035617
v -0.064487 0.670518 0.042984
v -0.076324 0.430108 -0.032548
v -0.064487 0.688003 -0.031565
v 0.076333 0.444411 0.035617
v 0.064496 0.670518 0.042984
v 0.076333 0.430108 -0.032548
v 0.064496 0.688003 -0.031565
v 0.094992 0.555567 0.042549
v 0.094992 0.555567 -0.039481
v -0.094984 0.555567 -0.039481
v -0.094984 0.555567 0.042549
v -0.039398 0.375471 -0.021101
v 0.039407 0.375471 -0.021101
v 0.039407 0.375471 0.024170
v -0.039398 0.375471 0.024170
v 0.019997 -0.117030 -0.017883
v -0.019989 -0.117030 -0.017883
v -0.019989 -0.117030 0.023069
v 0.019997 -0.117030 0.023069
v -0.109718 0.430108 0.021132
v -0.078734 0.702100 -0.018422
v -0.091617 0.481542 -0.038167
v 0.091625 0.481542 -0.038167
v 0.109726 0.430108 -0.018063
v 0.078744 0.701180 0.032536
v 0.091625 0.481542 0.041236
v -0.091617 0.481542 0.041236
v 0.000004 0.430108 -0.037660
v 0.000004 0.430108 0.040729
v -0.136541 0.555567 -0.022049
v 0.136549 0.555567 0.025118
v 0.000004 0.555567 -0.045633
v 0.000004 0.375471 -0.024496
v -0.056637 0.375471 0.014550
v 0.056645 0.375471 -0.011481
v 0.000004 0.375471 0.027565
v 0.000004 -0.119431 -0.019379
v -0.025512 -0.120057 0.015380
v 0.025519 -0.120057 -0.010194
v 0.000004 -0.119431 0.024565
v 0.025519 -0.100430 0.024955
v 0.025890 0.335039 -0.019122
v -0.025883 0.335039 -0.019122
v -0.025512 -0.100430 0.024955
v 0.025890 0.335039 0.024308
v -0.025883 0.335039 0.024308
v 0.025519 -0.100430 -0.019768
v -0.025512 -0.100430 -0.019768
v -0.109718 0.430108 -0.018063
v -0.078734 0.701180 0.032536
v 0.109726 0.430108 0.021132
v 0.078744 0.702100 -0.018422
v -0.136541 0.555567 0.025118
v 0.136549 0.555567 -0.022049
v -0.056637 0.375471 -0.011481
v 0.056645 0.375471 0.014550
v -0.025512 -0.120057 -0.010194
v 0.025519 -0.120057 0.015380
v 0.036719 -0.100785 0.015602
v -0.131701 0.481542 -0.021294
v 0.131709 0.481542 0.024363
v 0.000004 0.481542 -0.044123
v 0.000004 -0.125314 0.015528
v 0.000004 -0.100666 -0.023044
v 0.000004 -0.100666 0.028231
v -0.036712 -0.100785 -0.010415
v -0.037208 0.335039 -0.009893
v 0.000004 0.335039 0.027566
v 0.000004 0.335039 -0.022379
v 0.037215 0.335039 0.015079
v 0.037215 0.335039 -0.009893
v -0.037208 0.335039 0.015079
v -0.036712 -0.100785 0.015602
v 0.000004 -0.125314 -0.010341
v 0.131709 0.481542 -0.021294
v -0.131701 0.481542 0.024363
v 0.036719 -0.100785 -0.010415
v -0.073064 0.555201 0.025183
v -0.049605 0.641577 0.023954
v 0.049615 0.641577 0.023954
v 0.073074 0.555201 0.025183
v 0.070484 0.498257 0.024173
v 0.058720 0.470807 0.028362
v -0.058711 0.470807 0.028362
v -0.070474 0.498257 0.024173
v 0.000004 0.458692 0.023783
v 0.000005 0.554955 0.022066
v 0.000004 0.491380 0.019766
v -0.080079 0.646811 0.045513
v -0.092759 0.608167 0.046051
v 0.080089 0.646811 0.045514
v 0.092768 0.608167 0.046051
v 0.082930 0.649919 -0.037044
v 0.092728 0.610965 -0.039647
v -0.082920 0.649919 -0.037044
v -0.092719 0.610965 -0.039647
v -0.132768 0.612589 -0.022486
v -0.117641 0.651106 -0.021539
v 0.132800 0.611509 0.029112
v 0.117658 0.650103 0.031089
v 0.000005 0.650913 -0.041990
v 0.000005 0.612094 -0.045536
v 0.117651 0.651106 -0.021539
v 0.132778 0.612589 -0.022486
v -0.117648 0.650103 0.031089
v -0.132790 0.611509 0.029112
v -0.071542 0.590406 0.023709
v -0.058466 0.628450 0.023499
v 0.058477 0.628450 0.023499
v 0.071552 0.590406 0.023709
v 0.000005 0.636750 0.027019
v 0.000005 0.600423 0.026012
v -0.019740 0.695762 -0.032411
v 0.019749 0.695762 -0.032411
v 0.019632 0.683564 0.045005
v -0.019622 0.683564 0.045005
v 0.019665 0.719570 0.033207
v -0.019655 0.719570 0.033207
v -0.019645 0.720479 -0.017448
v 0.019655 0.720479 -0.017448
v 0.019642 0.650293 0.025304
v -0.019632 0.650293 0.025304
vt 0.711076 0.955422
vt 0.703278 0.965641
vt 0.703278 0.965456
vt 0.711077 0.955221
vt 0.666001 0.933560
vt 0.668255 0.946646
vt 0.687501 0.946884
vt 0.687501 0.933560
vt 0.663926 0.955422
vt 0.671722 0.965641
vt 0.674577 0.962816
vt 0.670883 0.955184
vt 0.687501 0.905165
vt 0.704777 0.908401
vt 0.700790 0.914376
vt 0.687501 0.911634
vt 0.666763 0.916805
vt 0.670225 0.908401
vt 0.674211 0.914376
vt 0.671549 0.920589
vt 0.671453 0.954562
vt 0.674577 0.959312
vt 0.671722 0.965456
vt 0.663925 0.955221
vt 0.708237 0.916805
vt 0.709000 0.933560
vt 0.704038 0.933477
vt 0.703452 0.920589
vt 0.656596 0.933560
vt 0.659940 0.946758
vt 0.659959 0.946986
vt 0.656596 0.933560
vt 0.687501 0.933422
vt 0.687501 0.944436
vt 0.672478 0.942272
vt 0.670962 0.933477
vt 0.706785 0.946050
vt 0.702523 0.942272
vt 0.700424 0.959312
vt 0.703548 0.954562
vt 0.709000 0.933560
vt 0.706745 0.946646
vt 0.715043 0.946986
vt 0.718406 0.933560
vt 0.700424 0.962816
vt 0.691457 0.964371
vt 0.691438 0.969324
vt 0.704118 0.955184
vt 0.683563 0.969324
vt 0.683561 0.969142
vt 0.718406 0.933560
vt 0.715062 0.946758
vt 0.695811 0.785005
vt 0.695811 0.785005
vt 0.693276 0.780643
vt 0.693276 0.780643
vt 0.693276 0.785085
vt 0.692026 0.781328
vt 0.662667 0.905165
vt 0.657691 0.916805
vt 0.657691 0.916805
vt 0.662667 0.905165
vt 0.666763 0.916805
vt 0.670225 0.905165
vt 0.712335 0.905165
vt 0.717310 0.916805
vt 0.717310 0.916805
vt 0.712335 0.905165
vt 0.687501 0.916805
vt 0.687501 0.905165
vt 0.708237 0.916805
vt 0.704777 0.905165
vt 0.699217 0.950882
vt 0.697442 0.953512
vt 0.691436 0.955259
vt 0.687501 0.952545
vt 0.691440 0.969142
vt 0.691434 0.961927
vt 0.683568 0.961927
vt 0.677559 0.953512
vt 0.683566 0.955259
vt 0.696418 0.892798
vt 0.700320 0.892798
vt 0.687501 0.892798
vt 0.678582 0.892798
vt 0.678582 0.892798
vt 0.687501 0.892798
vt 0.674681 0.892798
vt 0.700320 0.892798
vt 0.674681 0.892798
vt 0.681725 0.780643
vt 0.687500 0.779453
vt 0.687500 0.779453
vt 0.681725 0.780643
vt 0.687500 0.780784
vt 0.682975 0.781328
vt 0.695923 0.883647
vt 0.693276 0.785085
vt 0.693359 0.883647
vt 0.687500 0.883647
vt 0.687500 0.785031
vt 0.681725 0.785085
vt 0.681641 0.883647
vt 0.692026 0.781328
vt 0.687500 0.780784
vt 0.682975 0.781328
vt 0.693359 0.883647
vt 0.695923 0.883647
vt 0.687500 0.883647
vt 0.687500 0.785031
vt 0.681725 0.785085
vt 0.679191 0.785005
vt 0.679191 0.785005
vt 0.679078 0.883647
vt 0.679078 0.883647
vt 0.681641 0.883647
vt 0.696418 0.892798
vt 0.687501 0.961120
vt 0.666001 0.933560
vt 0.683544 0.964371
vt 0.668216 0.946050
vt 0.675784 0.950882
vt 0.687501 0.918810
vt 0.687501 0.952555
vt 0.687501 0.955384
vt 0.691331 0.964879
vt 0.683659 0.955692
vn 0.8724 0.4888 0.0092
vn 0.5772 0.8165 0.0148
vn 0.5724 0.8199 0.0149
vn 0.8707 0.4917 0.0092
vn -0.2339 -0.0096 -0.9722
vn -0.2399 0.0699 -0.9683
vn 0.0000 0.0440 -0.9990
vn -0.0000 -0.0099 -1.0000
vn -0.3929 0.2283 -0.8908
vn -0.2827 0.4378 -0.8534
vn -0.1933 0.3607 -0.9125
vn -0.2407 0.2009 -0.9496
vn 0.0000 0.0477 0.9989
vn 0.1112 -0.0935 0.9894
vn -0.1953 0.2270 0.9541
vn -0.0000 0.2825 0.9593
vn 0.4902 0.0982 0.8661
vn -0.1112 -0.0935 0.9894
vn 0.1953 0.2269 0.9541
vn 0.3362 0.0573 0.9401
vn -0.3239 0.1825 0.9283
vn -0.2146 0.2586 0.9418
vn -0.1936 0.2660 0.9443
vn -0.3400 0.1554 0.9275
vn -0.4902 0.0982 0.8660
vn -0.6448 -0.0164 0.7642
vn -0.3666 -0.0231 0.9301
vn -0.3362 0.0573 0.9401
vn -1.0000 0.0023 0.0003
vn -0.9750 0.2222 0.0039
vn -0.9756 0.2196 0.0038
vn -1.0000 0.0010 0.0003
vn 0.0000 -0.0286 0.9996
vn -0.0000 -0.0156 0.9999
vn 0.3674 -0.0709 0.9274
vn 0.3666 -0.0231 0.9301
vn -0.6373 -0.1455 0.7568
vn -0.3674 -0.0709 0.9274
vn 0.3400 0.1554 0.9275
vn 0.1936 0.2660 0.9443
vn 0.2146 0.2586 0.9418
vn 0.3239 0.1825 0.9283
vn -0.8707 0.4917 0.0092
vn -0.5724 0.8199 0.0149
vn -0.5772 0.8165 0.0148
vn -0.8724 0.4888 0.0092
vn -0.3887 -0.0092 -0.9213
vn -0.3909 0.0832 -0.9167
vn 0.2339 -0.0096 -0.9722
vn 0.2399 0.0699 -0.9683
vn 0.3909 0.0832 -0.9167
vn 0.3887 -0.0092 -0.9213
vn 0.1933 0.3607 -0.9124
vn 0.0549 0.3771 -0.9245
vn 0.0621 0.5327 -0.8440
vn 0.2827 0.4378 -0.8534
vn 0.2407 0.2009 -0.9496
vn 0.3929 0.2283 -0.8908
vn -0.1508 0.9884 0.0178
vn -0.1501 0.9885 0.0178
vn 0.3882 -0.0382 0.9208
vn 0.3791 0.0278 0.9249
vn 0.3770 0.0406 0.9253
vn 0.3883 -0.0383 0.9208
vn 0.8931 -0.2279 -0.3877
vn 0.8931 -0.2279 0.3877
vn 0.5716 -0.7533 0.3254
vn 0.5716 -0.7533 -0.3254
vn 0.4211 -0.1363 0.8967
vn 0.3162 -0.5177 0.7950
vn 1.0000 0.0010 0.0003
vn 0.9756 0.2196 0.0038
vn 0.9750 0.2221 0.0039
vn 1.0000 0.0023 0.0003
vn -0.8371 -0.5471 0.0000
vn -0.9735 -0.2288 0.0000
vn -0.3871 -0.1129 -0.9151
vn -0.2400 -0.1038 -0.9652
vn -0.3862 -0.2941 -0.8743
vn -0.2448 -0.2761 -0.9295
vn 0.8371 -0.5471 0.0000
vn 0.9735 -0.2288 0.0000
vn 0.3699 -0.1212 0.9211
vn 0.3645 -0.1453 0.9198
vn 0.3316 -0.2913 0.8973
vn 0.0000 -0.0733 -0.9973
vn -0.0000 -0.1843 -0.9829
vn 0.2400 -0.1038 -0.9652
vn 0.2448 -0.2761 -0.9295
vn -0.3048 -0.1372 0.9425
vn -0.1864 -0.2431 0.9519
vn -0.0110 -0.2672 0.9636
vn 0.0000 0.0429 0.9991
vn 0.0511 0.3034 0.9515
vn 0.0608 0.3018 0.9514
vn 0.0494 -0.5089 0.8594
vn 0.3017 -0.4233 0.8543
vn 0.1864 -0.2431 0.9519
vn 0.0110 -0.2672 0.9636
vn 0.2766 -0.2110 0.9376
vn 0.3979 -0.3100 0.8634
vn 0.0000 -0.1565 -0.9877
vn -0.2750 -0.2565 -0.9266
vn -0.2766 -0.2110 0.9376
vn 0.0000 -0.1209 0.9927
vn 0.1508 0.9884 0.0178
vn 0.1501 0.9885 0.0178
vn -0.4401 -0.3820 -0.8126
vn 0.8164 -0.5775 0.0000
vn 0.8178 -0.5755 0.0000
vn -0.8164 -0.5775 0.0000
vn -0.8178 -0.5755 0.0000
vn -0.5716 -0.7533 -0.3254
vn -0.0000 -0.9663 -0.2575
vn -0.0000 -0.9663 0.2575
vn -0.5716 -0.7533 0.3254
vn -0.0000 -0.8593 0.5115
vn -0.3162 -0.5177 0.7950
vn 0.5854 -0.1392 -0.7987
vn 0.4211 -0.1363 -0.8967
vn 0.3444 -0.0760 -0.9357
vn -0.0000 -0.0332 -0.9994
vn -0.0000 -0.0857 -0.9963
vn -0.4211 -0.1363 -0.8967
vn -0.3444 -0.0760 -0.9357
vn 0.3162 -0.5177 -0.7950
vn -0.0000 -0.1723 -0.9850
vn -0.3162 -0.5177 -0.7950
vn 0.3439 -0.0502 0.9377
vn 0.5865 -0.1176 0.8014
vn -0.0000 -0.0069 1.0000
vn 0.0000 -0.0857 0.9963
vn -0.4211 -0.1363 0.8967
vn 0.0000 -0.1723 0.9850
vn -0.8931 -0.2279 0.3877
vn -0.8931 -0.2279 -0.3877
vn -0.9743 -0.2250 0.0000
vn -0.9751 -0.2217 0.0000
vn -0.5854 -0.1392 -0.7987
vn 0.9751 -0.2218 -0.0000
vn 0.9743 -0.2251 -0.0000
vn -0.3439 -0.0502 0.9377
vn 0.2750 -0.2565 -0.9266
vn -0.5865 -0.1176 0.8014
vn 0.4401 -0.3820 -0.8126
vn -0.3979 -0.3100 0.8635
vn -0.0000 -0.8593 -0.5115
vn -0.3316 -0.2913 0.8973
vn 0.3862 -0.2941 -0.8743
vn -0.3017 -0.4233 0.8543
vn -0.0494 -0.5089 0.8594
vn 0.0000 0.1365 -0.9906
vn 0.3871 -0.1129 -0.9151
vn -0.3645 -0.1453 0.9198
vn -0.3699 -0.1212 0.9211
vn -0.3883 -0.0383 0.9208
vn -0.3882 -0.0382 0.9208
vn -0.0549 0.3771 -0.9245
vn -0.0621 0.5327 -0.8440
vn 0.6373 -0.1455 0.7568
vn 0.6448 -0.0164 0.7642
vn 0.5631 -0.2554 0.7859
vn 0.3048 -0.1372 0.9425
vn 0.0000 0.0687 0.9976
vn -0.5631 -0.2554 0.7859
vn -0.0511 0.3034 0.9515
vn -0.0608 0.3018 0.9514
vn -0.3791 0.0278 0.9249
vn -0.3770 0.0406 0.9253
usemtl tiny_treats_1
s 1
f 104/1/1 53/2/2 26/3/3 101/4/4
f 11/5/5 97/6/6 103/7/7 33/8/8
f 99/9/9 22/10/10 4/11/11 96/12/12
f 30/13/13 5/14/14 84/15/15 87/16/16
f 28/17/17 1/18/18 85/19/19 86/20/20
f 90/21/21 2/22/22 51/23/23 106/24/24
f 27/25/25 9/26/26 82/27/27 83/28/28
f 54/29/29 107/30/30 98/31/31 31/32/32
f 88/33/33 113/34/34 108/35/35 79/36/36
f 9/26/26 93/37/37 111/38/38 82/27/27
f 101/4/39 26/3/40 6/39/41 92/40/42
f 106/24/43 51/23/44 22/10/45 99/9/46
f 31/32/47 98/31/48 97/6/6 11/5/5
f 10/41/49 95/42/50 105/43/51 55/44/52
f 8/45/53 115/46/54 121/47/55 53/2/56
f 1/18/18 30/13/13 87/16/16 85/19/19
f 94/48/57 8/45/53 53/2/56 104/1/58
f 120/49/59 22/10/45 51/23/44 119/50/60
f 32/51/61 100/52/62 93/37/63 9/26/64
f 78/53/65 60/54/66 59/55/67 40/56/68
f 60/54/66 42/57/69 20/58/70 59/55/67
f 55/44/71 105/43/72 100/52/73 32/51/74
f 21/59/75 77/60/76 61/61/76 50/62/75
f 61/61/77 31/32/47 11/5/5 23/63/78
f 50/62/79 61/61/77 23/63/78 3/64/80
f 77/60/76 54/29/29 31/32/32 61/61/76
f 25/65/81 76/66/82 62/67/82 52/68/81
f 62/67/83 32/51/61 9/26/64 27/25/84
f 52/68/85 62/67/83 27/25/84 5/14/14
f 3/64/80 23/63/78 63/69/86 29/70/87
f 23/63/78 11/5/5 33/8/8 63/69/86
f 63/69/86 33/8/8 10/41/49 24/71/88
f 29/70/87 63/69/86 24/71/88 7/72/89
f 76/66/82 55/44/71 32/51/74 62/67/82
f 110/73/90 81/74/91 122/75/92 112/76/93
f 26/3/40 118/77/94 116/78/95 6/39/41
f 117/79/96 2/22/97 80/80/98 123/81/99
f 5/14/14 15/82/100 57/83/101 52/68/85
f 29/70/87 34/84/102 13/85/103 3/64/80
f 1/18/18 16/86/104 37/87/105 30/13/13
f 53/2/2 121/47/106 118/77/107 26/3/3
f 13/85/103 56/88/108 50/62/79 3/64/80
f 30/13/13 37/87/105 15/82/100 5/14/14
f 36/89/109 25/65/81 52/68/81 57/83/110
f 50/62/75 56/88/111 35/90/112 21/59/75
f 58/91/113 75/92/114 64/93/115 39/94/116
f 64/93/115 59/55/67 20/58/70 41/95/117
f 39/94/116 64/93/115 41/95/117 19/96/118
f 72/97/119 78/53/65 48/98/120 43/99/121
f 70/100/122 65/101/123 49/102/124 44/103/125
f 65/101/123 48/98/120 17/104/126 38/105/127
f 49/102/124 65/101/123 38/105/127 18/106/128
f 46/107/129 42/57/69 60/54/66 71/108/130
f 69/109/131 66/110/132 42/57/69 46/107/129
f 66/110/132 45/111/133 19/96/118 41/95/134
f 42/57/69 66/110/132 41/95/134 20/58/70
f 74/112/135 67/113/136 58/91/113 39/94/116
f 68/114/137 67/113/136 74/112/135 73/115/138
f 67/113/136 49/102/124 18/106/128 58/91/113
f 75/92/114 40/56/68 59/55/67 64/93/115
f 56/88/108 13/85/103 44/103/125 68/114/139
f 71/108/140 60/54/66 78/53/65 72/97/141
f 15/82/100 37/87/105 69/109/131 46/107/129
f 37/87/105 16/86/104 47/116/142 69/109/131
f 13/85/103 34/84/102 70/100/122 44/103/125
f 34/84/102 14/117/143 43/99/121 70/100/122
f 57/83/101 15/82/100 46/107/129 71/108/130
f 35/90/112 56/88/111 68/114/137 73/115/138
f 36/89/109 57/83/110 71/108/140 72/97/141
f 44/103/125 49/102/124 67/113/136 68/114/139
f 47/116/142 73/115/144 74/112/135 45/111/133
f 14/117/143 36/89/145 72/97/119 43/99/121
f 16/86/104 35/90/146 73/115/144 47/116/142
f 47/116/142 45/111/133 66/110/132 69/109/131
f 45/111/133 74/112/135 39/94/116 19/96/118
f 18/106/128 38/105/147 75/92/114 58/91/113
f 38/105/147 17/104/126 40/56/68 75/92/114
f 21/59/148 35/90/146 16/86/104 1/18/18
f 25/65/149 36/89/145 14/117/143 7/72/89
f 6/39/150 116/78/151 122/75/92 81/74/91
f 102/118/152 115/46/54 8/45/53 94/48/57
f 7/72/89 24/71/88 76/66/153 25/65/149
f 24/71/88 10/41/49 55/44/52 76/66/153
f 1/18/18 28/17/154 77/60/155 21/59/148
f 28/17/154 12/119/156 54/29/157 77/60/155
f 48/98/120 78/53/65 40/56/68 17/104/126
f 114/120/158 4/11/11 22/10/10 120/49/159
f 33/8/8 103/7/7 95/42/50 10/41/49
f 91/121/160 12/119/161 79/36/36 108/35/35
f 2/22/97 90/21/162 109/122/163 80/80/98
f 7/72/89 14/117/143 34/84/102 29/70/87
f 84/15/15 83/28/28 89/123/164 87/16/16
f 83/28/28 82/27/27 88/33/33 89/123/164
f 89/123/164 88/33/33 79/36/36 86/20/20
f 87/16/16 89/123/164 86/20/20 85/19/19
f 82/27/27 111/38/38 113/34/34 88/33/33
f 112/124/93 123/81/99 80/80/98 109/122/163
f 5/14/14 27/25/25 83/28/28 84/15/15
f 92/40/165 6/39/150 81/74/91 110/73/90
f 12/119/161 28/17/17 86/20/20 79/36/36
f 119/50/166 51/23/23 2/22/22 117/79/167
f 109/122/163 90/21/162 91/121/160 108/35/35
f 97/6/6 98/31/48 99/9/9 96/12/12
f 93/37/63 100/52/62 101/4/39 92/40/42
f 96/12/12 102/125/152 103/7/7 97/6/6
f 95/42/50 103/7/7 102/125/152 94/48/57
f 111/38/38 93/37/37 92/40/165 110/73/90
f 94/48/57 104/1/58 105/43/51 95/42/50
f 100/52/73 105/43/72 104/1/1 101/4/4
f 90/21/21 106/24/24 107/30/168 91/121/169
f 98/31/31 107/30/30 106/24/43 99/9/46
f 110/73/90 112/76/93 113/34/34 111/38/38
f 108/35/35 113/34/34 112/76/93 109/122/163
f 12/119/156 91/121/169 107/30/168 54/29/157
f 114/120/158 115/126/54 102/118/152
f 122/75/92 123/127/99 112/124/93
f 122/75/92 116/78/151 117/79/96 123/81/99
f 116/78/95 118/77/94 119/50/166 117/79/167
f 114/120/158 120/49/159 121/47/55 115/46/54
f 118/77/107 121/47/106 120/49/59 119/50/60
f 96/12/12 4/11/11 114/120/158 102/125/152
f 43/99/121 48/98/120 65/101/123 70/100/122
