# Blender v3.4.1 OBJ File: 'Tiny_Treats_Charming_Kitchen_ASSETS_EXPORT.blend'
# www.blender.org
mtllib stove_door.mtl
o stove_door
v -0.900000 0.049999 0.707340
v -0.780000 0.169999 0.757340
v -0.950000 0.099999 0.707340
v -0.780000 0.479999 0.757340
v -0.900000 0.699999 0.707340
v -0.950000 0.649999 0.707340
v -0.900000 0.049999 0.557340
v -0.780000 0.169999 0.557340
v -0.900000 0.699999 0.557340
v -0.780000 0.479999 0.557340
v 0.900000 0.049999 0.707340
v 0.950000 0.099999 0.707340
v 0.780000 0.169999 0.757340
v 0.900000 0.699999 0.707340
v 0.780000 0.479999 0.757340
v 0.950000 0.649999 0.707340
v 0.900000 0.049999 0.557340
v 0.780000 0.169999 0.557340
v 0.900000 0.699999 0.557340
v 0.780000 0.479999 0.557340
v -0.900000 0.099999 0.757340
v -0.900000 0.649999 0.757340
v -0.950000 0.099999 0.557340
v -0.950000 0.649999 0.557340
v 0.950000 0.099999 0.557340
v 0.950000 0.649999 0.557340
v 0.900000 0.649999 0.757340
v 0.900000 0.099999 0.757340
v -0.780000 0.169999 0.677340
v 0.780000 0.169999 0.677340
v 0.780000 0.479999 0.677340
v -0.780000 0.479999 0.677340
v -0.744645 0.444644 0.617340
v -0.744645 0.444644 0.697340
v 0.744645 0.444644 0.617340
v 0.744645 0.444644 0.697340
v 0.744645 0.205355 0.697340
v 0.744645 0.205355 0.617340
v -0.744645 0.205355 0.697340
v -0.744645 0.205355 0.617340
v -0.780000 0.479999 0.637340
v 0.780000 0.479999 0.637340
v 0.780000 0.169999 0.637340
v -0.780000 0.169999 0.637340
v -0.535830 0.618587 0.786921
v -0.562269 0.644031 0.813360
v 0.562269 0.644031 0.813360
v 0.535830 0.618587 0.786921
v -0.562269 0.495969 0.813360
v -0.535830 0.521413 0.786921
v 0.535830 0.521413 0.786921
v 0.562269 0.495969 0.813360
v -0.529620 0.524862 0.757341
v -0.557362 0.497120 0.757341
v -0.557362 0.642880 0.757341
v -0.529620 0.615138 0.757341
v 0.529620 0.615138 0.757341
v 0.557362 0.642880 0.757341
v 0.557362 0.497120 0.757341
v 0.529620 0.524862 0.757341
v 0.627371 0.642691 0.757339
v 0.653058 0.614691 0.757339
v 0.653058 0.525309 0.757339
v 0.627371 0.497310 0.757339
v -0.627371 0.497309 0.757340
v -0.653058 0.525309 0.757340
v -0.653058 0.614691 0.757340
v -0.627371 0.642690 0.757340
v 0.585746 0.642574 0.900200
v 0.594607 0.614886 0.926233
v 0.652586 0.614957 0.868329
v 0.627680 0.642543 0.853876
v 0.612894 0.642545 0.888651
v 0.634890 0.615075 0.908396
v 0.627680 0.497457 0.853876
v 0.652586 0.525043 0.868329
v 0.594607 0.525114 0.926233
v 0.585746 0.497426 0.900200
v 0.612894 0.497455 0.888651
v 0.634890 0.524925 0.908396
v -0.627681 0.642543 0.853876
v -0.652586 0.614957 0.868329
v -0.594607 0.614886 0.926233
v -0.585747 0.642574 0.900200
v -0.612894 0.642545 0.888651
v -0.634890 0.615075 0.908396
v -0.585746 0.497426 0.900200
v -0.594607 0.525114 0.926233
v -0.652586 0.525043 0.868329
v -0.627681 0.497457 0.853876
v -0.612894 0.497455 0.888651
v -0.634890 0.524925 0.908396
vt 0.346641 0.610832
vt 0.346641 0.597264
vt 0.345093 0.598811
vt 0.345093 0.609285
vt 0.354082 0.625450
vt 0.354082 0.649523
vt 0.354082 0.649523
vt 0.354082 0.625450
vt 0.351893 0.682962
vt 0.273107 0.682962
vt 0.273107 0.682962
vt 0.351893 0.682962
vt 0.270918 0.625450
vt 0.270918 0.649523
vt 0.270918 0.649523
vt 0.270918 0.625450
vt 0.351893 0.592011
vt 0.273107 0.592011
vt 0.270918 0.594200
vt 0.354082 0.594200
vt 0.273107 0.623261
vt 0.273107 0.625450
vt 0.273107 0.680773
vt 0.270918 0.680773
vt 0.273107 0.651712
vt 0.351893 0.651712
vt 0.345093 0.640535
vt 0.345093 0.630061
vt 0.346641 0.628514
vt 0.346641 0.642082
vt 0.351893 0.623261
vt 0.351893 0.625450
vt 0.351893 0.680773
vt 0.354082 0.680773
vt 0.273107 0.623261
vt 0.273107 0.649523
vt 0.270918 0.680773
vt 0.351893 0.623261
vt 0.354082 0.680773
vt 0.351893 0.649523
vt 0.278359 0.628514
vt 0.278359 0.642082
vt 0.278359 0.610832
vt 0.278359 0.597264
vt 0.270918 0.618273
vt 0.354082 0.618273
vt 0.346641 0.628514
vt 0.278359 0.628514
vt 0.279907 0.630061
vt 0.345093 0.630061
vt 0.279907 0.609285
vt 0.279907 0.598811
vt 0.279907 0.609285
vt 0.345093 0.609285
vt 0.346641 0.610832
vt 0.278359 0.610832
vt 0.279907 0.630061
vt 0.279907 0.640535
vt 0.345093 0.661311
vt 0.279907 0.661311
vt 0.278359 0.659764
vt 0.346641 0.659764
vt 0.279907 0.640535
vt 0.345093 0.640535
vt 0.278359 0.579582
vt 0.346641 0.579582
vt 0.345093 0.578035
vt 0.279907 0.578035
vt 0.289046 0.851273
vt 0.289046 0.847020
vt 0.289318 0.847171
vt 0.289318 0.851122
vt 0.283915 0.851103
vt 0.283915 0.847190
vt 0.283936 0.847179
vt 0.283936 0.851114
vt 0.286862 0.883573
vt 0.338138 0.883573
vt 0.337110 0.883637
vt 0.287889 0.883637
vt 0.335953 0.847020
vt 0.335953 0.851273
vt 0.335681 0.851122
vt 0.335681 0.847171
vt 0.338138 0.814720
vt 0.337110 0.814656
vt 0.339974 0.814721
vt 0.339326 0.814721
vt 0.339974 0.883572
vt 0.339326 0.883572
vt 0.336896 0.814707
vt 0.339960 0.814715
vt 0.340289 0.847174
vt 0.340289 0.851120
vt 0.338526 0.851111
vt 0.338526 0.847182
vt 0.287889 0.814656
vt 0.286862 0.814720
vt 0.285674 0.814721
vt 0.285026 0.814721
vt 0.341064 0.847179
vt 0.341064 0.851114
vt 0.339960 0.883578
vt 0.336896 0.883587
vt 0.285040 0.814715
vt 0.288104 0.814707
vt 0.284711 0.847174
vt 0.284711 0.851120
vt 0.286474 0.847182
vt 0.286474 0.851111
vt 0.285026 0.883572
vt 0.285674 0.883572
vt 0.341084 0.847190
vt 0.341084 0.851103
vt 0.335953 0.882523
vt 0.289046 0.882523
vt 0.289046 0.815770
vt 0.335953 0.815770
vt 0.335681 0.882372
vt 0.289318 0.815921
vt 0.288104 0.883587
vt 0.289318 0.882372
vt 0.335681 0.815921
vt 0.341064 0.815929
vt 0.340289 0.815924
vt 0.340289 0.882370
vt 0.341064 0.882364
vt 0.338526 0.815932
vt 0.338526 0.882361
vt 0.283936 0.882364
vt 0.284711 0.882370
vt 0.284711 0.815924
vt 0.283936 0.815929
vt 0.286474 0.882361
vt 0.286474 0.815932
vt 0.341084 0.882353
vt 0.341084 0.815940
vt 0.283915 0.882353
vt 0.285040 0.883578
vt 0.283915 0.815940
vt 0.990810 0.222390
vt 0.759190 0.222390
vt 0.759190 0.044522
vt 0.990810 0.044522
vt 0.990810 0.044522
vt 0.759190 0.044522
vt 0.759190 0.222390
vt 0.990810 0.222390
vn -0.8615 0.0000 -0.5077
vn -0.9548 0.0000 -0.2971
vn 1.0000 0.0000 0.0000
vn 0.8756 0.3416 0.3416
vn 0.8756 -0.3416 0.3416
vn 0.3827 0.9239 0.0000
vn -0.3827 0.9239 0.0000
vn -0.3416 0.8756 0.3416
vn 0.3416 0.8756 0.3416
vn -0.8756 -0.3416 0.3416
vn -0.8756 0.3416 0.3416
vn -1.0000 0.0000 0.0000
vn 0.0000 0.0000 -1.0000
vn -0.3416 -0.8756 0.3416
vn -0.3416 -0.3416 0.8756
vn -0.3416 0.3416 0.8756
vn -0.9548 0.0000 0.2971
vn -0.8615 0.0000 0.5077
vn 0.3416 -0.8756 0.3416
vn 0.3416 -0.3416 0.8756
vn 0.3416 0.3416 0.8756
vn -0.3827 -0.9239 0.0000
vn -0.7071 -0.7071 0.0000
vn -0.7071 0.7071 0.0000
vn 0.3827 -0.9239 0.0000
vn 0.7071 -0.7071 0.0000
vn 0.7071 0.7071 0.0000
vn -0.0000 0.0000 1.0000
vn 0.0000 0.8616 -0.5077
vn 0.0000 0.9548 -0.2971
vn 0.8616 0.0000 -0.5077
vn 0.9548 0.0000 -0.2971
vn 0.0000 -0.9548 0.2971
vn 0.0000 -0.8615 0.5077
vn 0.9548 0.0000 0.2971
vn 0.8615 0.0000 0.5077
vn 0.0000 0.9548 0.2971
vn 0.0000 0.8615 0.5077
vn 0.0000 -0.9548 -0.2971
vn 0.0000 -0.8616 -0.5077
vn 0.8747 0.4696 0.1200
vn 0.8747 -0.4696 0.1200
vn 0.9301 -0.3353 0.1499
vn 0.9301 0.3353 0.1499
vn -0.9329 0.3601 0.0024
vn -0.9329 -0.3601 0.0024
vn -0.9087 -0.3655 0.2015
vn -0.9087 0.3655 0.2015
vn -0.0844 0.9012 0.4251
vn 0.0844 0.9012 0.4251
vn 0.0076 0.9934 -0.1147
vn -0.0076 0.9934 -0.1147
vn -0.8747 -0.4696 0.1200
vn -0.8747 0.4696 0.1200
vn -0.9301 0.3353 0.1499
vn -0.9301 -0.3353 0.1499
vn 0.0844 -0.9012 0.4251
vn 0.0076 -0.9934 -0.1147
vn 0.4275 -0.9010 0.0744
vn 0.3094 -0.8968 0.3161
vn 0.4275 0.9010 0.0744
vn 0.3094 0.8968 0.3161
vn 0.0145 -0.9999 -0.0071
vn 0.6586 -0.3712 0.6545
vn 0.6586 0.3712 0.6545
vn 0.1951 0.3620 0.9115
vn 0.1951 -0.3620 0.9115
vn -0.0076 -0.9934 -0.1147
vn -0.0844 -0.9012 0.4251
vn -0.3094 -0.8968 0.3161
vn -0.4275 -0.9010 0.0744
vn 0.9087 -0.3655 0.2015
vn 0.9087 0.3655 0.2015
vn 0.0145 0.9999 -0.0071
vn -0.0145 -0.9999 -0.0071
vn -0.6586 -0.3712 0.6545
vn -0.6586 0.3712 0.6545
vn -0.1951 -0.3620 0.9115
vn -0.1951 0.3620 0.9115
vn -0.4275 0.9010 0.0744
vn -0.3094 0.8968 0.3161
vn 0.9329 -0.3601 0.0024
vn 0.9329 0.3601 0.0024
vn -0.0000 0.7205 -0.6934
vn -0.0000 -0.7205 -0.6934
vn -0.7130 0.6990 0.0550
vn 0.7130 -0.6990 0.0550
vn 0.7130 0.6990 0.0550
vn -0.7130 -0.6990 0.0550
vn 0.7395 0.6731 0.0002
vn 0.7395 -0.6731 0.0002
vn -0.7395 0.6731 0.0002
vn -0.7395 -0.6731 0.0002
vn -0.0145 0.9999 -0.0071
usemtl tiny_treats_1
s 1
f 20/1/1 18/2/1 38/3/2 35/4/2
f 25/5/3 26/6/3 16/7/4 12/8/5
f 19/9/6 9/10/7 5/11/8 14/12/9
f 3/13/10 6/14/11 24/15/12 23/16/12
f 17/17/13 7/18/13 23/19/13 25/20/13
f 1/21/14 21/22/15 3/13/10
f 22/23/16 5/11/8 6/24/11
f 9/25/13 19/26/13 26/6/13 24/15/13
f 36/27/17 37/28/17 13/29/18 15/30/18
f 11/31/19 12/8/5 28/32/20
f 14/12/9 27/33/21 16/34/4
f 7/35/22 1/21/14 3/13/10 23/16/23
f 21/22/15 22/36/16 6/14/11 3/13/10
f 5/11/8 9/10/7 24/37/24 6/24/11
f 11/31/19 17/38/25 25/5/26 12/8/5
f 19/9/6 14/12/9 16/34/4 26/39/27
f 27/40/21 28/32/20 12/8/5 16/7/4
f 1/21/14 11/31/19 28/32/20 21/22/15
f 14/12/9 5/11/8 22/23/16 27/33/21
f 7/35/22 17/38/25 11/31/19 1/21/14
f 2/41/28 4/42/28 22/36/16 21/22/15
f 10/43/13 8/44/13 23/19/13 24/45/13
f 8/44/13 18/2/13 25/20/13 23/19/13
f 20/1/13 10/43/13 24/45/13 26/46/13
f 18/2/13 20/1/13 26/46/13 25/20/13
f 15/30/28 13/29/28 28/32/20 27/40/21
f 13/29/28 2/41/28 21/22/15 28/32/20
f 4/42/28 15/30/28 27/40/21 22/36/16
f 18/47/29 8/48/29 40/49/30 38/50/30
f 8/44/31 10/43/31 33/51/32 40/52/32
f 34/53/33 36/54/33 15/55/34 4/56/34
f 39/57/35 34/58/35 4/42/36 2/41/36
f 37/59/37 39/60/37 2/61/38 13/62/38
f 34/58/35 39/57/35 40/49/32 33/63/32
f 39/57/37 37/28/37 38/50/30 40/49/30
f 36/27/33 34/58/33 33/63/39 35/64/39
f 37/28/17 36/27/17 35/64/2 38/50/2
f 10/65/40 20/66/40 35/67/39 33/68/39
f 45/69/41 50/70/42 53/71/43 56/72/44
f 67/73/45 66/74/46 89/75/47 82/76/48
f 84/77/49 69/78/50 47/79/51 46/80/52
f 51/81/53 48/82/54 57/83/55 60/84/56
f 78/85/57 52/86/58 75/87/59 79/88/60
f 72/89/61 47/79/51 69/78/50 73/90/62
f 52/86/58 59/91/63 64/92/63 75/87/59
f 80/93/64 74/94/65 70/95/66 77/96/67
f 49/97/68 87/98/69 91/99/70 90/100/71
f 76/101/72 71/102/73 74/94/65 80/93/64
f 45/69/13 48/82/13 51/81/13 50/70/13
f 47/79/51 72/89/61 61/103/74 58/104/74
f 65/105/75 54/106/75 49/97/68 90/100/71
f 82/76/48 89/75/47 92/107/76 86/108/77
f 88/109/78 77/96/67 70/95/66 83/110/79
f 86/108/77 92/107/76 88/109/78 83/110/79
f 84/77/49 46/80/52 81/111/80 85/112/81
f 52/86/58 78/85/57 87/98/69 49/97/68
f 63/113/82 62/114/83 71/102/73 76/101/72
f 48/115/84 45/116/84 46/80/52 47/79/51
f 52/86/58 49/97/68 50/117/85 51/118/85
f 57/119/55 48/115/54 47/79/86 58/104/86
f 49/97/87 54/106/87 53/120/43 50/117/42
f 55/121/88 46/80/88 45/116/41 56/122/44
f 59/91/89 52/86/89 51/118/53 60/123/56
f 79/88/60 75/87/59 76/124/72 80/125/64
f 72/89/61 73/90/62 74/126/65 71/127/73
f 78/85/57 79/88/60 80/125/64 77/128/67
f 73/90/62 69/78/50 70/129/66 74/126/65
f 85/112/81 81/111/80 82/130/48 86/131/77
f 90/100/71 91/99/70 92/132/76 89/133/47
f 84/77/49 85/112/81 86/131/77 83/134/79
f 91/99/70 87/98/69 88/135/78 92/132/76
f 83/134/79 70/129/66 69/78/50 84/77/49
f 71/127/73 62/136/83 61/103/90 72/89/61
f 75/87/59 64/92/91 63/137/82 76/124/72
f 87/98/69 78/85/57 77/128/67 88/135/78
f 67/138/45 82/130/48 81/111/80 68/139/92
f 65/105/93 90/100/71 89/133/47 66/140/46
f 46/80/52 55/121/94 68/139/94 81/111/80
usemtl tiny_treats_1_GLASS
f 31/141/28 32/142/28 29/143/28 30/144/28
f 43/145/13 44/146/13 41/147/13 42/148/13
