# Blender v3.4.1 OBJ File: 'Tiny_Treats_Charming_Kitchen_ASSETS_EXPORT.blend'
# www.blender.org
mtllib wall_plain_kitchen_corner_outer.mtl
o wall_plain_kitchen_corner_outer
v 0.249420 0.000000 2.000000
v 0.249420 4.000000 2.000000
v 0.249709 0.000000 0.249710
v 0.249709 4.000000 0.249710
v -0.200348 0.000000 -0.200348
v -0.200348 4.000000 -0.200348
v -0.200696 0.000000 2.000000
v -0.200696 4.000000 2.000000
v 0.249709 2.100000 0.249710
v -0.200696 2.100000 2.000000
v -0.200348 2.100000 -0.200348
v 0.249420 2.100000 2.000000
v -0.250290 4.000000 -0.250289
v -0.250579 4.000000 2.000000
v -0.250290 2.160000 -0.250289
v -0.250579 2.160000 2.000000
v -0.200696 2.100000 2.000000
v 2.000000 0.000000 0.249418
v 2.000000 4.000000 0.249418
v 2.000000 0.000000 -0.200696
v 2.000000 4.000000 -0.200696
v 2.000000 2.100000 0.249418
v 2.000000 2.100000 -0.200696
v 2.000000 4.000000 -0.250580
v 2.000000 2.100000 -0.200696
v 2.000000 2.160000 -0.250580
vt 0.592756 0.783053
vt 0.544638 0.783053
vt 0.544638 0.783053
vt 0.592756 0.783053
vt 0.587296 0.845333
vt 0.587296 0.801116
vt 0.536103 0.801116
vt 0.536103 0.845333
vt 0.528515 0.943697
vt 0.597889 0.943697
vt 0.597889 0.943697
vt 0.528515 0.943697
vt 0.597889 0.912447
vt 0.597889 0.846542
vt 0.528515 0.846542
vt 0.528515 0.912447
vt 0.587296 0.801116
vt 0.587296 0.845333
vt 0.536103 0.845333
vt 0.536103 0.801116
vt 0.597889 0.912447
vt 0.597889 0.846542
vt 0.528515 0.846542
vt 0.597889 0.846542
vt 0.597889 0.848623
vt 0.597889 0.912447
vt 0.528515 0.912447
vt 0.528515 0.848623
vt 0.528515 0.943697
vt 0.597889 0.943697
vt 0.597889 0.817373
vt 0.528515 0.817373
vt 0.528515 0.815292
vt 0.597889 0.815292
vt 0.528515 0.912447
vt 0.592756 0.783053
vt 0.544638 0.783053
vt 0.544638 0.783053
vt 0.592756 0.783053
vt 0.587296 0.845333
vt 0.587296 0.801116
vt 0.536103 0.801116
vt 0.536103 0.845333
vt 0.528515 0.943697
vt 0.597889 0.943697
vt 0.597889 0.943697
vt 0.528515 0.943697
vt 0.536103 0.801116
vt 0.536103 0.845333
vt 0.528515 0.912447
vt 0.528515 0.846542
vt 0.528515 0.846542
vt 0.528515 0.912447
vt 0.597889 0.912447
vt 0.597889 0.846542
vt 0.587296 0.801116
vt 0.587296 0.845333
vt 0.597889 0.846542
vt 0.528515 0.846542
vt 0.597889 0.848623
vt 0.597889 0.912447
vt 0.528515 0.912447
vt 0.528515 0.848623
vt 0.528515 0.943697
vt 0.597889 0.943697
vt 0.597889 0.817373
vt 0.528515 0.817373
vt 0.528515 0.815292
vt 0.597889 0.815292
vn 0.0000 -1.0000 0.0000
vn 1.0000 0.0000 0.0002
vn 0.0000 1.0000 -0.0000
vn -1.0000 0.0000 -0.0002
vn 0.0000 0.0000 1.0000
vn -1.0000 0.0000 -0.0001
vn -0.7687 -0.6396 -0.0001
vn 0.7071 -0.0000 -0.7071
vn 0.0002 0.0000 1.0000
vn 1.0000 0.0000 0.0000
vn -0.0002 0.0000 -1.0000
vn -0.0001 0.0000 -1.0000
vn -0.0001 -0.6396 -0.7687
usemtl tiny_treats_1
s 1
f 7/1/1 5/2/1 3/3/1 1/4/1
f 12/5/2 1/6/2 3/7/2 9/8/2
f 6/9/3 8/10/3 2/11/3 4/12/3
f 2/13/2 12/14/2 9/15/2 4/16/2
f 7/17/4 10/18/4 11/19/4 5/20/4
f 2/13/5 8/21/5 10/22/5 12/14/5
f 7/17/5 1/6/5 12/5/5 10/18/5
f 11/23/5 10/22/5 17/24/5
f 16/25/6 14/26/6 13/27/6 15/28/6
f 8/10/3 6/9/3 13/29/3 14/30/3
f 10/22/5 8/21/5 14/26/5 16/25/5 17/24/5
f 16/31/7 15/32/7 11/33/7 17/34/7
f 6/35/8 11/23/8 15/28/8 13/27/8
f 5/36/1 20/37/1 18/38/1 3/39/1
f 9/40/9 3/41/9 18/42/9 22/43/9
f 21/44/3 6/45/3 4/46/3 19/47/3
f 20/48/10 23/49/10 22/43/10 18/42/10
f 19/50/10 22/51/10 23/52/10 21/53/10
f 4/54/9 9/55/9 22/51/9 19/50/9
f 5/56/11 11/57/11 23/49/11 20/48/11
f 23/52/5 11/58/5 25/59/5
f 15/60/12 13/61/12 24/62/12 26/63/12
f 6/45/3 21/44/3 24/64/3 13/65/3
f 15/66/13 26/67/13 25/68/13 11/69/13
f 21/53/10 23/52/10 25/59/10 26/63/10 24/62/10
