# Blender v3.4.1 OBJ File: 'Tiny_Treats_Charming_Kitchen_ASSETS_EXPORT.blend'
# www.blender.org
mtllib wall_plain_kitchen_window.mtl
o wall_plain_kitchen_window
v 1.000000 0.000000 -0.249194
v 1.000000 -0.000000 0.200807
v 1.000000 4.000000 -0.249194
v 1.000000 4.000000 0.200806
v -1.000000 0.000000 0.200806
v -1.000000 4.000000 -0.249194
v -1.000000 0.000000 -0.249194
v -1.000000 4.000000 0.200806
v 0.740000 3.000000 0.200806
v 0.740000 3.000000 -0.249194
v -0.740000 3.000000 0.200806
v -0.740000 3.000000 -0.249194
v 0.740000 1.000000 0.200806
v 0.740000 1.000000 -0.249194
v -0.740000 1.000000 0.200806
v -0.740000 1.000000 -0.249194
v 0.740000 2.100000 0.200806
v 0.740000 2.100000 -0.249194
v -0.740000 2.100000 0.200806
v -0.740000 2.100000 -0.249194
v -0.800000 0.975000 0.250806
v -0.800000 1.025000 0.300806
v -0.850000 1.025000 0.250806
v -0.800000 1.175000 0.300806
v -0.800000 1.225000 0.250806
v -0.850000 1.175000 0.250806
v -0.800000 0.975000 -0.249194
v -0.850000 1.025000 -0.249194
v -0.800000 1.025000 -0.299194
v -0.800000 1.225000 -0.249194
v -0.800000 1.175000 -0.299194
v -0.850000 1.175000 -0.249194
v 0.800000 0.975000 0.250806
v 0.850000 1.025000 0.250806
v 0.800000 1.025000 0.300806
v 0.800000 1.225000 0.250806
v 0.800000 1.175000 0.300806
v 0.850000 1.175000 0.250806
v 0.800000 0.975000 -0.249194
v 0.800000 1.025000 -0.299194
v 0.850000 1.025000 -0.249194
v 0.800000 1.225000 -0.249194
v 0.850000 1.175000 -0.249194
v 0.800000 1.175000 -0.299194
v 0.740000 0.999999 0.150806
v -0.740000 0.999999 0.150806
v 0.740000 3.000000 0.150806
v -0.740000 3.000000 0.150806
v 0.540000 0.999999 0.150806
v -0.540000 0.999999 0.150806
v 0.540000 2.800000 0.150806
v -0.540000 2.800000 0.150806
v 0.740000 0.999999 -0.149194
v -0.740000 0.999999 -0.149194
v 0.740000 3.000000 -0.149194
v -0.740000 3.000000 -0.149194
v 0.540000 0.999999 -0.149194
v -0.540000 0.999999 -0.149194
v 0.540000 2.800000 -0.149194
v -0.540000 2.800000 -0.149194
v 1.000000 0.000000 0.200806
v 1.000000 2.100000 0.200806
v 1.000000 2.100000 -0.249194
v -1.000000 2.100000 -0.249194
v -1.000000 2.100000 0.200806
v -1.000000 4.000000 0.250806
v 1.000000 4.000000 0.250806
v 0.740000 3.000000 0.250806
v -0.740000 3.000000 0.250806
v 0.740000 2.160000 0.250806
v -0.740000 2.160000 0.250806
v -1.000000 2.160000 0.250806
v 1.000000 2.160000 0.250806
v -0.620000 1.190320 0.070806
v -0.620000 1.220320 0.100806
v -0.620000 1.360319 0.100806
v -0.620000 1.390320 0.070806
v -0.620000 1.190320 -0.069194
v -0.620000 1.220320 -0.099194
v -0.620000 1.390320 -0.069194
v -0.620000 1.360319 -0.099194
v 0.620000 1.190320 0.070806
v 0.620000 1.220320 0.100806
v 0.620000 1.390320 0.070806
v 0.620000 1.360319 0.100806
v 0.620000 1.190320 -0.069194
v 0.620000 1.220320 -0.099194
v 0.620000 1.390320 -0.069194
v 0.620000 1.360319 -0.099194
v -0.620000 2.000320 0.030806
v -0.620000 2.030319 0.060806
v -0.620000 2.170319 0.060806
v -0.620000 2.200320 0.030806
v -0.620000 2.000320 -0.029194
v -0.620000 2.030319 -0.059194
v -0.620000 2.200320 -0.029194
v -0.620000 2.170319 -0.059194
v 0.620000 2.000320 0.030806
v 0.620000 2.030319 0.060806
v 0.620000 2.200320 0.030806
v 0.620000 2.170319 0.060806
v 0.620000 2.000320 -0.029194
v 0.620000 2.030319 -0.059194
v 0.620000 2.200320 -0.029194
v 0.620000 2.170319 -0.059194
v -0.100000 2.820319 0.030806
v -0.070000 2.820319 0.060806
v 0.070000 2.820319 0.060806
v 0.100000 2.820319 0.030806
v -0.100000 2.820319 -0.029194
v -0.070000 2.820319 -0.059194
v 0.100000 2.820319 -0.029194
v 0.070000 2.820319 -0.059194
v -0.100000 1.380319 0.030806
v -0.070000 1.380319 0.060806
v 0.100000 1.380319 0.030806
v 0.070000 1.380319 0.060806
v -0.100000 1.380319 -0.029194
v -0.070000 1.380319 -0.059194
v 0.100000 1.380319 -0.029194
v 0.070000 1.380319 -0.059194
v 0.100000 2.000320 -0.029194
v -0.100000 2.000320 -0.029194
v 0.070000 2.030319 -0.059194
v -0.100000 2.200320 -0.029194
v 0.100000 2.200320 -0.029194
v 0.070000 2.170319 -0.059194
v -0.100000 2.000320 0.030806
v 0.100000 2.000320 0.030806
v 0.070000 2.030319 0.060806
v -0.070000 2.030319 0.060806
v 0.100000 2.200320 0.030806
v -0.070000 2.170319 -0.059194
v -0.070000 2.030319 -0.059194
v -0.100000 2.200319 0.030806
v -0.070000 2.170319 0.060806
v 0.070000 2.170319 0.060806
v -0.700000 1.150000 -0.004194
v 0.700000 1.150000 -0.004194
v -0.700000 2.850000 -0.004194
v 0.700000 2.850000 -0.004194
v 0.700000 1.150000 -0.044194
v -0.700000 1.150000 -0.044194
v 0.700000 2.850000 -0.044194
v -0.700000 2.850000 -0.044194
vt 0.597889 0.912447
vt 0.597889 0.846542
vt 0.588870 0.846542
vt 0.588870 0.877760
vt 0.550768 0.778090
vt 0.583098 0.778090
vt 0.583098 0.778090
vt 0.550768 0.778090
vt 0.543969 0.811706
vt 0.577006 0.811706
vt 0.577006 0.834006
vt 0.543969 0.834006
vt 0.543969 0.858828
vt 0.538165 0.858828
vt 0.597889 0.943697
vt 0.528515 0.943697
vt 0.528515 0.943697
vt 0.597889 0.943697
vt 0.537533 0.877760
vt 0.528515 0.912447
vt 0.588870 0.877760
vt 0.588870 0.846542
vt 0.588870 0.848623
vt 0.588870 0.877760
vt 0.577006 0.858828
vt 0.577006 0.858828
vt 0.577006 0.834006
vt 0.538165 0.897923
vt 0.538165 0.850800
vt 0.538165 0.850800
vt 0.538165 0.897923
vt 0.582809 0.811706
vt 0.582809 0.858828
vt 0.588870 0.846510
vt 0.588870 0.846510
vt 0.537533 0.846510
vt 0.537533 0.846510
vt 0.577006 0.873101
vt 0.543969 0.873101
vt 0.543969 0.873101
vt 0.577006 0.873101
vt 0.543969 0.834006
vt 0.543969 0.858828
vt 0.528515 0.912447
vt 0.528515 0.846542
vt 0.528515 0.848623
vt 0.528515 0.912447
vt 0.537533 0.877760
vt 0.537533 0.846542
vt 0.537533 0.846542
vt 0.528515 0.846542
vt 0.482823 0.877541
vt 0.482823 0.892785
vt 0.392177 0.892785
vt 0.392177 0.877541
vt 0.486060 0.877541
vt 0.486060 0.892785
vt 0.486060 0.892785
vt 0.486060 0.877541
vt 0.482823 0.929116
vt 0.392177 0.929116
vt 0.392177 0.929116
vt 0.482823 0.929116
vt 0.388940 0.877541
vt 0.388940 0.892785
vt 0.388940 0.892785
vt 0.388940 0.877541
vt 0.392177 0.877541
vt 0.392177 0.892785
vt 0.482823 0.892785
vt 0.482823 0.877541
vt 0.392177 0.856834
vt 0.392177 0.861916
vt 0.388940 0.861916
vt 0.392177 0.939660
vt 0.392177 0.944741
vt 0.388940 0.939660
vt 0.392177 0.856834
vt 0.388940 0.861916
vt 0.392177 0.861916
vt 0.392177 0.944741
vt 0.392177 0.939660
vt 0.388940 0.939660
vt 0.482823 0.856834
vt 0.486060 0.861916
vt 0.482823 0.861916
vt 0.482823 0.944741
vt 0.482823 0.939660
vt 0.486060 0.939660
vt 0.482823 0.856834
vt 0.482823 0.861916
vt 0.486060 0.861916
vt 0.482823 0.944741
vt 0.486060 0.939660
vt 0.482823 0.939660
vt 0.392177 0.893166
vt 0.392177 0.908410
vt 0.388940 0.908410
vt 0.388940 0.893166
vt 0.392177 0.908410
vt 0.392177 0.893166
vt 0.388940 0.893166
vt 0.388940 0.908410
vt 0.486060 0.908410
vt 0.486060 0.893166
vt 0.482823 0.893166
vt 0.482823 0.908410
vt 0.482823 0.908410
vt 0.482823 0.893166
vt 0.486060 0.893166
vt 0.486060 0.908410
vt 0.392177 0.841209
vt 0.482823 0.841209
vt 0.482823 0.841209
vt 0.392177 0.841209
vt 0.463655 0.937821
vt 0.458424 0.932595
vt 0.458424 0.890788
vt 0.463655 0.885562
vt 0.411345 0.937821
vt 0.411345 0.885562
vt 0.416576 0.890788
vt 0.416576 0.932595
vt 0.463655 0.937821
vt 0.463655 0.885562
vt 0.458424 0.890788
vt 0.458424 0.932595
vt 0.411345 0.937821
vt 0.416576 0.932595
vt 0.416576 0.890788
vt 0.411345 0.885562
vt 0.416576 0.901345
vt 0.416576 0.901345
vt 0.416576 0.859538
vt 0.416576 0.859538
vt 0.458424 0.859538
vt 0.458424 0.859538
vt 0.458424 0.901345
vt 0.458424 0.901345
vt 0.597889 0.912447
vt 0.597889 0.846542
vt 0.582809 0.811706
vt 0.582809 0.858828
vt 0.588778 0.848434
vt 0.588778 0.848434
vt 0.583098 0.848434
vt 0.577006 0.811706
vt 0.543969 0.811706
vt 0.538165 0.811706
vt 0.538165 0.858828
vt 0.537533 0.877760
vt 0.537533 0.848623
vt 0.597889 0.912447
vt 0.597889 0.848623
vt 0.528515 0.815292
vt 0.537533 0.815292
vt 0.537533 0.817373
vt 0.528515 0.817373
vt 0.588870 0.846510
vt 0.537533 0.846510
vt 0.588870 0.815292
vt 0.597889 0.815292
vt 0.597889 0.817373
vt 0.588870 0.817373
vt 0.528515 0.943697
vt 0.597889 0.943697
vt 0.484964 0.867836
vt 0.484964 0.885395
vt 0.390036 0.885395
vt 0.390036 0.867836
vt 0.484964 0.920408
vt 0.390036 0.920408
vt 0.390036 0.920408
vt 0.484964 0.920408
vt 0.390036 0.867836
vt 0.390036 0.885395
vt 0.484964 0.885395
vt 0.484964 0.867836
vt 0.484964 0.848448
vt 0.390036 0.848448
vt 0.390036 0.852211
vt 0.484964 0.852211
vt 0.390036 0.936033
vt 0.484964 0.936033
vt 0.484964 0.932270
vt 0.390036 0.932270
vt 0.390036 0.848449
vt 0.484964 0.848449
vt 0.484964 0.852211
vt 0.390036 0.852211
vt 0.484964 0.936033
vt 0.390036 0.936033
vt 0.390036 0.932270
vt 0.484964 0.932270
vt 0.390036 0.832823
vt 0.484964 0.832823
vt 0.484964 0.832824
vt 0.390036 0.832824
vt 0.421679 0.867836
vt 0.421679 0.885395
vt 0.390036 0.885395
vt 0.390036 0.867836
vt 0.421679 0.920408
vt 0.390036 0.920408
vt 0.390036 0.920408
vt 0.421679 0.920408
vt 0.453321 0.867836
vt 0.453321 0.885395
vt 0.484964 0.885395
vt 0.484964 0.867836
vt 0.421679 0.848448
vt 0.390036 0.848448
vt 0.390036 0.852211
vt 0.421679 0.852211
vt 0.453321 0.936033
vt 0.484964 0.936033
vt 0.484964 0.932270
vt 0.453321 0.932270
vt 0.453321 0.848449
vt 0.484964 0.848449
vt 0.484964 0.852211
vt 0.453321 0.852211
vt 0.421679 0.936033
vt 0.390036 0.936033
vt 0.390036 0.932270
vt 0.421679 0.932270
vt 0.453321 0.832823
vt 0.484964 0.832823
vt 0.484964 0.832824
vt 0.453321 0.832824
vt 0.421679 0.867836
vt 0.421679 0.885395
vt 0.390036 0.885395
vt 0.390036 0.867836
vt 0.421679 0.920408
vt 0.390036 0.920408
vt 0.390036 0.920408
vt 0.421679 0.920408
vt 0.453321 0.867836
vt 0.453321 0.885395
vt 0.484964 0.885395
vt 0.484964 0.867836
vt 0.421679 0.848448
vt 0.390036 0.848448
vt 0.390036 0.852211
vt 0.421679 0.852211
vt 0.453321 0.936033
vt 0.484964 0.936033
vt 0.484964 0.932270
vt 0.453321 0.932270
vt 0.453321 0.848449
vt 0.484964 0.848449
vt 0.484964 0.852211
vt 0.453321 0.852211
vt 0.421679 0.936033
vt 0.390036 0.936033
vt 0.390036 0.932270
vt 0.421679 0.932270
vt 0.453321 0.832823
vt 0.484964 0.832823
vt 0.484964 0.832824
vt 0.453321 0.832824
vt 0.390036 0.832823
vt 0.421679 0.832823
vt 0.421679 0.832824
vt 0.390036 0.832824
vt 0.484964 0.936033
vt 0.453321 0.936033
vt 0.453321 0.932270
vt 0.484964 0.932270
vt 0.390036 0.848449
vt 0.421679 0.848448
vt 0.421679 0.852211
vt 0.390036 0.852211
vt 0.390036 0.936033
vt 0.421679 0.936033
vt 0.421679 0.932270
vt 0.390036 0.932270
vt 0.484964 0.848448
vt 0.453321 0.848448
vt 0.453321 0.852211
vt 0.484964 0.852211
vt 0.390036 0.867836
vt 0.390036 0.885395
vt 0.421679 0.885395
vt 0.421679 0.867836
vt 0.484964 0.920408
vt 0.453321 0.920408
vt 0.453321 0.920408
vt 0.484964 0.920408
vt 0.484964 0.867836
vt 0.484964 0.885395
vt 0.453321 0.885395
vt 0.453321 0.867836
vt 0.390036 0.832823
vt 0.421679 0.832823
vt 0.421679 0.832824
vt 0.390036 0.832824
vt 0.484964 0.936033
vt 0.453321 0.936033
vt 0.453321 0.932270
vt 0.484964 0.932270
vt 0.390036 0.848449
vt 0.421679 0.848448
vt 0.421679 0.852211
vt 0.390036 0.852211
vt 0.390036 0.936033
vt 0.421679 0.936033
vt 0.421679 0.932270
vt 0.390036 0.932270
vt 0.484964 0.848448
vt 0.453321 0.848448
vt 0.453321 0.852211
vt 0.484964 0.852211
vt 0.390036 0.867836
vt 0.390036 0.885395
vt 0.421679 0.885395
vt 0.421679 0.867836
vt 0.484964 0.920408
vt 0.453321 0.920408
vt 0.453321 0.920408
vt 0.484964 0.920408
vt 0.484964 0.867836
vt 0.484964 0.885395
vt 0.453321 0.885395
vt 0.453321 0.867836
vt 0.764993 0.014993
vt 0.985007 0.014993
vt 0.985007 0.235007
vt 0.764993 0.235007
vt 0.764993 0.014993
vt 0.985007 0.014993
vt 0.985007 0.235007
vt 0.764993 0.235007
vn 0.0000 0.0000 -1.0000
vn -0.0000 -1.0000 -0.0000
vn 0.1022 -0.9948 -0.0000
vn -0.0000 0.0000 1.0000
vn -0.0000 -0.3404 0.9403
vn 0.0000 1.0000 0.0000
vn -1.0000 0.0000 0.0000
vn 1.0000 0.0000 0.0000
vn 0.3416 -0.3416 0.8756
vn 0.3416 0.3416 0.8756
vn -0.3416 0.3416 0.8756
vn -0.3416 -0.3416 0.8756
vn 0.8756 -0.3416 -0.3416
vn 0.8756 0.3416 -0.3416
vn 0.8756 0.3416 0.3416
vn 0.8756 -0.3416 0.3416
vn -0.3416 0.8756 -0.3416
vn -0.3416 0.8756 0.3416
vn -0.8756 -0.3416 0.3416
vn -0.8756 0.3416 0.3416
vn -0.8756 0.3416 -0.3416
vn -0.8756 -0.3416 -0.3416
vn -0.3416 -0.3416 -0.8756
vn -0.3416 0.3416 -0.8756
vn 0.3416 0.3416 -0.8756
vn 0.3416 -0.3416 -0.8756
vn -0.3416 -0.8756 0.3416
vn -0.3416 -0.8756 -0.3416
vn 0.4606 -0.7588 0.4606
vn 0.4606 0.7588 0.4606
vn 0.4606 -0.7588 -0.4606
vn 0.4606 0.7588 -0.4606
vn 0.4104 -0.9119 -0.0000
vn 0.0000 -0.6402 0.7682
vn 0.0000 0.3827 0.9239
vn 0.0000 0.3827 -0.9239
vn 0.0000 -0.9239 -0.3827
vn 0.0000 -0.7071 -0.7071
vn 0.0000 0.7071 -0.7071
vn 0.0000 -0.9239 0.3827
vn 0.0000 -0.7071 0.7071
vn 0.0000 0.7071 0.7071
vn 0.0000 0.1244 0.9922
vn 0.1244 0.0000 -0.9922
vn 0.1100 0.1101 -0.9878
vn -0.0000 -0.8959 -0.4444
vn 0.0000 -0.8959 0.4444
vn 0.1100 0.1101 0.9878
vn 0.3827 -0.0000 0.9239
vn 0.3827 0.0000 -0.9239
vn -0.7071 0.0000 -0.7071
vn 0.7071 0.0000 -0.7071
vn -0.8959 -0.0000 0.4444
vn -0.9239 -0.0000 0.3827
vn -0.7071 -0.0000 0.7071
vn 0.7071 -0.0000 0.7071
vn -0.8959 -0.0000 -0.4444
vn -0.9239 -0.0000 -0.3827
vn -0.0000 0.1244 -0.9922
vn 0.1244 -0.0000 0.9922
usemtl tiny_treats_1
s 1
f 3/1/1 63/2/1 18/3/1 10/4/1
f 7/5/2 1/6/2 2/7/3 5/8/2
f 5/9/4 2/10/4 13/11/4 15/12/4
f 5/9/4 15/12/4 19/13/5 65/14/5
f 3/15/6 6/16/6 8/17/6 4/18/6
f 3/1/1 10/4/1 12/19/1 6/20/1
f 9/21/7 17/22/7 70/23/7 68/24/7
f 17/25/7 18/26/7 14/27/7 13/11/7
f 64/28/7 7/29/7 5/30/7 65/31/7
f 61/32/4 62/33/5 17/25/5 13/11/4 2/10/4
f 10/34/2 9/35/2 11/36/2 12/37/2
f 14/38/6 16/39/6 15/40/6 13/41/6
f 19/13/8 15/12/8 16/42/8 20/43/8
f 8/44/7 65/45/7 72/46/7 66/47/7
f 9/21/7 10/4/7 18/3/7 17/22/7
f 11/48/8 19/49/8 20/50/8 12/19/8
f 6/20/1 12/19/1 20/50/1 64/51/1
f 35/52/9 37/53/10 24/54/11 22/55/12
f 41/56/13 43/57/14 38/58/15 34/59/16
f 42/60/6 30/61/17 25/62/18 36/63/6
f 23/64/19 26/65/20 32/66/21 28/67/22
f 29/68/23 31/69/24 44/70/25 40/71/26
f 21/72/27 22/73/12 23/74/19
f 24/75/11 25/76/18 26/77/20
f 27/78/28 28/79/22 29/80/23
f 30/81/17 31/82/24 32/83/21
f 33/84/29 34/85/16 35/86/9
f 36/87/30 37/88/10 38/89/15
f 39/90/31 40/91/26 41/92/13
f 42/93/32 43/94/14 44/95/25
f 27/78/28 21/72/27 23/74/19 28/79/22
f 22/96/12 24/97/11 26/98/20 23/99/19
f 25/76/18 30/81/17 32/83/21 26/77/20
f 31/100/24 29/101/23 28/102/22 32/103/21
f 39/90/31 27/78/28 29/80/23 40/91/26
f 30/81/17 42/93/32 44/95/25 31/82/24
f 43/104/14 41/105/13 40/106/26 44/107/25
f 33/84/29 39/90/31 41/92/13 34/85/16
f 42/93/32 36/87/30 38/89/15 43/94/14
f 37/108/10 35/109/9 34/110/16 38/111/15
f 21/72/27 33/84/29 35/86/9 22/73/12
f 36/87/30 25/76/18 24/75/11 37/88/10
f 27/112/28 39/113/2 33/114/2 21/115/27
f 47/116/4 51/117/4 49/118/4 45/119/4
f 48/120/4 46/121/4 50/122/4 52/123/4
f 48/120/4 52/123/4 51/117/4 47/116/4
f 55/124/1 53/125/1 57/126/1 59/127/1
f 56/128/1 60/129/1 58/130/1 54/131/1
f 56/128/1 55/124/1 59/127/1 60/129/1
f 60/132/8 52/133/8 50/134/8 58/135/8
f 57/136/7 49/137/7 51/138/7 59/139/7
f 59/139/2 51/138/2 52/133/2 60/132/2
f 4/140/8 62/141/8 63/2/8 3/1/8
f 62/33/8 61/32/8 1/142/8 63/143/8
f 1/144/2 61/145/33 2/146/3
f 1/147/1 7/148/1 16/42/1 14/27/1
f 65/45/7 8/44/7 6/20/7 64/51/7
f 7/149/1 64/150/1 20/43/1 16/42/1
f 1/147/1 14/27/1 18/26/1 63/143/1
f 19/49/8 11/48/8 69/151/8 71/152/8
f 66/47/4 69/151/4 68/24/4 67/153/4
f 67/153/4 68/24/4 70/23/4 73/154/4
f 66/47/4 72/46/4 71/152/4 69/151/4
f 65/155/5 19/156/5 71/157/34 72/158/34
f 11/36/2 9/35/2 68/159/2 69/160/2
f 17/161/5 62/162/5 73/163/34 70/164/34
f 62/141/8 4/140/8 67/153/8 73/154/8
f 4/18/6 8/17/6 66/165/6 67/166/6
f 83/167/4 85/168/35 76/169/35 75/170/4
f 88/171/6 80/172/6 77/173/6 84/174/6
f 79/175/1 81/176/36 89/177/36 87/178/1
f 86/179/37 78/180/37 79/181/38 87/182/38
f 80/183/39 88/184/39 89/185/36 81/186/36
f 74/187/40 82/188/40 83/189/41 75/190/41
f 84/191/42 77/192/42 76/193/35 85/194/35
f 78/195/37 86/196/37 82/197/40 74/198/40
f 131/199/4 136/200/43 92/201/35 91/202/4
f 125/203/6 96/204/6 93/205/6 135/206/6
f 124/207/44 127/208/45 105/209/36 103/210/1
f 123/211/46 94/212/37 95/213/38 134/214/38
f 126/215/39 104/216/39 105/217/36 127/218/45
f 129/219/47 98/220/40 99/221/41 130/222/41
f 135/223/42 93/224/42 92/225/35 136/226/43
f 122/227/46 102/228/37 98/229/40 129/230/47
f 136/231/43 137/232/48 108/233/49 107/234/4
f 126/235/8 112/236/8 109/237/8 132/238/8
f 134/239/1 124/240/44 121/241/50 119/242/1
f 125/243/51 110/244/51 111/245/51 133/246/51
f 122/247/52 120/248/52 121/249/50 124/250/44
f 128/251/53 114/252/54 115/253/55 131/254/55
f 132/255/56 109/256/56 108/257/49 137/258/48
f 123/259/57 118/260/58 114/261/54 128/262/53
f 94/263/37 123/264/46 128/265/47 90/266/40
f 100/267/42 132/268/42 137/269/48 101/270/35
f 90/271/40 128/272/47 131/273/41 91/274/41
f 96/275/39 125/276/39 133/277/59 97/278/36
f 102/279/37 122/280/46 124/281/38 103/282/38
f 95/283/1 97/284/36 133/285/59 134/286/1
f 134/286/1 133/285/59 127/208/45 124/207/44
f 104/287/6 126/288/6 132/289/6 100/290/6
f 99/291/4 101/292/35 137/293/48 130/294/60
f 130/294/60 137/293/48 136/200/43 131/199/4
f 110/295/7 125/296/7 135/297/53 106/298/54
f 116/299/56 129/300/56 130/301/60 117/302/49
f 106/303/54 135/304/53 136/305/55 107/306/55
f 112/307/52 126/308/52 127/309/45 113/310/50
f 118/311/58 123/312/57 134/313/51 119/314/51
f 111/315/1 113/316/50 127/317/45 133/318/59
f 120/319/8 122/320/8 129/321/8 116/322/8
f 115/323/4 117/324/49 130/325/60 131/326/4
usemtl tiny_treats_1_GLASS
f 138/327/4 139/328/4 141/329/4 140/330/4
f 142/331/1 143/332/1 145/333/1 144/334/1
