# Blender v3.4.1 OBJ File: 'Tiny_Treats_Charming_Kitchen_ASSETS_EXPORT.blend'
# www.blender.org
mtllib wall_plain_kitchen_corner_inner.mtl
o wall_plain_kitchen_corner_inner
v 2.000000 0.000000 -0.249420
v 2.000000 4.000000 -0.249420
v -0.249710 0.000000 -0.249709
v -0.249710 4.000000 -0.249709
v 0.200348 0.000000 0.200348
v 0.200000 4.000000 0.200696
v 2.000000 0.000000 0.200695
v 2.000000 4.000000 0.200695
v -0.249710 2.100000 -0.249709
v 2.000000 2.100000 0.200695
v 0.200348 2.100000 0.200348
v 2.000000 2.100000 -0.249420
v 0.250000 4.000000 0.250580
v 2.000000 4.000000 0.250579
v 0.250290 2.160000 0.250290
v 2.000000 2.160000 0.250579
v 2.000000 2.100000 0.200695
v -0.249419 0.000000 2.000000
v -0.249419 4.000000 2.000000
v 0.200696 0.000000 2.000000
v 0.200696 4.000000 2.000000
v 0.200695 4.000000 0.200000
v -0.249419 2.100000 2.000000
v 0.200696 2.100000 2.000000
v 0.250580 4.000000 2.000000
v 0.250579 4.000000 0.250000
v 0.200696 2.100000 2.000000
v 0.250580 2.160000 2.000000
vt 0.592756 0.783053
vt 0.544638 0.783053
vt 0.544638 0.783053
vt 0.592756 0.783053
vt 0.587296 0.845333
vt 0.587296 0.801116
vt 0.536103 0.801116
vt 0.536103 0.845333
vt 0.528515 0.943697
vt 0.597889 0.943697
vt 0.597889 0.943697
vt 0.528515 0.943697
vt 0.597889 0.912447
vt 0.597889 0.846542
vt 0.528515 0.846542
vt 0.528515 0.912447
vt 0.587296 0.801116
vt 0.587296 0.845333
vt 0.536103 0.845333
vt 0.536103 0.801116
vt 0.597889 0.912447
vt 0.597889 0.846542
vt 0.528515 0.846542
vt 0.597889 0.846542
vt 0.597889 0.848623
vt 0.597889 0.912447
vt 0.528515 0.912447
vt 0.528515 0.848623
vt 0.528515 0.943697
vt 0.597889 0.943697
vt 0.597889 0.817373
vt 0.528515 0.817373
vt 0.528515 0.815292
vt 0.597889 0.815292
vt 0.528515 0.912447
vt 0.592756 0.783053
vt 0.544638 0.783053
vt 0.544638 0.783053
vt 0.592756 0.783053
vt 0.587296 0.845333
vt 0.587296 0.801116
vt 0.536103 0.801116
vt 0.536103 0.845333
vt 0.528515 0.943697
vt 0.597889 0.943697
vt 0.597889 0.943697
vt 0.528515 0.943697
vt 0.536103 0.801116
vt 0.536103 0.845333
vt 0.528515 0.912447
vt 0.528515 0.846542
vt 0.528515 0.846542
vt 0.528515 0.912447
vt 0.597889 0.912447
vt 0.597889 0.846542
vt 0.587296 0.801116
vt 0.587296 0.845333
vt 0.597889 0.846542
vt 0.528515 0.846542
vt 0.597889 0.848623
vt 0.597889 0.912447
vt 0.528515 0.912447
vt 0.528515 0.848623
vt 0.528515 0.943697
vt 0.597889 0.943697
vt 0.597889 0.912447
vt 0.597889 0.817373
vt 0.528515 0.817373
vt 0.528515 0.815292
vt 0.597889 0.815292
vn 0.0000 -1.0000 0.0000
vn 0.0001 0.0000 -1.0000
vn 0.0000 1.0000 0.0000
vn -0.0002 0.0000 1.0000
vn -0.0001 0.0000 1.0000
vn -0.0002 -0.2639 0.9645
vn 1.0000 0.0000 0.0000
vn -0.0001 -0.3400 0.9404
vn -0.0001 -0.0001 1.0000
vn -0.3824 -0.0002 0.9240
vn -0.4511 -0.0002 0.8925
vn -0.0001 -0.6395 0.7688
vn -0.7066 -0.0002 0.7076
vn -1.0000 0.0000 0.0001
vn -0.0000 0.0000 1.0000
vn 1.0000 0.0000 -0.0002
vn 0.8925 -0.0002 -0.4511
vn 0.9240 -0.0002 -0.3824
vn 1.0000 -0.0001 -0.0001
vn 0.7076 -0.0002 -0.7066
vn 0.7688 -0.6395 -0.0001
usemtl tiny_treats_1
s 1
f 7/1/1 5/2/1 3/3/1 1/4/1
f 12/5/2 1/6/2 3/7/2 9/8/2
f 6/9/3 8/10/3 2/11/3 4/12/3
f 2/13/2 12/14/2 9/15/2 4/16/2
f 7/17/4 10/18/5 11/19/6 5/20/4
f 2/13/7 8/21/7 10/22/7 12/14/7
f 7/17/7 1/6/7 12/5/7 10/18/7
f 11/23/6 10/22/5 17/24/8
f 16/25/9 14/26/9 13/27/10 15/28/11
f 8/10/3 6/9/3 13/29/3 14/30/3
f 10/22/7 8/21/7 14/26/7 16/25/7 17/24/7
f 16/31/12 15/32/12 11/33/6 17/34/8
f 6/35/13 11/23/13 15/28/11 13/27/10
f 5/36/1 20/37/1 18/38/1 3/39/1
f 9/40/14 3/41/14 18/42/14 23/43/14
f 21/44/3 22/45/3 4/46/3 19/47/3
f 20/48/15 24/49/15 23/43/15 18/42/15
f 19/50/15 23/51/15 24/52/15 21/53/15
f 4/54/14 9/55/14 23/51/14 19/50/14
f 5/56/16 11/57/16 24/49/16 20/48/16
f 24/52/15 11/58/15 27/59/15
f 15/60/17 26/61/18 25/62/19 28/63/19
f 22/45/3 21/44/3 25/64/3 26/65/3
f 11/58/20 22/66/20 26/61/18 15/60/17
f 15/67/21 28/68/21 27/69/21 11/70/21
f 21/53/15 24/52/15 27/59/15 28/63/15 25/62/15
