# Blender v3.4.1 OBJ File: 'Tiny_Treats_Charming_Kitchen_ASSETS_EXPORT.blend'
# www.blender.org
mtllib wall_cabinet_single_right.mtl
o wall_cabinet_single_right
v 0.449999 0.000000 0.740348
v 0.449999 0.050000 0.792000
v 0.499999 0.050000 0.740348
v 0.449999 0.950000 0.792000
v 0.449999 1.000000 0.740348
v 0.499999 0.950000 0.740348
v 0.449999 0.000000 -0.000000
v 0.499999 0.050000 -0.000000
v 0.449999 1.000000 -0.000000
v 0.499999 0.950000 -0.000000
v -0.450001 0.000000 0.740348
v -0.500001 0.050000 0.740348
v -0.450001 0.050000 0.792000
v -0.450001 1.000000 0.740348
v -0.450001 0.950000 0.792000
v -0.500001 0.950000 0.740348
v -0.450001 0.000000 -0.000000
v -0.500001 0.050000 -0.000000
v -0.450001 1.000000 -0.000000
v -0.500001 0.950000 -0.000000
v 0.419998 0.099999 0.864313
v 0.419998 0.129999 0.895304
v 0.449998 0.129999 0.864313
v 0.419998 0.869999 0.895304
v 0.419998 0.899999 0.864313
v 0.449998 0.869999 0.864313
v 0.419998 0.099999 0.792000
v 0.449998 0.129999 0.792000
v 0.449998 0.869999 0.792000
v 0.419998 0.899999 0.792000
v -0.420002 0.099999 0.864313
v -0.450002 0.129999 0.864313
v -0.420002 0.129999 0.895304
v -0.420002 0.899999 0.864313
v -0.420002 0.869999 0.895304
v -0.450002 0.869999 0.864313
v -0.450002 0.129999 0.792000
v -0.420002 0.899999 0.792000
v -0.450002 0.869999 0.792000
v -0.420002 0.099999 0.792000
v -0.121570 0.227148 0.974098
v -0.121570 0.272849 0.974098
v -0.278433 0.227148 0.974098
v -0.278433 0.272849 0.974098
v -0.244551 0.227148 0.930345
v -0.155453 0.227148 0.930345
v -0.155453 0.272849 0.930345
v -0.244551 0.272849 0.930345
v -0.066355 0.272849 0.895303
v -0.066355 0.227148 0.895303
v -0.117178 0.227148 0.895303
v -0.282825 0.272849 0.895303
v -0.333649 0.272849 0.895303
v -0.333649 0.227148 0.895303
v -0.282825 0.227148 0.895303
v -0.117178 0.272849 0.895303
v -0.115218 0.249999 0.982301
v -0.284786 0.249999 0.982301
v -0.200002 0.227148 0.940251
v -0.200002 0.272849 0.940251
v -0.200002 0.227148 0.990566
v -0.200002 0.272849 0.990566
v -0.161806 0.249999 0.922142
v -0.238198 0.249999 0.922142
v -0.056825 0.249999 0.895303
v -0.091767 0.218579 0.895303
v -0.308237 0.281418 0.895303
v -0.343178 0.249999 0.895303
v -0.308237 0.218579 0.895303
v -0.091767 0.281418 0.895303
v -0.126708 0.249999 0.895303
v -0.273296 0.249999 0.895303
v -0.278041 0.227148 0.902281
v -0.326747 0.227148 0.927439
v -0.326747 0.272849 0.927439
v -0.121963 0.227148 0.902281
v -0.121963 0.272849 0.902281
v -0.073257 0.227148 0.927439
v -0.278041 0.272849 0.902281
v -0.073257 0.272849 0.927439
v -0.138512 0.281418 0.952222
v -0.138512 0.218579 0.952222
v -0.261492 0.281418 0.952222
v -0.261492 0.218579 0.952222
v -0.097610 0.218579 0.914860
v -0.302394 0.218579 0.914860
v -0.097610 0.281418 0.914860
v -0.200002 0.281418 0.965408
v -0.200002 0.218579 0.965408
v -0.200002 0.249999 1.000000
v -0.200002 0.249999 0.930816
v -0.131095 0.249999 0.897564
v -0.268909 0.249999 0.897564
v -0.302394 0.281418 0.914860
v -0.335879 0.249999 0.932156
v -0.064124 0.249999 0.932156
vt 0.722412 0.858463
vt 0.652588 0.858463
vt 0.652588 0.891537
vt 0.722412 0.891537
vt 0.724249 0.858463
vt 0.724249 0.858463
vt 0.724249 0.891537
vt 0.724249 0.891537
vt 0.722412 0.924625
vt 0.722412 0.924625
vt 0.652588 0.924625
vt 0.652588 0.924625
vt 0.650751 0.858463
vt 0.650751 0.858463
vt 0.650751 0.891537
vt 0.650751 0.891537
vt 0.722412 0.825376
vt 0.652588 0.825376
vt 0.652588 0.825376
vt 0.650751 0.827213
vt 0.652588 0.827213
vt 0.652588 0.922787
vt 0.650751 0.922787
vt 0.650751 0.827213
vt 0.722412 0.825376
vt 0.722412 0.827213
vt 0.724249 0.827213
vt 0.724249 0.922787
vt 0.722412 0.922787
vt 0.724249 0.922787
vt 0.650751 0.922787
vt 0.724249 0.827213
vt 0.459069 0.880938
vt 0.415930 0.880938
vt 0.415930 0.893263
vt 0.459069 0.893263
vt 0.459069 0.915388
vt 0.459069 0.915388
vt 0.415930 0.915388
vt 0.415930 0.915388
vt 0.414389 0.880938
vt 0.414389 0.880938
vt 0.414389 0.893263
vt 0.414389 0.893263
vt 0.460610 0.880938
vt 0.460610 0.880938
vt 0.460610 0.893263
vt 0.460610 0.893263
vt 0.415930 0.858814
vt 0.414389 0.860354
vt 0.415930 0.860354
vt 0.415930 0.913847
vt 0.414389 0.913847
vt 0.459069 0.858814
vt 0.459069 0.860354
vt 0.460610 0.860354
vt 0.460610 0.913847
vt 0.459069 0.913847
vt 0.415930 0.858814
vt 0.414389 0.860354
vt 0.414389 0.913847
vt 0.460610 0.860354
vt 0.459069 0.858814
vt 0.460610 0.913847
vt 0.285321 0.852482
vt 0.289491 0.849897
vt 0.279424 0.849897
vt 0.273430 0.852482
vt 0.277986 0.849897
vt 0.271732 0.852482
vt 0.285418 0.852482
vt 0.284240 0.852482
vt 0.293660 0.852482
vt 0.331340 0.852482
vt 0.335509 0.849897
vt 0.345576 0.849897
vt 0.339582 0.852482
vt 0.347014 0.849897
vt 0.340760 0.852482
vt 0.351570 0.852482
vt 0.353268 0.852482
vt 0.339679 0.852482
vt 0.293660 0.928768
vt 0.289491 0.931353
vt 0.279424 0.931353
vt 0.285418 0.928768
vt 0.277986 0.931353
vt 0.284240 0.928768
vt 0.273430 0.928768
vt 0.271732 0.928768
vt 0.285321 0.928768
vt 0.331340 0.928768
vt 0.335509 0.931353
vt 0.312500 0.931353
vt 0.312500 0.928768
vt 0.312500 0.928768
vt 0.339679 0.928768
vt 0.312500 0.849897
vt 0.312500 0.852482
vt 0.312500 0.852482
vt 0.339679 0.897518
vt 0.341242 0.890625
vt 0.312500 0.890625
vt 0.312500 0.897518
vt 0.283758 0.890625
vt 0.285321 0.897518
vt 0.312500 0.883732
vt 0.285321 0.883732
vt 0.339679 0.883732
vt 0.293660 0.883732
vt 0.312500 0.883732
vt 0.312500 0.890625
vt 0.295224 0.890625
vt 0.312500 0.897518
vt 0.293660 0.897518
vt 0.329776 0.890625
vt 0.331340 0.897518
vt 0.331340 0.883732
vt 0.285418 0.897518
vt 0.287665 0.890625
vt 0.285418 0.883732
vt 0.286585 0.890625
vt 0.284240 0.883732
vt 0.284240 0.897518
vt 0.339582 0.883732
vt 0.337335 0.890625
vt 0.339582 0.897518
vt 0.338415 0.890625
vt 0.340760 0.897518
vt 0.340760 0.883732
vt 0.345576 0.931353
vt 0.351570 0.928768
vt 0.347014 0.931353
vt 0.353268 0.928768
vt 0.339582 0.928768
vt 0.340760 0.928768
vt 0.351570 0.897518
vt 0.353817 0.890625
vt 0.351570 0.883732
vt 0.355614 0.890625
vt 0.353268 0.883732
vt 0.353268 0.897518
vt 0.271183 0.890625
vt 0.273430 0.897518
vt 0.269386 0.890625
vt 0.271732 0.897518
vt 0.273430 0.883732
vt 0.271732 0.883732
vn 0.0000 0.0000 1.0000
vn -0.9239 -0.3827 0.0000
vn -0.8778 -0.3425 0.3350
vn -0.8778 0.3425 0.3350
vn -0.9239 0.3827 0.0000
vn 0.0000 1.0000 0.0000
vn -0.3425 0.8778 0.3350
vn 0.3425 0.8778 0.3350
vn 0.3827 0.9239 0.0000
vn 0.8778 -0.3425 0.3350
vn 1.0000 0.0000 0.0000
vn 0.8778 0.3425 0.3350
vn 0.0000 0.0000 -1.0000
vn 0.3425 -0.8778 0.3350
vn 0.4683 -0.4683 0.7493
vn 0.4683 0.4683 0.7493
vn -0.3425 -0.8778 0.3350
vn -0.4683 -0.4683 0.7493
vn -0.4683 0.4683 0.7493
vn 0.3827 -0.9239 0.0000
vn 0.7071 -0.7071 0.0000
vn 0.7071 0.7071 0.0000
vn -0.7071 -0.7071 0.0000
vn -0.7071 0.7071 0.0000
vn 0.0000 -1.0000 0.0000
vn -0.3827 0.9239 0.0000
vn 0.9239 -0.3827 0.0000
vn 0.1481 -0.9525 0.2661
vn 0.0165 -0.9986 0.0496
vn 0.0459 -0.9988 0.0180
vn 0.2606 -0.9540 0.1481
vn 0.0614 -0.9981 -0.0047
vn 0.3075 -0.9485 0.0758
vn -0.2433 -0.9525 -0.1832
vn -0.2964 -0.9477 -0.1187
vn -0.1294 -0.9511 -0.2805
vn 0.1294 -0.9511 -0.2805
vn -0.0165 -0.9986 0.0496
vn -0.0459 -0.9988 0.0180
vn 0.2433 -0.9525 -0.1832
vn -0.0614 -0.9981 -0.0047
vn 0.2964 -0.9477 -0.1187
vn -0.2606 -0.9540 0.1481
vn -0.3075 -0.9485 0.0758
vn -0.1481 -0.9525 0.2661
vn -0.1294 0.9511 -0.2805
vn 0.0165 0.9986 0.0496
vn 0.0459 0.9988 0.0180
vn -0.2433 0.9525 -0.1832
vn 0.0614 0.9981 -0.0047
vn -0.2964 0.9477 -0.1187
vn 0.2606 0.9540 0.1481
vn 0.3075 0.9485 0.0758
vn 0.1481 0.9525 0.2661
vn 0.1294 0.9511 -0.2805
vn -0.0165 0.9986 0.0496
vn -0.0000 0.9991 0.0433
vn -0.0000 0.9474 -0.3201
vn 0.0000 0.9472 0.3207
vn -0.1481 0.9525 0.2661
vn -0.0000 -0.9991 0.0433
vn -0.0000 -0.9474 -0.3201
vn -0.0000 -0.9472 0.3207
vn -0.4193 0.4022 0.8139
vn -0.4802 -0.0000 0.8772
vn 0.0000 0.3833 0.9236
vn 0.4802 0.0000 0.8772
vn 0.4193 0.4022 0.8139
vn 0.0000 -0.3833 0.9236
vn 0.4193 -0.4022 0.8139
vn -0.4193 -0.4022 0.8139
vn -0.4121 -0.3970 -0.8201
vn 0.0000 -0.3850 -0.9229
vn -0.4265 -0.0000 -0.9045
vn -0.0000 0.3850 -0.9229
vn -0.4121 0.3970 -0.8201
vn 0.4265 0.0000 -0.9045
vn 0.4121 0.3970 -0.8201
vn 0.4121 -0.3970 -0.8201
vn -0.6284 0.3679 -0.6854
vn -0.6682 -0.0000 -0.7440
vn -0.6284 -0.3679 -0.6854
vn -0.7097 -0.0000 -0.7045
vn -0.6672 -0.3408 -0.6623
vn -0.6672 0.3408 -0.6623
vn 0.6284 -0.3679 -0.6854
vn 0.6682 0.0000 -0.7440
vn 0.6284 0.3679 -0.6854
vn 0.7097 -0.0000 -0.7045
vn 0.6672 0.3408 -0.6623
vn 0.6672 -0.3408 -0.6623
vn -0.0459 0.9988 0.0180
vn -0.2606 0.9540 0.1481
vn -0.0614 0.9981 -0.0047
vn -0.3075 0.9485 0.0758
vn 0.2433 0.9525 -0.1832
vn 0.2964 0.9477 -0.1187
vn -0.7995 0.4101 0.4389
vn -0.8012 0.4100 0.4359
vn -0.8012 -0.4100 0.4359
vn -0.7995 -0.4101 0.4389
vn -0.9028 -0.3878 0.1858
vn -0.9028 0.3878 0.1858
vn 0.8012 0.4100 0.4359
vn 0.7995 0.4101 0.4389
vn 0.9028 0.3878 0.1858
vn 0.8012 -0.4100 0.4359
vn 0.7995 -0.4101 0.4389
vn 0.9028 -0.3878 0.1858
usemtl tiny_treats_1
s 1
f 13/1/1 2/2/1 4/3/1 15/4/1
f 18/5/2 12/6/3 16/7/4 20/8/5
f 19/9/6 14/10/7 5/11/8 9/12/9
f 3/13/10 8/14/11 10/15/11 6/16/12
f 17/17/13 19/9/13 9/12/13 7/18/13
f 1/19/14 3/20/10 2/21/15
f 4/22/16 6/23/12 5/11/8
f 10/15/13 8/24/13 7/18/13 9/12/13
f 11/25/17 13/26/18 12/27/3
f 14/10/7 16/28/4 15/29/19
f 19/9/13 17/17/13 18/5/13 20/30/13
f 7/18/20 8/24/21 3/20/10 1/19/14
f 2/2/15 3/13/10 6/16/12 4/3/16
f 5/11/8 6/23/12 10/31/22 9/12/9
f 11/25/17 12/27/3 18/32/2 17/17/23
f 19/9/24 20/30/5 16/28/4 14/10/7
f 15/4/19 16/7/4 12/6/3 13/1/18
f 1/19/14 2/21/15 13/26/18 11/25/17
f 14/10/7 15/29/19 4/22/16 5/11/8
f 7/18/20 1/19/14 11/25/17 17/17/25
f 33/33/1 22/34/1 24/35/1 35/36/1
f 38/37/26 34/38/7 25/39/8 30/40/9
f 23/41/10 28/42/27 29/43/11 26/44/12
f 37/45/2 32/46/3 36/47/4 39/48/5
f 21/49/14 23/50/10 22/51/15
f 24/52/16 26/53/12 25/39/8
f 31/54/17 33/55/18 32/56/3
f 34/38/7 36/57/4 35/58/19
f 27/59/21 28/60/27 23/50/10 21/49/14
f 22/34/15 23/41/10 26/44/12 24/35/16
f 25/39/8 26/53/12 29/61/22 30/40/9
f 31/54/17 32/56/3 37/62/2 40/63/23
f 38/37/26 39/64/5 36/57/4 34/38/7
f 35/36/19 36/47/4 32/46/3 33/33/18
f 21/49/14 22/51/15 33/55/18 31/54/17
f 34/38/7 35/58/19 24/52/16 25/39/8
f 27/59/25 21/49/14 31/54/17 40/63/25
f 41/65/28 82/66/29 85/67/30 78/68/31
f 78/68/31 85/67/30 66/69/32 50/70/33
f 85/67/30 76/71/34 51/72/35 66/69/32
f 82/66/29 46/73/36 76/71/34 85/67/30
f 45/74/37 84/75/38 86/76/39 73/77/40
f 73/77/40 86/76/39 69/78/41 55/79/42
f 86/76/39 74/80/43 54/81/44 69/78/41
f 84/75/38 43/82/45 74/80/43 86/76/39
f 47/83/46 81/84/47 87/85/48 77/86/49
f 77/86/49 87/85/48 70/87/50 56/88/51
f 87/85/48 80/89/52 49/90/53 70/87/50
f 81/84/47 42/91/54 80/89/52 87/85/48
f 48/92/55 83/93/56 88/94/57 60/95/58
f 60/95/58 88/94/57 81/84/47 47/83/46
f 88/94/57 62/96/59 42/91/54 81/84/47
f 83/93/56 44/97/60 62/96/59 88/94/57
f 46/73/36 82/66/29 89/98/61 59/99/62
f 59/99/62 89/98/61 84/75/38 45/74/37
f 89/98/61 61/100/63 43/82/45 84/75/38
f 82/66/29 41/65/28 61/100/63 89/98/61
f 44/101/64 58/102/65 90/103/1 62/104/66
f 62/104/66 90/103/1 57/105/67 42/106/68
f 90/103/1 61/107/69 41/108/70 57/105/67
f 58/102/65 43/109/71 61/107/69 90/103/1
f 46/110/72 59/111/73 91/112/13 63/113/74
f 63/113/74 91/112/13 60/114/75 47/115/76
f 91/112/13 64/116/77 48/117/78 60/114/75
f 59/111/73 45/118/79 64/116/77 91/112/13
f 47/115/76 77/119/80 92/120/81 63/113/74
f 63/113/74 92/120/81 76/121/82 46/110/72
f 92/120/81 71/122/83 51/123/84 76/121/82
f 77/119/80 56/124/85 71/122/83 92/120/81
f 45/118/79 73/125/86 93/126/87 64/116/77
f 64/116/77 93/126/87 79/127/88 48/117/78
f 93/126/87 72/128/89 52/129/90 79/127/88
f 73/125/86 55/130/91 72/128/89 93/126/87
f 44/97/60 83/93/56 94/131/92 75/132/93
f 75/132/93 94/131/92 67/133/94 53/134/95
f 94/131/92 79/135/96 52/136/97 67/133/94
f 83/93/56 48/92/55 79/135/96 94/131/92
f 44/101/64 75/137/98 95/138/99 58/102/65
f 58/102/65 95/138/100 74/139/101 43/109/71
f 95/138/100 68/140/102 54/141/102 74/139/101
f 75/137/98 53/142/103 68/140/103 95/138/99
f 42/106/68 57/105/67 96/143/104 80/144/105
f 80/144/105 96/143/104 65/145/106 49/146/106
f 96/143/107 78/147/108 50/148/109 65/145/109
f 57/105/67 41/108/70 78/147/108 96/143/107
f 29/43/13 39/64/13 38/37/13 30/40/13
f 28/42/13 37/45/13 39/64/13 29/43/13
f 27/59/13 40/63/13 37/45/13 28/42/13
