# Blender v3.4.1 OBJ File: 'Tiny_Treats_Charming_Kitchen_ASSETS_EXPORT.blend'
# www.blender.org
mtllib wall_papertowel_holder.mtl
o wall_papertowel_holder
v -0.750000 -0.150000 0.050000
v -0.750000 -0.100000 0.100000
v -0.800000 -0.100000 0.050000
v -0.750000 0.100000 0.100000
v -0.750000 0.150000 0.050000
v -0.800000 0.100000 0.050000
v -0.750000 -0.150000 0.000000
v -0.800000 -0.100000 0.000000
v -0.800000 0.100000 0.000000
v -0.750000 0.150000 0.000000
v 0.750000 -0.150000 0.050000
v 0.800000 -0.100000 0.050000
v 0.750000 -0.100000 0.100000
v 0.750000 0.150000 0.050000
v 0.750000 0.100000 0.100000
v 0.800000 0.100000 0.050000
v 0.800000 -0.100000 0.000000
v 0.750000 -0.150000 0.000000
v 0.750000 0.150000 0.000000
v 0.800000 0.100000 0.000000
v 0.450000 0.000000 0.290000
v -0.450000 -0.000000 0.290000
v -0.450000 -0.131769 0.158231
v -0.430000 -0.146410 0.143590
v 0.430000 -0.146410 0.143590
v 0.450000 -0.131769 0.158231
v -0.430000 -0.200000 0.236410
v -0.450000 -0.180000 0.241769
v 0.450000 -0.180000 0.241769
v 0.430000 -0.200000 0.236410
v -0.430000 -0.200000 0.343590
v -0.450000 -0.180000 0.338231
v 0.450000 -0.180000 0.338231
v 0.430000 -0.200000 0.343590
v -0.430000 -0.146410 0.436410
v -0.450000 -0.131769 0.421769
v 0.450000 -0.131769 0.421769
v 0.430000 -0.146410 0.436410
v -0.430000 -0.053590 0.490000
v -0.450000 -0.048231 0.470000
v 0.450000 -0.048231 0.470000
v 0.430000 -0.053590 0.490000
v -0.430000 0.053590 0.490000
v -0.450000 0.048231 0.470000
v 0.450000 0.048231 0.470000
v 0.430000 0.053590 0.490000
v -0.430000 0.146410 0.436410
v -0.450000 0.131769 0.421769
v 0.450000 0.131769 0.421769
v 0.430000 0.146410 0.436410
v -0.430000 0.200000 0.343590
v -0.450000 0.180000 0.338231
v 0.450000 0.180000 0.338231
v 0.430000 0.200000 0.343590
v -0.430000 0.200000 0.236410
v -0.450000 0.180000 0.241769
v 0.450000 0.180000 0.241769
v 0.430000 0.200000 0.236410
v -0.430000 0.146410 0.143590
v -0.450000 0.131769 0.158231
v 0.450000 0.131769 0.158231
v 0.430000 0.146410 0.143590
v -0.430000 0.053590 0.090000
v -0.450000 0.048231 0.110000
v 0.450000 0.048231 0.110000
v 0.430000 0.053590 0.090000
v -0.430000 -0.053590 0.090000
v -0.450000 -0.048231 0.110000
v 0.450000 -0.048231 0.110000
v 0.430000 -0.053590 0.090000
v -0.430000 -0.346410 0.436410
v 0.430000 -0.346410 0.436410
v -0.430000 -0.253590 0.490000
v 0.430000 -0.253590 0.490000
v -0.430000 -0.350000 0.343590
v -0.430000 -0.375000 0.386891
v 0.430000 -0.375000 0.386891
v 0.430000 -0.350000 0.343590
v -0.535830 0.048587 0.239581
v -0.562269 0.074031 0.266020
v 0.562269 0.074031 0.266020
v 0.535830 0.048587 0.239581
v -0.562269 -0.074030 0.266020
v -0.535830 -0.048587 0.239581
v 0.535830 -0.048586 0.239581
v 0.562269 -0.074030 0.266020
v -0.529620 -0.045138 0.090001
v -0.557362 -0.072880 0.090001
v -0.557362 0.072880 0.090001
v -0.529620 0.045139 0.090001
v 0.529620 0.045139 0.090001
v 0.557362 0.072880 0.090001
v 0.557362 -0.072880 0.090001
v 0.529620 -0.045138 0.090001
v 0.627371 0.072691 0.089999
v 0.653058 0.044692 0.089999
v 0.653058 -0.044691 0.089999
v 0.627371 -0.072690 0.089999
v -0.627371 -0.072690 0.089999
v -0.653058 -0.044691 0.089999
v -0.653058 0.044691 0.089999
v -0.627371 0.072691 0.089999
v 0.585746 0.072574 0.332860
v 0.594607 0.044886 0.358893
v 0.652586 0.044957 0.300988
v 0.627680 0.072543 0.286536
v 0.612894 0.072546 0.321311
v 0.634890 0.045075 0.341055
v 0.627680 -0.072542 0.286536
v 0.652586 -0.044956 0.300988
v 0.594607 -0.044886 0.358893
v 0.585746 -0.072574 0.332860
v 0.612894 -0.072545 0.321311
v 0.634890 -0.045075 0.341055
v -0.627681 0.072543 0.286536
v -0.652586 0.044957 0.300988
v -0.594607 0.044886 0.358893
v -0.585747 0.072574 0.332860
v -0.612894 0.072546 0.321311
v -0.634890 0.045075 0.341055
v -0.585746 -0.072574 0.332860
v -0.594607 -0.044886 0.358893
v -0.652586 -0.044956 0.300988
v -0.627681 -0.072542 0.286536
v -0.612894 -0.072545 0.321311
v -0.634890 -0.045075 0.341055
vt 0.719822 0.889092
vt 0.719822 0.897183
vt 0.659081 0.897183
vt 0.659081 0.889092
vt 0.719822 0.899206
vt 0.659081 0.899206
vt 0.659081 0.899206
vt 0.719822 0.899206
vt 0.657056 0.889092
vt 0.657056 0.897183
vt 0.657056 0.897183
vt 0.657056 0.889092
vt 0.721847 0.889092
vt 0.721847 0.897183
vt 0.721847 0.897183
vt 0.721847 0.889092
vt 0.659081 0.887069
vt 0.719822 0.887069
vt 0.659081 0.887069
vt 0.719822 0.887069
vt 0.418764 0.914847
vt 0.456235 0.914847
vt 0.456235 0.910803
vt 0.418764 0.910803
vt 0.417892 0.909340
vt 0.417892 0.909340
vt 0.417892 0.885932
vt 0.417892 0.911441
vt 0.417892 0.915081
vt 0.417892 0.919284
vt 0.417892 0.922924
vt 0.417892 0.925025
vt 0.417892 0.925025
vt 0.417892 0.922924
vt 0.417892 0.919284
vt 0.417892 0.915081
vt 0.417892 0.911441
vt 0.457107 0.911441
vt 0.457107 0.915081
vt 0.457107 0.885932
vt 0.418764 0.877218
vt 0.456235 0.877218
vt 0.456235 0.877218
vt 0.418764 0.877218
vt 0.418764 0.919517
vt 0.456235 0.919517
vt 0.418764 0.923562
vt 0.456235 0.923562
vt 0.418764 0.925897
vt 0.456235 0.925897
vt 0.418764 0.925897
vt 0.456235 0.925897
vt 0.418764 0.923562
vt 0.456235 0.923562
vt 0.418764 0.919517
vt 0.456235 0.919517
vt 0.418764 0.914847
vt 0.456235 0.914847
vt 0.456235 0.870682
vt 0.456235 0.870839
vt 0.456235 0.869593
vt 0.418764 0.879553
vt 0.456235 0.879553
vt 0.457107 0.909340
vt 0.457107 0.909340
vt 0.457107 0.911441
vt 0.457107 0.915081
vt 0.457107 0.919284
vt 0.457107 0.922924
vt 0.457107 0.925025
vt 0.457107 0.925025
vt 0.457107 0.922924
vt 0.457107 0.919284
vt 0.417892 0.878090
vt 0.417892 0.880191
vt 0.457107 0.880191
vt 0.457107 0.878090
vt 0.417892 0.878090
vt 0.457107 0.878090
vt 0.418764 0.908468
vt 0.418764 0.910803
vt 0.456235 0.910803
vt 0.456235 0.908468
vt 0.418764 0.870839
vt 0.456235 0.874883
vt 0.418764 0.874883
vt 0.456235 0.839432
vt 0.418764 0.839432
vt 0.418764 0.870682
vt 0.418764 0.869593
vt 0.289046 0.851273
vt 0.289046 0.847020
vt 0.289318 0.847171
vt 0.289318 0.851122
vt 0.283915 0.851103
vt 0.283915 0.847190
vt 0.283936 0.847179
vt 0.283936 0.851114
vt 0.286862 0.883573
vt 0.338138 0.883573
vt 0.337110 0.883637
vt 0.287889 0.883637
vt 0.335953 0.847020
vt 0.335953 0.851273
vt 0.335681 0.851122
vt 0.335681 0.847171
vt 0.338138 0.814720
vt 0.337110 0.814656
vt 0.339974 0.814721
vt 0.339326 0.814721
vt 0.339974 0.883572
vt 0.339326 0.883572
vt 0.336896 0.814707
vt 0.339960 0.814715
vt 0.340289 0.847174
vt 0.340289 0.851120
vt 0.338526 0.851111
vt 0.338526 0.847182
vt 0.287889 0.814656
vt 0.286862 0.814720
vt 0.285674 0.814721
vt 0.285026 0.814721
vt 0.341064 0.847179
vt 0.341064 0.851114
vt 0.339960 0.883578
vt 0.336896 0.883587
vt 0.285040 0.814715
vt 0.288104 0.814707
vt 0.284711 0.847174
vt 0.284711 0.851120
vt 0.286474 0.847182
vt 0.286474 0.851111
vt 0.285026 0.883572
vt 0.285674 0.883572
vt 0.341084 0.847190
vt 0.341084 0.851103
vt 0.335953 0.882523
vt 0.289046 0.882523
vt 0.289046 0.815770
vt 0.335953 0.815770
vt 0.335681 0.882372
vt 0.289318 0.815921
vt 0.288104 0.883587
vt 0.289318 0.882372
vt 0.335681 0.815921
vt 0.341064 0.815929
vt 0.340289 0.815924
vt 0.340289 0.882370
vt 0.341064 0.882364
vt 0.338526 0.815932
vt 0.338526 0.882361
vt 0.283936 0.882364
vt 0.284711 0.882370
vt 0.284711 0.815924
vt 0.283936 0.815929
vt 0.286474 0.882361
vt 0.286474 0.815932
vt 0.341084 0.882353
vt 0.341084 0.815940
vt 0.283915 0.882353
vt 0.285040 0.883578
vt 0.283915 0.815940
vn 0.3416 -0.3416 0.8756
vn 0.3416 0.3416 0.8756
vn -0.3416 0.3416 0.8756
vn -0.3416 -0.3416 0.8756
vn 0.3827 0.9239 0.0000
vn -0.3827 0.9239 0.0000
vn -0.3416 0.8756 0.3416
vn 0.3416 0.8756 0.3416
vn -0.8756 -0.3416 0.3416
vn -0.8756 0.3416 0.3416
vn -0.9239 0.3827 0.0000
vn -0.9239 -0.3827 0.0000
vn 0.9239 -0.3827 0.0000
vn 0.9239 0.3827 0.0000
vn 0.8756 0.3416 0.3416
vn 0.8756 -0.3416 0.3416
vn -0.3416 -0.8756 0.3416
vn 0.3416 -0.8756 0.3416
vn -0.3827 -0.9239 0.0000
vn 0.3827 -0.9239 0.0000
vn -0.3692 -0.2405 -0.8977
vn 0.3692 -0.2405 -0.8977
vn 0.3692 -0.6571 -0.6571
vn -0.3692 -0.6571 -0.6571
vn -0.9049 -0.4112 -0.1102
vn -0.9049 -0.4112 0.1102
vn -1.0000 -0.0000 0.0000
vn -0.9048 -0.3010 0.3010
vn -0.9049 -0.1102 0.4112
vn -0.9049 0.1102 0.4112
vn -0.9049 0.3010 0.3010
vn -0.9049 0.4112 0.1102
vn -0.9049 0.4112 -0.1102
vn -0.9049 0.3010 -0.3010
vn -0.9049 0.1102 -0.4112
vn -0.9049 -0.1102 -0.4112
vn -0.9049 -0.3010 -0.3010
vn 0.9049 -0.3010 -0.3010
vn 0.9049 -0.1102 -0.4112
vn 1.0000 0.0000 -0.0000
vn -0.3692 -0.8977 -0.2405
vn 0.3692 -0.8977 -0.2405
vn 0.7631 -0.6397 0.0921
vn -0.7631 -0.6397 0.0921
vn -0.3692 0.2405 -0.8977
vn 0.3692 0.2405 -0.8977
vn -0.3692 0.6571 -0.6571
vn 0.3692 0.6571 -0.6571
vn -0.3692 0.8977 -0.2405
vn 0.3692 0.8977 -0.2405
vn -0.3692 0.8977 0.2405
vn 0.3692 0.8977 0.2405
vn -0.3692 0.6571 0.6571
vn 0.3692 0.6571 0.6571
vn -0.3692 0.2405 0.8977
vn 0.3692 0.2405 0.8977
vn -0.4450 -0.0878 0.8912
vn 0.4450 -0.0878 0.8912
vn 0.9049 -0.4112 0.1102
vn 0.9049 -0.4112 -0.1102
vn 0.9049 -0.3010 0.3010
vn 0.9049 -0.1102 0.4112
vn 0.9049 0.1102 0.4112
vn 0.9049 0.3010 0.3010
vn 0.9049 0.4112 0.1102
vn 0.9049 0.4112 -0.1102
vn 0.9049 0.3010 -0.3010
vn 0.9049 0.1102 -0.4112
vn -0.9479 -0.2253 0.2253
vn 0.9479 -0.2253 0.2253
vn 0.0000 -0.7071 0.7071
vn 0.0000 -0.2588 0.9659
vn -0.0000 0.0000 -1.0000
vn 0.0000 -0.8660 -0.5000
vn 0.0000 -0.8660 0.5000
vn 0.8907 0.4538 0.0273
vn 0.8907 -0.4538 0.0273
vn 0.9260 -0.3762 0.0304
vn 0.9260 0.3762 0.0304
vn -0.9328 0.3605 0.0013
vn -0.9328 -0.3605 0.0013
vn -0.9089 -0.3654 0.2010
vn -0.9089 0.3654 0.2010
vn -0.0850 0.9006 0.4263
vn 0.0850 0.9006 0.4263
vn -0.0995 0.9903 -0.0970
vn 0.0995 0.9903 -0.0970
vn -0.8907 -0.4538 0.0273
vn -0.8907 0.4537 0.0273
vn -0.9260 0.3762 0.0304
vn -0.9260 -0.3762 0.0304
vn 0.0850 -0.9006 0.4263
vn -0.0995 -0.9903 -0.0970
vn 0.4275 -0.9009 0.0750
vn 0.3102 -0.8963 0.3168
vn 0.4275 0.9009 0.0750
vn 0.3102 0.8963 0.3168
vn -0.3811 -0.9245 0.0062
vn 0.4097 -0.9122 -0.0015
vn 0.6586 -0.3712 0.6545
vn 0.6586 0.3712 0.6545
vn 0.1951 0.3620 0.9115
vn 0.1951 -0.3620 0.9115
vn 0.0995 -0.9903 -0.0970
vn -0.0850 -0.9006 0.4263
vn -0.3102 -0.8963 0.3168
vn -0.4275 -0.9009 0.0750
vn 0.9089 -0.3654 0.2010
vn 0.9089 0.3654 0.2010
vn -0.0000 0.4553 -0.8903
vn -0.0000 -0.4553 -0.8903
vn 0.4097 0.9122 -0.0015
vn -0.3811 0.9245 0.0062
vn -0.4097 -0.9122 -0.0015
vn 0.3811 -0.9245 0.0062
vn -0.6586 -0.3712 0.6545
vn -0.6586 0.3712 0.6545
vn -0.1951 -0.3620 0.9115
vn -0.1951 0.3620 0.9115
vn -0.4275 0.9009 0.0750
vn -0.3102 0.8963 0.3168
vn 0.9328 -0.3605 0.0013
vn 0.9328 0.3605 0.0013
vn 0.3811 0.9245 0.0062
vn -0.4097 0.9122 -0.0015
usemtl tiny_treats_1
s 1
f 13/1/1 15/2/2 4/3/3 2/4/4
f 19/5/5 10/6/6 5/7/7 14/8/8
f 3/9/9 6/10/10 9/11/11 8/12/12
f 17/13/13 20/14/14 16/15/15 12/16/16
f 1/17/17 2/4/4 3/9/9
f 4/3/3 5/7/7 6/10/10
f 11/18/18 12/16/16 13/1/1
f 14/8/8 15/2/2 16/15/15
f 7/19/19 1/17/17 3/9/9 8/12/12
f 2/4/4 4/3/3 6/10/10 3/9/9
f 5/7/7 10/6/6 9/11/11 6/10/10
f 11/18/18 18/20/20 17/13/13 12/16/16
f 19/5/5 14/8/8 16/15/15 20/14/14
f 15/2/2 13/1/1 12/16/16 16/15/15
f 1/17/17 11/18/18 13/1/1 2/4/4
f 14/8/8 5/7/7 4/3/3 15/2/2
f 7/19/19 18/20/20 11/18/18 1/17/17
f 67/21/21 70/22/22 25/23/23 24/24/24
f 28/25/25 32/26/26 22/27/27
f 32/26/26 36/28/28 22/27/27
f 36/28/28 40/29/29 22/27/27
f 40/29/29 44/30/30 22/27/27
f 44/30/30 48/31/31 22/27/27
f 48/31/31 52/32/32 22/27/27
f 52/32/32 56/33/33 22/27/27
f 56/33/33 60/34/34 22/27/27
f 60/34/34 64/35/35 22/27/27
f 64/35/35 68/36/36 22/27/27
f 68/36/36 23/37/37 22/27/27
f 26/38/38 69/39/39 21/40/40
f 27/41/41 30/42/42 34/43/43 31/44/44
f 63/45/45 66/46/46 70/22/22 67/21/21
f 59/47/47 62/48/48 66/46/46 63/45/45
f 55/49/49 58/50/50 62/48/48 59/47/47
f 51/51/51 54/52/52 58/50/50 55/49/49
f 47/53/53 50/54/54 54/52/52 51/51/51
f 43/55/55 46/56/56 50/54/54 47/53/53
f 39/57/57 42/58/58 46/56/56 43/55/55
f 78/59/40 72/60/40 77/61/40
f 24/62/24 25/63/23 30/42/42 27/41/41
f 33/64/59 29/65/60 21/40/40
f 37/66/61 33/64/59 21/40/40
f 41/67/62 37/66/61 21/40/40
f 45/68/63 41/67/62 21/40/40
f 49/69/64 45/68/63 21/40/40
f 53/70/65 49/69/64 21/40/40
f 57/71/66 53/70/65 21/40/40
f 61/72/67 57/71/66 21/40/40
f 65/73/68 61/72/67 21/40/40
f 69/39/39 65/73/68 21/40/40
f 29/65/60 26/38/38 21/40/40
f 24/62/24 27/41/41 28/74/25 23/75/37
f 30/42/42 25/63/23 26/76/38 29/77/60
f 27/41/41 31/44/44 32/78/26 28/74/25
f 34/43/43 30/42/42 29/77/60 33/79/59
f 31/80/44 35/81/69 36/28/28 32/26/26
f 38/82/70 34/83/43 33/64/59 37/66/61
f 35/81/69 39/57/57 40/29/29 36/28/28
f 42/58/58 38/82/70 37/66/61 41/67/62
f 39/57/57 43/55/55 44/30/30 40/29/29
f 46/56/56 42/58/58 41/67/62 45/68/63
f 43/55/55 47/53/53 48/31/31 44/30/30
f 50/54/54 46/56/56 45/68/63 49/69/64
f 47/53/53 51/51/51 52/32/32 48/31/31
f 54/52/52 50/54/54 49/69/64 53/70/65
f 51/51/51 55/49/49 56/33/33 52/32/32
f 58/50/50 54/52/52 53/70/65 57/71/66
f 55/49/49 59/47/47 60/34/34 56/33/33
f 62/48/48 58/50/50 57/71/66 61/72/67
f 59/47/47 63/45/45 64/35/35 60/34/34
f 66/46/46 62/48/48 61/72/67 65/73/68
f 63/45/45 67/21/21 68/36/36 64/35/35
f 70/22/22 66/46/46 65/73/68 69/39/39
f 67/21/21 24/24/24 23/37/37 68/36/36
f 25/23/23 70/22/22 69/39/39 26/38/38
f 23/37/37 28/25/25 22/27/27
f 71/84/71 72/60/71 74/85/72 73/86/72
f 31/44/73 34/43/73 78/87/73 75/88/73
f 42/58/58 39/57/57 73/86/72 74/85/72
f 71/84/27 75/89/27 76/90/27
f 38/82/70 42/58/58 74/85/40 72/60/40
f 39/57/57 35/81/69 71/84/27 73/86/27
f 77/61/74 76/90/74 75/89/74 78/59/74
f 76/90/75 77/61/75 72/60/71 71/84/71
f 35/81/69 31/80/44 75/89/27 71/84/27
f 34/83/43 38/82/70 72/60/40 78/59/40
f 79/91/76 84/92/77 87/93/78 90/94/79
f 101/95/80 100/96/81 123/97/82 116/98/83
f 118/99/84 103/100/85 81/101/86 80/102/87
f 85/103/88 82/104/89 91/105/90 94/106/91
f 112/107/92 86/108/93 109/109/94 113/110/95
f 106/111/96 81/101/86 103/100/85 107/112/97
f 86/108/93 93/113/98 98/114/99 109/109/94
f 114/115/100 108/116/101 104/117/102 111/118/103
f 83/119/104 121/120/105 125/121/106 124/122/107
f 110/123/108 105/124/109 108/116/101 114/115/100
f 79/91/110 82/104/110 85/103/111 84/92/111
f 81/101/86 106/111/96 95/125/112 92/126/113
f 99/127/114 88/128/115 83/119/104 124/122/107
f 116/98/83 123/97/82 126/129/116 120/130/117
f 122/131/118 111/118/103 104/117/102 117/132/119
f 120/130/117 126/129/116 122/131/118 117/132/119
f 118/99/84 80/102/87 115/133/120 119/134/121
f 86/108/93 112/107/92 121/120/105 83/119/104
f 97/135/122 96/136/123 105/124/109 110/123/108
f 82/137/110 79/138/110 80/102/87 81/101/86
f 86/108/93 83/119/104 84/139/111 85/140/111
f 91/141/90 82/137/89 81/101/86 92/126/113
f 83/119/104 88/128/115 87/142/78 84/139/77
f 89/143/124 80/102/87 79/138/76 90/144/79
f 93/113/98 86/108/93 85/140/88 94/145/91
f 113/110/95 109/109/94 110/146/108 114/147/100
f 106/111/96 107/112/97 108/148/101 105/149/109
f 112/107/92 113/110/95 114/147/100 111/150/103
f 107/112/97 103/100/85 104/151/102 108/148/101
f 119/134/121 115/133/120 116/152/83 120/153/117
f 124/122/107 125/121/106 126/154/116 123/155/82
f 118/99/84 119/134/121 120/153/117 117/156/119
f 125/121/106 121/120/105 122/157/118 126/154/116
f 117/156/119 104/151/102 103/100/85 118/99/84
f 105/149/109 96/158/123 95/125/112 106/111/96
f 109/109/94 98/114/99 97/159/122 110/146/108
f 121/120/105 112/107/92 111/150/103 122/157/118
f 101/160/80 116/152/83 115/133/120 102/161/125
f 99/127/114 124/122/107 123/155/82 100/162/81
f 80/102/87 89/143/124 102/161/125 115/133/120
f 17/13/73 18/20/73 19/5/73 20/14/73
f 18/20/73 7/19/73 10/6/73 19/5/73
f 7/19/73 8/12/73 9/11/73 10/6/73
