# Blender v3.4.1 OBJ File: 'Tiny_Treats_Charming_Kitchen_ASSETS_EXPORT.blend'
# www.blender.org
mtllib wall_shelf_kitchen_hooks.mtl
o wall_shelf_kitchen_hooks
v -0.950000 -0.249833 -0.000000
v -1.000000 -0.199867 -0.000000
v -1.000000 -0.049967 -0.000000
v -0.950000 0.000000 -0.000000
v 0.950000 -0.249833 0.000000
v 1.000000 -0.199867 0.000000
v 0.950000 0.000000 0.000000
v 1.000000 -0.049967 0.000000
v -0.950000 -0.249833 0.650000
v -0.950000 -0.199867 0.700000
v -1.000000 -0.199867 0.650000
v -0.950000 0.000000 0.650000
v -1.000000 -0.049967 0.650000
v -0.950000 -0.049967 0.700000
v 0.950000 -0.249833 0.650000
v 1.000000 -0.199867 0.650000
v 0.950000 -0.199867 0.700000
v 0.950000 0.000000 0.650000
v 0.950000 -0.049967 0.700000
v 1.000000 -0.049967 0.650000
v -0.880000 -0.500000 0.080000
v -0.880000 -0.480013 0.100000
v -0.900000 -0.480013 0.080000
v -0.880000 -0.250000 0.100000
v -0.900000 -0.250000 0.080000
v -0.880000 -0.500000 0.000000
v -0.900000 -0.480013 0.000000
v -0.900000 -0.250000 0.000000
v -0.720000 -0.500000 0.080000
v -0.700000 -0.480013 0.080000
v -0.720000 -0.480013 0.100000
v -0.720000 -0.250000 0.100000
v -0.700000 -0.250000 0.080000
v -0.720000 -0.500000 0.000000
v -0.700000 -0.480013 0.000000
v -0.700000 -0.250000 0.000000
v -0.870000 -0.465279 0.089544
v -0.890000 -0.447165 0.081092
v -0.870000 -0.228770 0.597077
v -0.890000 -0.210656 0.588624
v -0.890000 -0.392822 0.055735
v -0.870000 -0.374708 0.047282
v -0.870000 -0.138200 0.554815
v -0.890000 -0.156314 0.563267
v -0.710000 -0.447165 0.081092
v -0.730000 -0.465279 0.089544
v -0.730000 -0.228770 0.597077
v -0.710000 -0.210656 0.588624
v -0.730000 -0.374708 0.047282
v -0.710000 -0.392822 0.055735
v -0.710000 -0.156314 0.563267
v -0.730000 -0.138200 0.554815
v 0.720000 -0.500000 0.080000
v 0.720000 -0.480013 0.100000
v 0.700000 -0.480013 0.080000
v 0.720000 -0.250000 0.100000
v 0.700000 -0.250000 0.080000
v 0.720000 -0.500000 0.000000
v 0.700000 -0.480013 0.000000
v 0.700000 -0.250000 0.000000
v 0.880000 -0.500000 0.080000
v 0.900000 -0.480013 0.080000
v 0.880000 -0.480013 0.100000
v 0.880000 -0.250000 0.100000
v 0.900000 -0.250000 0.080000
v 0.880000 -0.500000 0.000000
v 0.900000 -0.480013 0.000000
v 0.900000 -0.250000 0.000000
v 0.730000 -0.465279 0.089544
v 0.710000 -0.447165 0.081092
v 0.730000 -0.228770 0.597077
v 0.710000 -0.210656 0.588624
v 0.710000 -0.392822 0.055735
v 0.730000 -0.374708 0.047282
v 0.730000 -0.138200 0.554815
v 0.710000 -0.156314 0.563267
v 0.890000 -0.447165 0.081092
v 0.870000 -0.465279 0.089544
v 0.870000 -0.228770 0.597077
v 0.890000 -0.210656 0.588624
v 0.870000 -0.374708 0.047282
v 0.890000 -0.392822 0.055735
v 0.890000 -0.156314 0.563267
v 0.870000 -0.138200 0.554815
v -0.037500 -0.249500 0.486086
v -0.037500 -0.249500 0.411086
v 0.037500 -0.249500 0.486086
v 0.037500 -0.249500 0.411086
v -0.037500 -0.355000 0.576086
v -0.037500 -0.340000 0.561086
v 0.037500 -0.340000 0.561086
v 0.037500 -0.355000 0.576086
v -0.037500 -0.415000 0.561086
v -0.037500 -0.400000 0.576086
v 0.037500 -0.400000 0.576086
v 0.037500 -0.415000 0.561086
v -0.037500 -0.337929 0.486086
v -0.037500 -0.355000 0.503157
v 0.037500 -0.355000 0.503157
v 0.037500 -0.337929 0.486086
v -0.037500 -0.430000 0.428157
v -0.037500 -0.412929 0.411086
v 0.037500 -0.412929 0.411086
v 0.037500 -0.430000 0.428157
v -0.537500 -0.249500 0.486086
v -0.537500 -0.249500 0.411086
v -0.462500 -0.249500 0.486086
v -0.462500 -0.249500 0.411086
v -0.537500 -0.355000 0.576086
v -0.537500 -0.340000 0.561086
v -0.462500 -0.340000 0.561086
v -0.462500 -0.355000 0.576086
v -0.537500 -0.415000 0.561086
v -0.537500 -0.400000 0.576086
v -0.462500 -0.400000 0.576086
v -0.462500 -0.415000 0.561086
v -0.537500 -0.337929 0.486086
v -0.537500 -0.355000 0.503157
v -0.462500 -0.355000 0.503157
v -0.462500 -0.337929 0.486086
v -0.537500 -0.430000 0.428157
v -0.537500 -0.412929 0.411086
v -0.462500 -0.412929 0.411086
v -0.462500 -0.430000 0.428157
v 0.462500 -0.249500 0.486086
v 0.462500 -0.249500 0.411086
v 0.537500 -0.249500 0.486086
v 0.537500 -0.249500 0.411086
v 0.462500 -0.355000 0.576086
v 0.462500 -0.340000 0.561086
v 0.537500 -0.340000 0.561086
v 0.537500 -0.355000 0.576086
v 0.462500 -0.415000 0.561086
v 0.462500 -0.400000 0.576086
v 0.537500 -0.400000 0.576086
v 0.537500 -0.415000 0.561086
v 0.462500 -0.337929 0.486086
v 0.462500 -0.355000 0.503157
v 0.537500 -0.355000 0.503157
v 0.537500 -0.337929 0.486086
v 0.462500 -0.430000 0.428157
v 0.462500 -0.412929 0.411086
v 0.537500 -0.412929 0.411086
v 0.537500 -0.430000 0.428157
vt 0.717171 0.879049
vt 0.717171 0.902201
vt 0.655373 0.902201
vt 0.655373 0.879049
vt 0.724896 0.879049
vt 0.724896 0.902201
vt 0.724896 0.902201
vt 0.724896 0.879049
vt 0.717171 0.941168
vt 0.655373 0.941168
vt 0.655373 0.941168
vt 0.717171 0.941168
vt 0.655373 0.879049
vt 0.655373 0.902201
vt 0.717171 0.902201
vt 0.717171 0.879049
vt 0.717171 0.855707
vt 0.724896 0.863424
vt 0.717171 0.863424
vt 0.717171 0.956793
vt 0.717171 0.949076
vt 0.724896 0.949076
vt 0.717171 0.855707
vt 0.717171 0.863424
vt 0.724896 0.863424
vt 0.717171 0.956793
vt 0.724896 0.949076
vt 0.717171 0.949076
vt 0.655373 0.840082
vt 0.655373 0.956793
vt 0.655373 0.855707
vt 0.655373 0.949076
vt 0.655373 0.956793
vt 0.655373 0.855707
vt 0.655373 0.863424
vt 0.655373 0.949076
vt 0.724896 0.917826
vt 0.724896 0.894674
vt 0.717171 0.894674
vt 0.717171 0.917826
vt 0.717171 0.917826
vt 0.717171 0.894674
vt 0.724896 0.894674
vt 0.724896 0.917826
vt 0.655373 0.863424
vt 0.717171 0.840082
vt 0.717171 0.840082
vt 0.655373 0.840082
vt 0.464395 0.824319
vt 0.464395 0.868095
vt 0.433944 0.868095
vt 0.433944 0.824319
vt 0.468201 0.824319
vt 0.468201 0.868095
vt 0.468201 0.868095
vt 0.468201 0.824319
vt 0.430137 0.824319
vt 0.430137 0.868095
vt 0.430137 0.868095
vt 0.430137 0.824319
vt 0.433944 0.789265
vt 0.433944 0.793069
vt 0.430137 0.793069
vt 0.464395 0.789265
vt 0.468201 0.793069
vt 0.464395 0.793069
vt 0.433944 0.789265
vt 0.430137 0.793069
vt 0.464395 0.789265
vt 0.468201 0.793069
vt 0.462492 0.795873
vt 0.462492 0.840885
vt 0.435847 0.840885
vt 0.435847 0.795873
vt 0.466298 0.840913
vt 0.466298 0.885925
vt 0.466298 0.875582
vt 0.466298 0.830570
vt 0.432041 0.830570
vt 0.432041 0.875582
vt 0.432041 0.885925
vt 0.432041 0.840913
vt 0.435847 0.844360
vt 0.435847 0.889372
vt 0.462492 0.889372
vt 0.462492 0.844360
vt 0.432041 0.844332
vt 0.432041 0.799320
vt 0.466298 0.799320
vt 0.466298 0.844332
vt 0.441056 0.824319
vt 0.441056 0.868095
vt 0.410605 0.868095
vt 0.410605 0.824319
vt 0.444863 0.824319
vt 0.444863 0.868095
vt 0.444863 0.868095
vt 0.444863 0.824319
vt 0.406799 0.824319
vt 0.406799 0.868095
vt 0.406799 0.868095
vt 0.406799 0.824319
vt 0.410605 0.789265
vt 0.410605 0.793069
vt 0.406799 0.793069
vt 0.441056 0.789265
vt 0.444863 0.793069
vt 0.441056 0.793069
vt 0.406799 0.793069
vt 0.410605 0.789265
vt 0.444863 0.793069
vt 0.441056 0.789265
vt 0.439153 0.795873
vt 0.439153 0.840885
vt 0.412508 0.840885
vt 0.412508 0.795873
vt 0.442959 0.840913
vt 0.442959 0.885925
vt 0.442959 0.875582
vt 0.442959 0.830570
vt 0.408702 0.830570
vt 0.408702 0.875582
vt 0.408702 0.885925
vt 0.408702 0.840913
vt 0.412508 0.844360
vt 0.412508 0.889372
vt 0.439153 0.889372
vt 0.439153 0.844360
vt 0.408702 0.844332
vt 0.408702 0.799320
vt 0.442959 0.799320
vt 0.442959 0.844332
vt 0.068801 0.438317
vt 0.068801 0.435796
vt 0.068801 0.428235
vt 0.068801 0.425714
vt 0.056199 0.425714
vt 0.056199 0.428235
vt 0.056199 0.435796
vt 0.056199 0.438317
vt 0.068801 0.391944
vt 0.068801 0.394464
vt 0.056199 0.394464
vt 0.056199 0.391944
vt 0.068801 0.438665
vt 0.068801 0.426062
vt 0.068801 0.453524
vt 0.068801 0.453524
vt 0.068801 0.467046
vt 0.056199 0.467046
vt 0.056199 0.469567
vt 0.068801 0.469567
vt 0.056199 0.426062
vt 0.056199 0.453524
vt 0.068801 0.469915
vt 0.068801 0.484774
vt 0.056199 0.484774
vt 0.056199 0.469915
vt 0.068801 0.396985
vt 0.056199 0.396985
vt 0.056199 0.394812
vt 0.068801 0.394812
vt 0.056199 0.438665
vt 0.056199 0.423194
vt 0.056199 0.435796
vt 0.068801 0.435796
vt 0.068801 0.423194
vt 0.056199 0.453524
vt 0.051997 0.438317
vt 0.051997 0.435796
vt 0.051997 0.428235
vt 0.051997 0.425714
vt 0.039394 0.425714
vt 0.039394 0.428235
vt 0.039394 0.435796
vt 0.039394 0.438317
vt 0.051997 0.391944
vt 0.051997 0.394464
vt 0.039394 0.394464
vt 0.039394 0.391944
vt 0.051997 0.438665
vt 0.051997 0.426062
vt 0.051997 0.453524
vt 0.051997 0.453524
vt 0.051997 0.467046
vt 0.039394 0.467046
vt 0.039394 0.469567
vt 0.051997 0.469567
vt 0.039394 0.426062
vt 0.039394 0.453524
vt 0.051997 0.469915
vt 0.051997 0.484774
vt 0.039394 0.484774
vt 0.039394 0.469915
vt 0.051997 0.396985
vt 0.039394 0.396985
vt 0.039394 0.394812
vt 0.051997 0.394812
vt 0.039394 0.438665
vt 0.039394 0.423194
vt 0.039394 0.435796
vt 0.051997 0.435796
vt 0.051997 0.423194
vt 0.039394 0.453524
vt 0.085606 0.438317
vt 0.085606 0.435796
vt 0.085606 0.428235
vt 0.085606 0.425714
vt 0.073003 0.425714
vt 0.073003 0.428235
vt 0.073003 0.435796
vt 0.073003 0.438317
vt 0.085606 0.391944
vt 0.085606 0.394464
vt 0.073003 0.394464
vt 0.073003 0.391944
vt 0.085606 0.438665
vt 0.085606 0.426062
vt 0.085606 0.453524
vt 0.085606 0.453524
vt 0.085606 0.467046
vt 0.073003 0.467046
vt 0.073003 0.469567
vt 0.085606 0.469567
vt 0.073003 0.426062
vt 0.073003 0.453524
vt 0.085606 0.469915
vt 0.085606 0.484774
vt 0.073003 0.484774
vt 0.073003 0.469915
vt 0.085606 0.396985
vt 0.073003 0.396985
vt 0.073003 0.394812
vt 0.085606 0.394812
vt 0.073003 0.438665
vt 0.073003 0.423194
vt 0.073003 0.435796
vt 0.085606 0.435796
vt 0.085606 0.423194
vt 0.073003 0.453524
vn -0.8755 -0.3417 0.3416
vn -0.8755 0.3417 0.3416
vn -1.0000 0.0000 0.0000
vn 0.3416 -0.3417 0.8755
vn 0.3416 0.3417 0.8755
vn -0.0000 0.0000 1.0000
vn 0.3415 0.8757 0.3415
vn 0.3825 0.9239 0.0000
vn -0.3825 0.9239 0.0000
vn -0.3415 0.8757 0.3415
vn 1.0000 0.0000 0.0000
vn -0.3415 -0.8757 0.3415
vn -0.4605 -0.4607 0.7587
vn -0.4605 0.4607 0.7587
vn 0.3415 -0.8757 0.3415
vn 0.7587 -0.4607 0.4605
vn 0.7587 0.4607 0.4605
vn 0.0000 0.0000 -1.0000
vn 0.3825 -0.9239 0.0000
vn 0.7069 -0.7073 0.0000
vn 0.7069 0.7073 0.0000
vn -0.3825 -0.9239 0.0000
vn -0.7069 -0.7073 0.0000
vn -0.7069 0.7073 0.0000
vn 0.3827 0.0000 0.9239
vn -0.3827 0.0000 0.9239
vn -0.3416 -0.3417 0.8755
vn -0.7587 -0.4607 0.4605
vn -0.7071 0.0000 0.7071
vn 0.7071 0.0000 0.7071
vn 0.3826 -0.8375 0.3902
vn 0.3825 -0.8375 0.3903
vn -0.3825 -0.8375 0.3903
vn -0.3826 -0.8374 0.3902
vn -0.3825 0.8375 -0.3903
vn -0.3826 0.8374 -0.3902
vn 0.3826 0.8375 -0.3902
vn 0.3825 0.8375 -0.3903
vn -0.7069 -0.6411 0.2988
vn -0.7069 0.6411 -0.2988
vn 0.7069 0.6411 -0.2988
vn 0.7069 -0.6411 0.2988
vn 0.3826 -0.8374 0.3902
vn -0.3826 -0.8375 0.3902
vn -0.3826 0.8375 -0.3902
vn 0.3826 0.8374 -0.3902
vn 0.0000 -0.9937 0.1121
vn 0.0000 -0.9009 0.4340
vn 0.0000 0.9681 -0.2507
vn 0.0000 -0.3827 -0.9239
vn 0.0000 0.7071 0.7071
vn 0.0000 -0.7071 0.7071
vn 0.0000 -0.7071 -0.7071
vn 0.0000 0.3827 0.9239
vn 0.0000 -0.3827 0.9239
usemtl tiny_treats_1
s 1
f 11/1/1 13/2/2 3/3/3 2/4/3
f 17/5/4 19/6/5 14/7/6 10/8/6
f 18/9/7 7/10/8 4/11/9 12/12/10
f 6/13/11 8/14/11 20/15/11 16/16/11
f 9/17/12 10/18/13 11/19/1
f 12/20/10 13/21/2 14/22/14
f 15/23/15 16/24/16 17/25/4
f 18/26/7 19/27/5 20/28/17
f 6/13/18 5/29/18 7/30/18 8/14/18
f 5/29/18 1/31/18 4/11/18 7/10/18
f 1/31/18 2/4/18 3/32/18 4/33/18
f 15/23/15 5/34/19 6/35/20 16/24/16
f 7/30/8 18/26/7 20/28/17 8/36/21
f 19/37/5 17/38/4 16/39/16 20/40/17
f 9/17/12 15/23/15 17/25/4 10/18/13
f 18/26/7 12/20/10 14/22/14 19/27/5
f 13/41/2 11/42/1 10/43/13 14/44/14
f 1/31/22 9/17/12 11/19/1 2/45/23
f 12/20/10 4/33/9 3/32/24 13/21/2
f 5/29/19 15/46/15 9/47/12 1/48/22
f 31/49/4 32/50/25 24/51/26 22/52/27
f 35/53/11 36/54/11 33/55/11 30/56/11
f 23/57/3 25/58/3 28/59/3 27/60/3
f 21/61/12 22/62/27 23/63/28
f 29/64/15 30/65/16 31/66/4
f 26/67/22 21/61/12 23/63/28 27/68/23
f 22/52/27 24/51/26 25/58/29 23/57/28
f 29/64/15 34/69/19 35/70/20 30/65/16
f 32/50/25 31/49/4 30/56/16 33/55/30
f 21/61/12 29/64/15 31/66/4 22/62/27
f 26/67/22 34/69/19 29/64/15 21/61/12
f 46/71/31 47/72/32 39/73/33 37/74/34
f 50/75/11 51/76/11 48/77/11 45/78/11
f 38/79/3 40/80/3 44/81/3 41/82/3
f 42/83/35 43/84/36 52/85/37 49/86/38
f 37/74/34 39/73/33 40/87/39 38/88/39
f 43/84/36 42/83/35 41/82/40 44/81/40
f 51/76/41 50/75/41 49/86/38 52/85/37
f 47/72/32 46/71/31 45/89/42 48/90/42
f 63/91/4 64/92/25 56/93/26 54/94/27
f 67/95/11 68/96/11 65/97/11 62/98/11
f 55/99/3 57/100/3 60/101/3 59/102/3
f 53/103/12 54/104/27 55/105/28
f 61/106/15 62/107/16 63/108/4
f 68/96/18 67/95/18 59/109/18 60/101/18
f 58/110/22 53/103/12 55/105/28 59/109/23
f 54/94/27 56/93/26 57/100/29 55/99/28
f 58/110/18 59/109/18 67/111/18 66/112/18
f 27/68/18 28/59/18 36/54/18 35/70/18
f 26/67/18 27/68/18 35/70/18 34/69/18
f 61/106/15 66/112/19 67/111/20 62/107/16
f 64/92/25 63/91/4 62/98/16 65/97/30
f 53/103/12 61/106/15 63/108/4 54/104/27
f 58/110/22 66/112/19 61/106/15 53/103/12
f 78/113/43 79/114/32 71/115/33 69/116/44
f 82/117/11 83/118/11 80/119/11 77/120/11
f 70/121/3 72/122/3 76/123/3 73/124/3
f 74/125/35 75/126/45 84/127/46 81/128/38
f 69/116/44 71/115/33 72/129/39 70/130/39
f 75/126/45 74/125/35 73/124/40 76/123/40
f 83/118/41 82/117/41 81/128/38 84/127/46
f 79/114/32 78/113/43 77/131/42 80/132/42
f 91/133/11 92/134/11 95/135/11 96/136/11
f 93/137/3 94/138/3 89/139/3 90/140/3
f 104/141/47 96/142/48 93/143/48 101/144/47
f 100/145/11 103/146/11 88/147/11 87/148/11
f 99/149/49 98/150/49 90/151/49 91/152/49
f 88/147/18 103/146/50 102/153/50 86/154/18
f 100/155/6 87/156/6 85/157/6 97/158/6
f 89/139/51 92/134/51 91/133/51 90/140/51
f 93/143/48 96/142/48 95/159/52 94/160/52
f 92/134/6 89/139/6 94/138/6 95/135/6
f 98/150/51 99/149/51 100/155/51 97/158/51
f 104/141/53 101/144/53 102/161/50 103/162/50
f 97/163/3 102/153/3 101/164/3 98/165/3
f 99/166/11 104/167/11 103/146/11 100/145/11
f 86/154/3 102/153/3 97/163/3 85/168/3
f 99/166/11 91/133/11 96/136/11 104/167/11
f 101/164/3 93/137/3 90/140/3 98/165/3
f 111/169/11 112/170/11 115/171/11 116/172/11
f 113/173/3 114/174/3 109/175/3 110/176/3
f 124/177/47 116/178/48 113/179/48 121/180/47
f 120/181/11 123/182/11 108/183/11 107/184/11
f 119/185/49 118/186/49 110/187/49 111/188/49
f 108/183/18 123/182/18 122/189/18 106/190/18
f 120/191/54 107/192/6 105/193/6 117/194/54
f 109/175/54 112/170/54 111/169/51 110/176/51
f 113/179/48 116/178/48 115/195/55 114/196/55
f 112/170/54 109/175/54 114/174/55 115/171/55
f 118/186/51 119/185/51 120/191/54 117/194/54
f 124/177/53 121/180/53 122/197/53 123/198/53
f 117/199/3 122/189/3 121/200/3 118/201/3
f 119/202/11 124/203/11 123/182/11 120/181/11
f 106/190/3 122/189/3 117/199/3 105/204/3
f 119/202/11 111/169/11 116/172/11 124/203/11
f 121/200/3 113/173/3 110/176/3 118/201/3
f 131/205/11 132/206/11 135/207/11 136/208/11
f 133/209/3 134/210/3 129/211/3 130/212/3
f 144/213/47 136/214/48 133/215/48 141/216/47
f 140/217/11 143/218/11 128/219/11 127/220/11
f 139/221/49 138/222/49 130/223/49 131/224/49
f 128/219/18 143/218/18 142/225/18 126/226/18
f 140/227/54 127/228/6 125/229/6 137/230/54
f 129/211/54 132/206/54 131/205/51 130/212/51
f 133/215/48 136/214/48 135/231/55 134/232/55
f 132/206/54 129/211/54 134/210/55 135/207/55
f 138/222/51 139/221/51 140/227/54 137/230/54
f 144/213/53 141/216/53 142/233/53 143/234/53
f 137/235/3 142/225/3 141/236/3 138/237/3
f 139/238/11 144/239/11 143/218/11 140/217/11
f 126/226/3 142/225/3 137/235/3 125/240/3
f 139/238/11 131/205/11 136/208/11 144/239/11
f 141/236/3 133/209/3 130/212/3 138/237/3
