# Blender v3.4.1 OBJ File: 'Tiny_Treats_Charming_Kitchen_ASSETS_EXPORT.blend'
# www.blender.org
mtllib wall_cabinet_straight.mtl
o wall_cabinet_straight
v -0.950000 0.000000 0.740348
v -0.950000 0.050000 0.792000
v -1.000000 0.050000 0.740348
v -0.950000 0.950000 0.792000
v -0.950000 1.000000 0.740348
v -1.000000 0.950000 0.740348
v -0.950000 0.000000 -0.000000
v -1.000000 0.050000 -0.000000
v -0.950000 1.000000 -0.000000
v -1.000000 0.950000 -0.000000
v 0.950000 0.000000 0.740348
v 1.000000 0.050000 0.740348
v 0.950000 0.050000 0.792000
v 0.950000 1.000000 0.740348
v 0.950000 0.950000 0.792000
v 1.000000 0.950000 0.740348
v 0.950000 0.000000 -0.000000
v 1.000000 0.050000 -0.000000
v 0.950000 1.000000 -0.000000
v 1.000000 0.950000 -0.000000
v -0.869999 0.099999 0.864313
v -0.869999 0.129999 0.895304
v -0.899999 0.129999 0.864313
v -0.869999 0.869999 0.895304
v -0.869999 0.899999 0.864313
v -0.899999 0.869999 0.864313
v -0.869999 0.099999 0.792000
v -0.899999 0.129999 0.792000
v -0.899999 0.869999 0.792000
v -0.869999 0.899999 0.792000
v -0.029999 0.099999 0.864313
v -0.029999 0.129999 0.895304
v -0.029999 0.899999 0.864313
v -0.029999 0.869999 0.895304
v -0.029999 0.899999 0.792000
v -0.029999 0.099999 0.792000
v -0.328430 0.227148 0.974098
v -0.328430 0.272849 0.974098
v -0.171568 0.227148 0.974098
v -0.171568 0.272849 0.974098
v -0.205450 0.227148 0.930345
v -0.294548 0.227148 0.930345
v -0.294548 0.272849 0.930345
v -0.205450 0.272849 0.930345
v -0.383646 0.272849 0.895303
v -0.383646 0.227148 0.895303
v -0.332822 0.227148 0.895303
v -0.167175 0.272849 0.895303
v -0.116352 0.272849 0.895303
v -0.116352 0.227148 0.895303
v -0.167175 0.227148 0.895303
v -0.332822 0.272849 0.895303
v -0.334783 0.249999 0.982301
v -0.165215 0.249999 0.982301
v -0.249999 0.227148 0.940251
v -0.249999 0.272849 0.940251
v -0.249999 0.227148 0.990566
v -0.249999 0.272849 0.990566
v -0.288195 0.249999 0.922142
v -0.211803 0.249999 0.922142
v -0.393175 0.249999 0.895303
v -0.358234 0.218579 0.895303
v -0.141764 0.281418 0.895303
v -0.106822 0.249999 0.895303
v -0.141764 0.218579 0.895303
v -0.358234 0.281418 0.895303
v -0.323293 0.249999 0.895303
v -0.176705 0.249999 0.895303
v -0.171960 0.227148 0.902281
v -0.123254 0.227148 0.927439
v -0.123254 0.272849 0.927439
v -0.328038 0.227148 0.902281
v -0.328038 0.272849 0.902281
v -0.376744 0.227148 0.927439
v -0.171960 0.272849 0.902281
v -0.376744 0.272849 0.927439
v -0.311489 0.281418 0.952222
v -0.311489 0.218579 0.952222
v -0.188509 0.281418 0.952222
v -0.188509 0.218579 0.952222
v -0.352391 0.218579 0.914860
v -0.147607 0.218579 0.914860
v -0.352391 0.281418 0.914860
v -0.249999 0.281418 0.965408
v -0.249999 0.218579 0.965408
v -0.249999 0.249999 1.000000
v -0.249999 0.249999 0.930816
v -0.318906 0.249999 0.897564
v -0.181092 0.249999 0.897564
v -0.147607 0.281418 0.914860
v -0.114121 0.249999 0.932156
v -0.385876 0.249999 0.932156
v 0.869999 0.099999 0.864313
v 0.869999 0.129999 0.895304
v 0.899999 0.129999 0.864313
v 0.869999 0.869999 0.895304
v 0.869999 0.899999 0.864313
v 0.899999 0.869999 0.864313
v 0.869999 0.099999 0.792000
v 0.899999 0.129999 0.792000
v 0.899999 0.869999 0.792000
v 0.869999 0.899999 0.792000
v 0.029999 0.099999 0.864313
v -0.000001 0.129999 0.864313
v 0.029999 0.129999 0.895304
v 0.029999 0.899999 0.864313
v 0.029999 0.869999 0.895304
v -0.000001 0.869999 0.864313
v -0.000001 0.129999 0.792000
v 0.029999 0.899999 0.792000
v -0.000001 0.869999 0.792000
v 0.029999 0.099999 0.792000
v 0.328430 0.227148 0.974098
v 0.328430 0.272849 0.974098
v 0.171568 0.227148 0.974098
v 0.171568 0.272849 0.974098
v 0.205450 0.227148 0.930345
v 0.294548 0.227148 0.930345
v 0.294548 0.272849 0.930345
v 0.205450 0.272849 0.930345
v 0.383646 0.272849 0.895303
v 0.383646 0.227148 0.895303
v 0.332822 0.227148 0.895303
v 0.167175 0.272849 0.895303
v 0.116352 0.272849 0.895303
v 0.116352 0.227148 0.895303
v 0.167175 0.227148 0.895303
v 0.332822 0.272849 0.895303
v 0.334783 0.249999 0.982301
v 0.165215 0.249999 0.982301
v 0.249999 0.227148 0.940251
v 0.249999 0.272849 0.940251
v 0.249999 0.227148 0.990566
v 0.249999 0.272849 0.990566
v 0.288195 0.249999 0.922142
v 0.211803 0.249999 0.922142
v 0.393175 0.249999 0.895303
v 0.358234 0.218579 0.895303
v 0.141764 0.281418 0.895303
v 0.106822 0.249999 0.895303
v 0.141764 0.218579 0.895303
v 0.358234 0.281418 0.895303
v 0.323293 0.249999 0.895303
v 0.176705 0.249999 0.895303
v 0.171960 0.227148 0.902281
v 0.123254 0.227148 0.927439
v 0.123254 0.272849 0.927439
v 0.328038 0.227148 0.902281
v 0.328038 0.272849 0.902281
v 0.376744 0.227148 0.927439
v 0.171960 0.272849 0.902281
v 0.376744 0.272849 0.927439
v 0.311489 0.281418 0.952222
v 0.311489 0.218579 0.952222
v 0.188509 0.281418 0.952222
v 0.188509 0.218579 0.952222
v 0.352391 0.218579 0.914860
v 0.147607 0.218579 0.914860
v 0.352391 0.281418 0.914860
v 0.249999 0.281418 0.965408
v 0.249999 0.218579 0.965408
v 0.249999 0.249999 1.000000
v 0.249999 0.249999 0.930816
v 0.318906 0.249999 0.897564
v 0.181092 0.249999 0.897564
v 0.147607 0.281418 0.914860
v 0.114121 0.249999 0.932156
v 0.385876 0.249999 0.932156
vt 0.722412 0.858463
vt 0.722412 0.891537
vt 0.652588 0.891537
vt 0.652588 0.858463
vt 0.724249 0.858463
vt 0.724249 0.891537
vt 0.724249 0.891537
vt 0.724249 0.858463
vt 0.722412 0.924625
vt 0.652588 0.924625
vt 0.652588 0.924625
vt 0.722412 0.924625
vt 0.650751 0.858463
vt 0.650751 0.891537
vt 0.650751 0.891537
vt 0.650751 0.858463
vt 0.722412 0.825376
vt 0.652588 0.825376
vt 0.652588 0.825376
vt 0.652588 0.827213
vt 0.650751 0.827213
vt 0.652588 0.922787
vt 0.650751 0.922787
vt 0.650751 0.922787
vt 0.722412 0.825376
vt 0.724249 0.827213
vt 0.722412 0.827213
vt 0.722412 0.922787
vt 0.724249 0.922787
vt 0.724249 0.827213
vt 0.650751 0.827213
vt 0.724249 0.922787
vt 0.459069 0.880938
vt 0.459069 0.893263
vt 0.415930 0.893263
vt 0.415930 0.880938
vt 0.459069 0.915388
vt 0.415930 0.915388
vt 0.415930 0.915388
vt 0.459069 0.915388
vt 0.414389 0.880938
vt 0.414389 0.893263
vt 0.414389 0.893263
vt 0.414389 0.880938
vt 0.415930 0.858814
vt 0.415930 0.860354
vt 0.414389 0.860354
vt 0.415930 0.913847
vt 0.414389 0.913847
vt 0.459069 0.858814
vt 0.460610 0.860354
vt 0.459069 0.860354
vt 0.459069 0.913847
vt 0.460610 0.913847
vt 0.415930 0.858814
vt 0.414389 0.860354
vt 0.414389 0.913847
vt 0.459069 0.858814
vt 0.460610 0.860354
vt 0.460610 0.913847
vt 0.460610 0.880938
vt 0.460610 0.893263
vt 0.285321 0.852482
vt 0.273430 0.852482
vt 0.279424 0.849897
vt 0.289491 0.849897
vt 0.271732 0.852482
vt 0.277986 0.849897
vt 0.284240 0.852482
vt 0.285418 0.852482
vt 0.293660 0.852482
vt 0.331340 0.852482
vt 0.339582 0.852482
vt 0.345576 0.849897
vt 0.335509 0.849897
vt 0.340760 0.852482
vt 0.347014 0.849897
vt 0.353268 0.852482
vt 0.351570 0.852482
vt 0.339679 0.852482
vt 0.293660 0.928768
vt 0.285418 0.928768
vt 0.279424 0.931353
vt 0.289491 0.931353
vt 0.284240 0.928768
vt 0.277986 0.931353
vt 0.271732 0.928768
vt 0.273430 0.928768
vt 0.285321 0.928768
vt 0.331340 0.928768
vt 0.312500 0.928768
vt 0.312500 0.931353
vt 0.335509 0.931353
vt 0.312500 0.928768
vt 0.339679 0.928768
vt 0.312500 0.852482
vt 0.312500 0.849897
vt 0.312500 0.852482
vt 0.339679 0.897518
vt 0.312500 0.897518
vt 0.312500 0.890625
vt 0.341242 0.890625
vt 0.285321 0.897518
vt 0.283758 0.890625
vt 0.285321 0.883732
vt 0.312500 0.883732
vt 0.339679 0.883732
vt 0.293660 0.883732
vt 0.295224 0.890625
vt 0.312500 0.890625
vt 0.312500 0.883732
vt 0.293660 0.897518
vt 0.312500 0.897518
vt 0.331340 0.897518
vt 0.329776 0.890625
vt 0.331340 0.883732
vt 0.287665 0.890625
vt 0.285418 0.897518
vt 0.285418 0.883732
vt 0.284240 0.883732
vt 0.286585 0.890625
vt 0.284240 0.897518
vt 0.337335 0.890625
vt 0.339582 0.883732
vt 0.339582 0.897518
vt 0.340760 0.897518
vt 0.338415 0.890625
vt 0.340760 0.883732
vt 0.351570 0.928768
vt 0.345576 0.931353
vt 0.353268 0.928768
vt 0.347014 0.931353
vt 0.340760 0.928768
vt 0.339582 0.928768
vt 0.353817 0.890625
vt 0.351570 0.897518
vt 0.351570 0.883732
vt 0.353268 0.883732
vt 0.355614 0.890625
vt 0.353268 0.897518
vt 0.273430 0.897518
vt 0.271183 0.890625
vt 0.271732 0.897518
vt 0.269386 0.890625
vt 0.271732 0.883732
vt 0.273430 0.883732
vt 0.460610 0.880938
vt 0.459069 0.880938
vt 0.415930 0.880938
vt 0.415930 0.893263
vt 0.459069 0.893263
vt 0.459069 0.915388
vt 0.459069 0.915388
vt 0.415930 0.915388
vt 0.415930 0.915388
vt 0.414389 0.880938
vt 0.414389 0.880938
vt 0.414389 0.893263
vt 0.414389 0.893263
vt 0.415930 0.858814
vt 0.414389 0.860354
vt 0.415930 0.860354
vt 0.415930 0.913847
vt 0.414389 0.913847
vt 0.459069 0.858814
vt 0.459069 0.860354
vt 0.459069 0.913847
vt 0.415930 0.858814
vt 0.414389 0.860354
vt 0.414389 0.913847
vt 0.459069 0.858814
vt 0.285321 0.852482
vt 0.289491 0.849897
vt 0.279424 0.849897
vt 0.273430 0.852482
vt 0.277986 0.849897
vt 0.271732 0.852482
vt 0.285418 0.852482
vt 0.284240 0.852482
vt 0.293660 0.852482
vt 0.331340 0.852482
vt 0.335509 0.849897
vt 0.345576 0.849897
vt 0.339582 0.852482
vt 0.347014 0.849897
vt 0.340760 0.852482
vt 0.351570 0.852482
vt 0.353268 0.852482
vt 0.339679 0.852482
vt 0.293660 0.928768
vt 0.289491 0.931353
vt 0.279424 0.931353
vt 0.285418 0.928768
vt 0.277986 0.931353
vt 0.284240 0.928768
vt 0.273430 0.928768
vt 0.271732 0.928768
vt 0.285321 0.928768
vt 0.331340 0.928768
vt 0.335509 0.931353
vt 0.312500 0.931353
vt 0.312500 0.928768
vt 0.312500 0.928768
vt 0.339679 0.928768
vt 0.312500 0.849897
vt 0.312500 0.852482
vt 0.312500 0.852482
vt 0.339679 0.897518
vt 0.341242 0.890625
vt 0.312500 0.890625
vt 0.312500 0.897518
vt 0.283758 0.890625
vt 0.285321 0.897518
vt 0.312500 0.883732
vt 0.285321 0.883732
vt 0.339679 0.883732
vt 0.293660 0.883732
vt 0.312500 0.883732
vt 0.312500 0.890625
vt 0.295224 0.890625
vt 0.312500 0.897518
vt 0.293660 0.897518
vt 0.329776 0.890625
vt 0.331340 0.897518
vt 0.331340 0.883732
vt 0.285418 0.897518
vt 0.287665 0.890625
vt 0.285418 0.883732
vt 0.286585 0.890625
vt 0.284240 0.883732
vt 0.284240 0.897518
vt 0.339582 0.883732
vt 0.337335 0.890625
vt 0.339582 0.897518
vt 0.338415 0.890625
vt 0.340760 0.897518
vt 0.340760 0.883732
vt 0.345576 0.931353
vt 0.351570 0.928768
vt 0.347014 0.931353
vt 0.353268 0.928768
vt 0.339582 0.928768
vt 0.340760 0.928768
vt 0.351570 0.897518
vt 0.353817 0.890625
vt 0.351570 0.883732
vt 0.355614 0.890625
vt 0.353268 0.883732
vt 0.353268 0.897518
vt 0.271183 0.890625
vt 0.273430 0.897518
vt 0.269386 0.890625
vt 0.271732 0.897518
vt 0.273430 0.883732
vt 0.271732 0.883732
vn 0.0000 0.0000 1.0000
vn 0.9239 -0.3827 0.0000
vn 0.9239 0.3827 0.0000
vn 0.8778 0.3425 0.3350
vn 0.8778 -0.3425 0.3350
vn 0.0000 1.0000 0.0000
vn -0.3827 0.9239 0.0000
vn -0.3425 0.8778 0.3350
vn 0.3425 0.8778 0.3350
vn -0.8778 -0.3425 0.3350
vn -0.8778 0.3425 0.3350
vn -1.0000 0.0000 0.0000
vn 0.0000 0.0000 -1.0000
vn -0.3425 -0.8778 0.3350
vn -0.4683 -0.4683 0.7493
vn -0.4683 0.4683 0.7493
vn 0.3425 -0.8778 0.3350
vn 0.4683 -0.4683 0.7493
vn 0.4683 0.4683 0.7493
vn -0.3827 -0.9239 0.0000
vn -0.7071 -0.7071 0.0000
vn -0.7071 0.7071 0.0000
vn 0.7071 -0.7071 0.0000
vn 0.7071 0.7071 0.0000
vn 0.0000 -1.0000 0.0000
vn -0.9239 -0.3827 0.0000
vn 0.7635 -0.4617 0.4516
vn 0.7635 0.4617 0.4516
vn -0.1481 -0.9525 0.2661
vn -0.2606 -0.9540 0.1481
vn -0.0459 -0.9988 0.0180
vn -0.0165 -0.9986 0.0496
vn -0.3075 -0.9485 0.0758
vn -0.0614 -0.9981 -0.0047
vn 0.2964 -0.9477 -0.1187
vn 0.2433 -0.9525 -0.1832
vn 0.1294 -0.9511 -0.2805
vn -0.1294 -0.9511 -0.2805
vn -0.2433 -0.9525 -0.1832
vn 0.0459 -0.9988 0.0180
vn 0.0165 -0.9986 0.0496
vn -0.2964 -0.9477 -0.1187
vn 0.0614 -0.9981 -0.0047
vn 0.3075 -0.9485 0.0758
vn 0.2606 -0.9540 0.1481
vn 0.1481 -0.9525 0.2661
vn 0.1294 0.9511 -0.2805
vn 0.2433 0.9525 -0.1832
vn -0.0459 0.9988 0.0180
vn -0.0165 0.9986 0.0496
vn 0.2964 0.9477 -0.1187
vn -0.0614 0.9981 -0.0047
vn -0.3075 0.9485 0.0758
vn -0.2606 0.9540 0.1481
vn -0.1481 0.9525 0.2661
vn -0.1294 0.9511 -0.2805
vn 0.0000 0.9474 -0.3201
vn -0.0000 0.9991 0.0433
vn 0.0165 0.9986 0.0496
vn -0.0000 0.9472 0.3207
vn 0.1481 0.9525 0.2661
vn 0.0000 -0.9474 -0.3201
vn -0.0000 -0.9991 0.0433
vn -0.0000 -0.9472 0.3207
vn 0.4193 0.4022 0.8139
vn -0.0000 0.3833 0.9236
vn 0.4802 0.0000 0.8772
vn -0.4193 0.4022 0.8139
vn -0.4802 -0.0000 0.8772
vn -0.4193 -0.4022 0.8139
vn -0.0000 -0.3833 0.9236
vn 0.4193 -0.4022 0.8139
vn 0.4121 -0.3970 -0.8201
vn 0.4265 0.0000 -0.9045
vn 0.0000 -0.3850 -0.9229
vn 0.4121 0.3970 -0.8201
vn 0.0000 0.3850 -0.9229
vn -0.4121 0.3970 -0.8201
vn -0.4265 0.0000 -0.9045
vn -0.4121 -0.3970 -0.8201
vn 0.6682 -0.0000 -0.7440
vn 0.6284 0.3679 -0.6854
vn 0.6284 -0.3679 -0.6854
vn 0.6672 -0.3408 -0.6623
vn 0.7097 0.0000 -0.7045
vn 0.6672 0.3408 -0.6623
vn -0.6682 0.0000 -0.7440
vn -0.6284 -0.3679 -0.6854
vn -0.6284 0.3679 -0.6854
vn -0.6672 0.3408 -0.6623
vn -0.7097 0.0000 -0.7045
vn -0.6672 -0.3408 -0.6623
vn 0.2606 0.9540 0.1481
vn 0.0459 0.9988 0.0180
vn 0.3075 0.9485 0.0758
vn 0.0614 0.9981 -0.0047
vn -0.2964 0.9477 -0.1187
vn -0.2433 0.9525 -0.1832
vn 0.8012 0.4100 0.4359
vn 0.7995 0.4101 0.4389
vn 0.7995 -0.4101 0.4389
vn 0.8012 -0.4100 0.4359
vn 0.9028 -0.3878 0.1858
vn 0.9028 0.3878 0.1858
vn -0.7995 0.4101 0.4389
vn -0.8012 0.4100 0.4359
vn -0.9028 0.3878 0.1858
vn -0.8012 -0.4100 0.4359
vn -0.9028 -0.3878 0.1858
vn -0.7995 -0.4101 0.4389
vn 0.3827 0.9239 0.0000
vn 1.0000 0.0000 0.0000
vn -0.7634 -0.4617 0.4516
vn -0.7634 0.4617 0.4516
usemtl tiny_treats_1
s 1
f 13/1/1 15/2/1 4/3/1 2/4/1
f 18/5/2 20/6/3 16/7/4 12/8/5
f 19/9/6 9/10/7 5/11/8 14/12/9
f 3/13/10 6/14/11 10/15/12 8/16/12
f 17/17/13 7/18/13 9/10/13 19/9/13
f 1/19/14 2/20/15 3/21/10
f 4/22/16 5/11/8 6/23/11
f 9/10/13 7/18/13 8/16/13 10/24/13
f 11/25/17 12/26/5 13/27/18
f 14/12/9 15/28/19 16/29/4
f 20/6/13 18/30/13 17/17/13 19/9/13
f 7/18/20 1/19/14 3/21/10 8/31/21
f 2/4/15 4/3/16 6/14/11 3/13/10
f 5/11/8 9/10/7 10/24/22 6/23/11
f 11/25/17 17/17/23 18/30/2 12/26/5
f 19/9/24 14/12/9 16/29/4 20/32/3
f 15/2/19 13/1/18 12/8/5 16/7/4
f 1/19/14 11/25/17 13/27/18 2/20/15
f 14/12/9 5/11/8 4/22/16 15/28/19
f 7/18/20 17/17/25 11/25/17 1/19/14
f 32/33/1 34/34/1 24/35/1 22/36/1
f 35/37/6 30/38/7 25/39/8 33/40/9
f 23/41/10 26/42/11 29/43/12 28/44/26
f 21/45/14 22/46/15 23/47/10
f 24/48/16 25/39/8 26/49/11
f 31/50/17 104/51/27 32/52/18
f 33/40/9 34/53/19 108/54/28
f 27/55/21 21/45/14 23/47/10 28/56/26
f 22/36/15 24/35/16 26/42/11 23/41/10
f 25/39/8 30/38/7 29/57/22 26/49/11
f 31/50/17 36/58/23 109/59/23 104/51/27
f 35/37/24 33/40/9 108/54/28 111/60/24
f 34/34/19 32/33/18 104/61/27 108/62/28
f 21/45/14 31/50/17 32/52/18 22/46/15
f 33/40/9 25/39/8 24/48/16 34/53/19
f 27/55/25 36/58/25 31/50/17 21/45/14
f 37/63/29 74/64/30 81/65/31 78/66/32
f 74/64/30 46/67/33 62/68/34 81/65/31
f 81/65/31 62/68/34 47/69/35 72/70/36
f 78/66/32 81/65/31 72/70/36 42/71/37
f 41/72/38 69/73/39 82/74/40 80/75/41
f 69/73/39 51/76/42 65/77/43 82/74/40
f 82/74/40 65/77/43 50/78/44 70/79/45
f 80/75/41 82/74/40 70/79/45 39/80/46
f 43/81/47 73/82/48 83/83/49 77/84/50
f 73/82/48 52/85/51 66/86/52 83/83/49
f 83/83/49 66/86/52 45/87/53 76/88/54
f 77/84/50 83/83/49 76/88/54 38/89/55
f 44/90/56 56/91/57 84/92/58 79/93/59
f 56/91/57 43/81/47 77/84/50 84/92/58
f 84/92/58 77/84/50 38/89/55 58/94/60
f 79/93/59 84/92/58 58/94/60 40/95/61
f 42/71/37 55/96/62 85/97/63 78/66/32
f 55/96/62 41/72/38 80/75/41 85/97/63
f 85/97/63 80/75/41 39/80/46 57/98/64
f 78/66/32 85/97/63 57/98/64 37/63/29
f 40/99/65 58/100/66 86/101/1 54/102/67
f 58/100/66 38/103/68 53/104/69 86/101/1
f 86/101/1 53/104/69 37/105/70 57/106/71
f 54/102/67 86/101/1 57/106/71 39/107/72
f 42/108/73 59/109/74 87/110/13 55/111/75
f 59/109/74 43/112/76 56/113/77 87/110/13
f 87/110/13 56/113/77 44/114/78 60/115/79
f 55/111/75 87/110/13 60/115/79 41/116/80
f 43/112/76 59/109/74 88/117/81 73/118/82
f 59/109/74 42/108/73 72/119/83 88/117/81
f 88/117/81 72/119/83 47/120/84 67/121/85
f 73/118/82 88/117/81 67/121/85 52/122/86
f 41/116/80 60/115/79 89/123/87 69/124/88
f 60/115/79 44/114/78 75/125/89 89/123/87
f 89/123/87 75/125/89 48/126/90 68/127/91
f 69/124/88 89/123/87 68/127/91 51/128/92
f 40/95/61 71/129/93 90/130/94 79/93/59
f 71/129/93 49/131/95 63/132/96 90/130/94
f 90/130/94 63/132/96 48/133/97 75/134/98
f 79/93/59 90/130/94 75/134/98 44/90/56
f 40/99/65 54/102/67 91/135/99 71/136/100
f 54/102/67 39/107/72 70/137/101 91/135/102
f 91/135/102 70/137/101 50/138/103 64/139/103
f 71/136/100 91/135/99 64/139/104 49/140/104
f 38/103/68 76/141/105 92/142/106 53/104/69
f 76/141/105 45/143/107 61/144/107 92/142/106
f 92/142/108 61/144/109 46/145/109 74/146/110
f 53/104/69 92/142/108 74/146/110 37/105/70
f 29/43/13 30/38/13 35/37/13 111/60/13
f 28/44/13 29/43/13 111/60/13 109/147/13
f 27/55/13 28/44/13 109/147/13 36/58/13
f 105/148/1 94/149/1 96/150/1 107/151/1
f 110/152/7 106/153/8 97/154/9 102/155/111
f 95/156/5 100/157/2 101/158/112 98/159/4
f 93/160/17 95/161/5 94/162/18
f 96/163/19 98/164/4 97/154/9
f 103/165/14 105/166/15 104/51/113
f 106/153/8 108/54/114 107/167/16
f 99/168/23 100/169/2 95/161/5 93/160/17
f 94/149/18 95/156/5 98/159/4 96/150/19
f 97/154/9 98/164/4 101/170/24 102/155/111
f 103/165/14 104/51/113 109/59/21 112/171/21
f 110/152/7 111/60/22 108/54/114 106/153/8
f 107/151/16 108/62/114 104/61/113 105/148/15
f 93/160/17 94/162/18 105/166/15 103/165/14
f 106/153/8 107/167/16 96/163/19 97/154/9
f 99/168/25 93/160/17 103/165/14 112/171/25
f 113/172/46 154/173/41 157/174/40 150/175/45
f 150/175/45 157/174/40 138/176/43 122/177/44
f 157/174/40 148/178/39 123/179/42 138/176/43
f 154/173/41 118/180/38 148/178/39 157/174/40
f 117/181/37 156/182/32 158/183/31 145/184/36
f 145/184/36 158/183/31 141/185/34 127/186/35
f 158/183/31 146/187/30 126/188/33 141/185/34
f 156/182/32 115/189/29 146/187/30 158/183/31
f 119/190/56 153/191/59 159/192/94 149/193/98
f 149/193/98 159/192/94 142/194/96 128/195/97
f 159/192/94 152/196/93 121/197/95 142/194/96
f 153/191/59 114/198/61 152/196/93 159/192/94
f 120/199/47 155/200/50 160/201/58 132/202/57
f 132/202/57 160/201/58 153/191/59 119/190/56
f 160/201/58 134/203/60 114/198/61 153/191/59
f 155/200/50 116/204/55 134/203/60 160/201/58
f 118/180/38 154/173/41 161/205/63 131/206/62
f 131/206/62 161/205/63 156/182/32 117/181/37
f 161/205/63 133/207/64 115/189/29 156/182/32
f 154/173/41 113/172/46 133/207/64 161/205/63
f 116/208/68 130/209/69 162/210/1 134/211/66
f 134/211/66 162/210/1 129/212/67 114/213/65
f 162/210/1 133/214/71 113/215/72 129/212/67
f 130/209/69 115/216/70 133/214/71 162/210/1
f 118/217/80 131/218/75 163/219/13 135/220/79
f 135/220/79 163/219/13 132/221/77 119/222/78
f 163/219/13 136/223/74 120/224/76 132/221/77
f 131/218/75 117/225/73 136/223/74 163/219/13
f 119/222/78 149/226/89 164/227/87 135/220/79
f 135/220/79 164/227/87 148/228/88 118/217/80
f 164/227/87 143/229/91 123/230/92 148/228/88
f 149/226/89 128/231/90 143/229/91 164/227/87
f 117/225/73 145/232/83 165/233/81 136/223/74
f 136/223/74 165/233/81 151/234/82 120/224/76
f 165/233/81 144/235/85 124/236/86 151/234/82
f 145/232/83 127/237/84 144/235/85 165/233/81
f 116/204/55 155/200/50 166/238/49 147/239/54
f 147/239/54 166/238/49 139/240/52 125/241/53
f 166/238/49 151/242/48 124/243/51 139/240/52
f 155/200/50 120/199/47 151/242/48 166/238/49
f 116/208/68 147/244/105 167/245/106 130/209/69
f 130/209/69 167/245/108 146/246/110 115/216/70
f 167/245/108 140/247/109 126/248/109 146/246/110
f 147/244/105 125/249/107 140/247/107 167/245/106
f 114/213/65 129/212/67 168/250/99 152/251/100
f 152/251/100 168/250/99 137/252/104 121/253/104
f 168/250/102 150/254/101 122/255/103 137/252/103
f 129/212/67 113/215/72 150/254/101 168/250/102
f 101/158/13 111/60/13 110/152/13 102/155/13
f 100/157/13 109/147/13 111/60/13 101/158/13
f 99/168/13 112/171/13 109/147/13 100/157/13
