# Blender v3.4.1 OBJ File: 'Tiny_Treats_Charming_Kitchen_ASSETS_EXPORT.blend'
# www.blender.org
mtllib wall_shelf_kitchen.mtl
o wall_shelf_kitchen
v -0.950000 -0.249833 -0.000000
v -1.000000 -0.199867 -0.000000
v -1.000000 -0.049967 -0.000000
v -0.950000 0.000000 -0.000000
v 0.950000 -0.249833 0.000000
v 1.000000 -0.199867 0.000000
v 0.950000 0.000000 0.000000
v 1.000000 -0.049967 0.000000
v -0.950000 -0.249833 0.650000
v -0.950000 -0.199867 0.700000
v -1.000000 -0.199867 0.650000
v -0.950000 0.000000 0.650000
v -1.000000 -0.049967 0.650000
v -0.950000 -0.049967 0.700000
v 0.950000 -0.249833 0.650000
v 1.000000 -0.199867 0.650000
v 0.950000 -0.199867 0.700000
v 0.950000 0.000000 0.650000
v 0.950000 -0.049967 0.700000
v 1.000000 -0.049967 0.650000
v -0.880000 -0.500000 0.080000
v -0.880000 -0.480013 0.100000
v -0.900000 -0.480013 0.080000
v -0.880000 -0.250000 0.100000
v -0.900000 -0.250000 0.080000
v -0.880000 -0.500000 0.000000
v -0.900000 -0.480013 0.000000
v -0.900000 -0.250000 0.000000
v -0.720000 -0.500000 0.080000
v -0.700000 -0.480013 0.080000
v -0.720000 -0.480013 0.100000
v -0.720000 -0.250000 0.100000
v -0.700000 -0.250000 0.080000
v -0.720000 -0.500000 0.000000
v -0.700000 -0.480013 0.000000
v -0.700000 -0.250000 0.000000
v -0.870000 -0.465279 0.089544
v -0.890000 -0.447165 0.081092
v -0.870000 -0.228770 0.597077
v -0.890000 -0.210656 0.588624
v -0.890000 -0.392822 0.055735
v -0.870000 -0.374708 0.047282
v -0.870000 -0.138200 0.554815
v -0.890000 -0.156314 0.563267
v -0.710000 -0.447165 0.081092
v -0.730000 -0.465279 0.089544
v -0.730000 -0.228770 0.597077
v -0.710000 -0.210656 0.588624
v -0.730000 -0.374708 0.047282
v -0.710000 -0.392822 0.055735
v -0.710000 -0.156314 0.563267
v -0.730000 -0.138200 0.554815
v 0.720000 -0.500000 0.080000
v 0.720000 -0.480013 0.100000
v 0.700000 -0.480013 0.080000
v 0.720000 -0.250000 0.100000
v 0.700000 -0.250000 0.080000
v 0.720000 -0.500000 0.000000
v 0.700000 -0.480013 0.000000
v 0.700000 -0.250000 0.000000
v 0.880000 -0.500000 0.080000
v 0.900000 -0.480013 0.080000
v 0.880000 -0.480013 0.100000
v 0.880000 -0.250000 0.100000
v 0.900000 -0.250000 0.080000
v 0.880000 -0.500000 0.000000
v 0.900000 -0.480013 0.000000
v 0.900000 -0.250000 0.000000
v 0.730000 -0.465279 0.089544
v 0.710000 -0.447165 0.081092
v 0.730000 -0.228770 0.597077
v 0.710000 -0.210656 0.588624
v 0.710000 -0.392822 0.055735
v 0.730000 -0.374708 0.047282
v 0.730000 -0.138200 0.554815
v 0.710000 -0.156314 0.563267
v 0.890000 -0.447165 0.081092
v 0.870000 -0.465279 0.089544
v 0.870000 -0.228770 0.597077
v 0.890000 -0.210656 0.588624
v 0.870000 -0.374708 0.047282
v 0.890000 -0.392822 0.055735
v 0.890000 -0.156314 0.563267
v 0.870000 -0.138200 0.554815
vt 0.717171 0.879049
vt 0.717171 0.902201
vt 0.655373 0.902201
vt 0.655373 0.879049
vt 0.724896 0.879049
vt 0.724896 0.902201
vt 0.724896 0.902201
vt 0.724896 0.879049
vt 0.717171 0.941168
vt 0.655373 0.941168
vt 0.655373 0.941168
vt 0.717171 0.941168
vt 0.655373 0.879049
vt 0.655373 0.902201
vt 0.717171 0.902201
vt 0.717171 0.879049
vt 0.717171 0.855707
vt 0.724896 0.863424
vt 0.717171 0.863424
vt 0.717171 0.956793
vt 0.717171 0.949076
vt 0.724896 0.949076
vt 0.717171 0.855707
vt 0.717171 0.863424
vt 0.724896 0.863424
vt 0.717171 0.956793
vt 0.724896 0.949076
vt 0.717171 0.949076
vt 0.655373 0.840082
vt 0.655373 0.956793
vt 0.655373 0.855707
vt 0.655373 0.949076
vt 0.655373 0.956793
vt 0.655373 0.855707
vt 0.655373 0.863424
vt 0.655373 0.949076
vt 0.724896 0.917826
vt 0.724896 0.894674
vt 0.717171 0.894674
vt 0.717171 0.917826
vt 0.717171 0.917826
vt 0.717171 0.894674
vt 0.724896 0.894674
vt 0.724896 0.917826
vt 0.655373 0.863424
vt 0.717171 0.840082
vt 0.717171 0.840082
vt 0.655373 0.840082
vt 0.464395 0.824319
vt 0.464395 0.868095
vt 0.433944 0.868095
vt 0.433944 0.824319
vt 0.468201 0.824319
vt 0.468201 0.868095
vt 0.468201 0.868095
vt 0.468201 0.824319
vt 0.430137 0.824319
vt 0.430137 0.868095
vt 0.430137 0.868095
vt 0.430137 0.824319
vt 0.433944 0.789265
vt 0.433944 0.793069
vt 0.430137 0.793069
vt 0.464395 0.789265
vt 0.468201 0.793069
vt 0.464395 0.793069
vt 0.433944 0.789265
vt 0.430137 0.793069
vt 0.464395 0.789265
vt 0.468201 0.793069
vt 0.462492 0.795873
vt 0.462492 0.840885
vt 0.435847 0.840885
vt 0.435847 0.795873
vt 0.466298 0.840913
vt 0.466298 0.885925
vt 0.466298 0.875582
vt 0.466298 0.830570
vt 0.432041 0.830570
vt 0.432041 0.875582
vt 0.432041 0.885925
vt 0.432041 0.840913
vt 0.435847 0.844360
vt 0.435847 0.889372
vt 0.462492 0.889372
vt 0.462492 0.844360
vt 0.432041 0.844332
vt 0.432041 0.799320
vt 0.466298 0.799320
vt 0.466298 0.844332
vt 0.441056 0.824319
vt 0.441056 0.868095
vt 0.410605 0.868095
vt 0.410605 0.824319
vt 0.444863 0.824319
vt 0.444863 0.868095
vt 0.444863 0.868095
vt 0.444863 0.824319
vt 0.406799 0.824319
vt 0.406799 0.868095
vt 0.406799 0.868095
vt 0.406799 0.824319
vt 0.410605 0.789265
vt 0.410605 0.793069
vt 0.406799 0.793069
vt 0.441056 0.789265
vt 0.444863 0.793069
vt 0.441056 0.793069
vt 0.406799 0.793069
vt 0.410605 0.789265
vt 0.444863 0.793069
vt 0.441056 0.789265
vt 0.439153 0.795873
vt 0.439153 0.840885
vt 0.412508 0.840885
vt 0.412508 0.795873
vt 0.442959 0.840913
vt 0.442959 0.885925
vt 0.442959 0.875582
vt 0.442959 0.830570
vt 0.408702 0.830570
vt 0.408702 0.875582
vt 0.408702 0.885925
vt 0.408702 0.840913
vt 0.412508 0.844360
vt 0.412508 0.889372
vt 0.439153 0.889372
vt 0.439153 0.844360
vt 0.408702 0.844332
vt 0.408702 0.799320
vt 0.442959 0.799320
vt 0.442959 0.844332
vn -0.8755 -0.3417 0.3416
vn -0.8755 0.3417 0.3416
vn -1.0000 0.0000 0.0000
vn 0.3416 -0.3417 0.8755
vn 0.3416 0.3417 0.8755
vn -0.0000 0.0000 1.0000
vn 0.3415 0.8757 0.3415
vn 0.3825 0.9239 0.0000
vn -0.3825 0.9239 0.0000
vn -0.3415 0.8757 0.3415
vn 1.0000 0.0000 0.0000
vn -0.3415 -0.8757 0.3415
vn -0.4605 -0.4607 0.7587
vn -0.4605 0.4607 0.7587
vn 0.3415 -0.8757 0.3415
vn 0.7587 -0.4607 0.4605
vn 0.7587 0.4607 0.4605
vn 0.0000 0.0000 -1.0000
vn 0.3825 -0.9239 0.0000
vn 0.7069 -0.7073 0.0000
vn 0.7069 0.7073 0.0000
vn -0.3825 -0.9239 0.0000
vn -0.7069 -0.7073 0.0000
vn -0.7069 0.7073 0.0000
vn 0.3827 0.0000 0.9239
vn -0.3827 0.0000 0.9239
vn -0.3416 -0.3417 0.8755
vn -0.7587 -0.4607 0.4605
vn -0.7071 0.0000 0.7071
vn 0.7071 0.0000 0.7071
vn 0.3826 -0.8375 0.3902
vn 0.3825 -0.8375 0.3903
vn -0.3825 -0.8375 0.3903
vn -0.3826 -0.8374 0.3902
vn -0.3825 0.8375 -0.3903
vn -0.3826 0.8374 -0.3902
vn 0.3826 0.8375 -0.3902
vn 0.3825 0.8375 -0.3903
vn -0.7069 -0.6411 0.2988
vn -0.7069 0.6411 -0.2988
vn 0.7069 0.6411 -0.2988
vn 0.7069 -0.6411 0.2988
vn 0.3826 -0.8374 0.3902
vn -0.3826 -0.8375 0.3902
vn -0.3826 0.8375 -0.3902
vn 0.3826 0.8374 -0.3902
usemtl tiny_treats_1
s 1
f 11/1/1 13/2/2 3/3/3 2/4/3
f 17/5/4 19/6/5 14/7/6 10/8/6
f 18/9/7 7/10/8 4/11/9 12/12/10
f 6/13/11 8/14/11 20/15/11 16/16/11
f 9/17/12 10/18/13 11/19/1
f 12/20/10 13/21/2 14/22/14
f 15/23/15 16/24/16 17/25/4
f 18/26/7 19/27/5 20/28/17
f 6/13/18 5/29/18 7/30/18 8/14/18
f 5/29/18 1/31/18 4/11/18 7/10/18
f 1/31/18 2/4/18 3/32/18 4/33/18
f 15/23/15 5/34/19 6/35/20 16/24/16
f 7/30/8 18/26/7 20/28/17 8/36/21
f 19/37/5 17/38/4 16/39/16 20/40/17
f 9/17/12 15/23/15 17/25/4 10/18/13
f 18/26/7 12/20/10 14/22/14 19/27/5
f 13/41/2 11/42/1 10/43/13 14/44/14
f 1/31/22 9/17/12 11/19/1 2/45/23
f 12/20/10 4/33/9 3/32/24 13/21/2
f 5/29/19 15/46/15 9/47/12 1/48/22
f 31/49/4 32/50/25 24/51/26 22/52/27
f 35/53/11 36/54/11 33/55/11 30/56/11
f 23/57/3 25/58/3 28/59/3 27/60/3
f 21/61/12 22/62/27 23/63/28
f 29/64/15 30/65/16 31/66/4
f 26/67/22 21/61/12 23/63/28 27/68/23
f 22/52/27 24/51/26 25/58/29 23/57/28
f 29/64/15 34/69/19 35/70/20 30/65/16
f 32/50/25 31/49/4 30/56/16 33/55/30
f 21/61/12 29/64/15 31/66/4 22/62/27
f 26/67/22 34/69/19 29/64/15 21/61/12
f 46/71/31 47/72/32 39/73/33 37/74/34
f 50/75/11 51/76/11 48/77/11 45/78/11
f 38/79/3 40/80/3 44/81/3 41/82/3
f 42/83/35 43/84/36 52/85/37 49/86/38
f 37/74/34 39/73/33 40/87/39 38/88/39
f 43/84/36 42/83/35 41/82/40 44/81/40
f 51/76/41 50/75/41 49/86/38 52/85/37
f 47/72/32 46/71/31 45/89/42 48/90/42
f 63/91/4 64/92/25 56/93/26 54/94/27
f 67/95/11 68/96/11 65/97/11 62/98/11
f 55/99/3 57/100/3 60/101/3 59/102/3
f 53/103/12 54/104/27 55/105/28
f 61/106/15 62/107/16 63/108/4
f 68/96/18 67/95/18 59/109/18 60/101/18
f 58/110/22 53/103/12 55/105/28 59/109/23
f 54/94/27 56/93/26 57/100/29 55/99/28
f 58/110/18 59/109/18 67/111/18 66/112/18
f 27/68/18 28/59/18 36/54/18 35/70/18
f 26/67/18 27/68/18 35/70/18 34/69/18
f 61/106/15 66/112/19 67/111/20 62/107/16
f 64/92/25 63/91/4 62/98/16 65/97/30
f 53/103/12 61/106/15 63/108/4 54/104/27
f 58/110/22 66/112/19 61/106/15 53/103/12
f 78/113/43 79/114/32 71/115/33 69/116/44
f 82/117/11 83/118/11 80/119/11 77/120/11
f 70/121/3 72/122/3 76/123/3 73/124/3
f 74/125/35 75/126/45 84/127/46 81/128/38
f 69/116/44 71/115/33 72/129/39 70/130/39
f 75/126/45 74/125/35 73/124/40 76/123/40
f 83/118/41 82/117/41 81/128/38 84/127/46
f 79/114/32 78/113/43 77/131/42 80/132/42
